<svg width="20" height="20" viewBox="0 0 20 20" fill="none" xmlns="http://www.w3.org/2000/svg">
<path fill-rule="evenodd" clip-rule="evenodd" d="M10.0002 4.375C5.97309 4.375 2.7085 7.63959 2.7085 11.6667C2.7085 15.6937 5.97309 18.9583 10.0002 18.9583C14.0272 18.9583 17.2918 15.6937 17.2918 11.6667C17.2918 7.63959 14.0272 4.375 10.0002 4.375ZM10.6252 8.33333C10.6252 7.98816 10.3453 7.70833 10.0002 7.70833C9.655 7.70833 9.37516 7.98816 9.37516 8.33333V11.6667C9.37516 12.0118 9.655 12.2917 10.0002 12.2917C10.3453 12.2917 10.6252 12.0118 10.6252 11.6667V8.33333Z" fill="white"/>
<path fill-rule="evenodd" clip-rule="evenodd" d="M6.875 1.66666C6.875 1.32148 7.15483 1.04166 7.5 1.04166H12.5C12.8452 1.04166 13.125 1.32148 13.125 1.66666C13.125 2.01183 12.8452 2.29166 12.5 2.29166H7.5C7.15483 2.29166 6.875 2.01183 6.875 1.66666Z" fill="white"/>
</svg>
