<svg width="28" height="42" viewBox="0 0 28 42" fill="none" xmlns="http://www.w3.org/2000/svg">
<g clip-path="url(#clip0_321_3763)">
<path d="M11.503 19.3718L5.36748 21.3662C4.90997 21.5149 4.4375 21.1828 4.4375 20.7125V3.79175C4.4375 3.49518 4.63211 3.23188 4.92061 3.13811L11.503 0.998474M11.503 19.3718L17.6385 21.3662C18.096 21.5149 18.5684 21.1828 18.5684 20.7125V3.79175C18.5684 3.49518 18.3738 3.23188 18.0853 3.13811L11.503 0.998474M11.503 19.3718V0.998474" stroke="white" stroke-width="1.37539" stroke-linecap="round" stroke-linejoin="round"/>
<path d="M18.5684 3.29509L24.7039 1.30072C25.1614 1.152 25.6338 1.48407 25.6338 1.95436V14.7784" stroke="white" stroke-width="1.37539" stroke-linecap="round" stroke-linejoin="round"/>
<path d="M21.0664 23.2347L23.5645 20.7988M23.5645 20.7988L26.0625 18.3627M23.5645 20.7988L21.0664 18.3627M23.5645 20.7988L26.0625 23.2347" stroke="white" stroke-width="1.37539" stroke-linecap="round" stroke-linejoin="round"/>
</g>
<path d="M3.88637 38.7702C3.27037 38.7702 2.7617 38.6536 2.36037 38.4202C1.95903 38.1869 1.66037 37.8696 1.46437 37.4682C1.26837 37.0669 1.17037 36.6142 1.17037 36.1102V34.6262C1.17037 34.1222 1.2637 33.6696 1.45037 33.2682C1.64637 32.8669 1.94503 32.5496 2.34637 32.3162C2.75703 32.0829 3.27037 31.9662 3.88637 31.9662C4.27837 31.9662 4.61903 32.0176 4.90837 32.1202C5.20703 32.2136 5.4357 32.3302 5.59437 32.4702C5.76237 32.6102 5.84637 32.7456 5.84637 32.8762C5.84637 32.9416 5.8277 33.0116 5.79037 33.0862C5.76237 33.1516 5.7157 33.2076 5.65037 33.2542C5.59437 33.3009 5.52903 33.3242 5.45437 33.3242C5.37037 33.3242 5.27237 33.2822 5.16037 33.1982C5.0577 33.1049 4.91303 33.0162 4.72637 32.9322C4.5397 32.8482 4.2737 32.8062 3.92837 32.8062C3.3217 32.8062 2.8597 32.9696 2.54237 33.2962C2.23437 33.6136 2.08037 34.0569 2.08037 34.6262V36.1102C2.08037 36.6796 2.23437 37.1276 2.54237 37.4542C2.8597 37.7716 3.32637 37.9302 3.94237 37.9302C4.29703 37.9302 4.57237 37.8882 4.76837 37.8042C4.96437 37.7109 5.1137 37.6222 5.21637 37.5382C5.32837 37.4449 5.43103 37.3982 5.52437 37.3982C5.60837 37.3982 5.67837 37.4216 5.73437 37.4682C5.7997 37.5149 5.84637 37.5709 5.87437 37.6362C5.9117 37.7016 5.93037 37.7716 5.93037 37.8462C5.93037 37.9676 5.84637 38.1029 5.67837 38.2522C5.51037 38.3922 5.27237 38.5136 4.96437 38.6162C4.6657 38.7189 4.30637 38.7702 3.88637 38.7702ZM8.6339 38.7702C8.1019 38.7702 7.64923 38.6209 7.2759 38.3222C6.9119 38.0142 6.7299 37.5476 6.7299 36.9222C6.7299 36.4089 6.86523 36.0169 7.1359 35.7462C7.4159 35.4662 7.79857 35.2749 8.2839 35.1722C8.77857 35.0602 9.3479 35.0042 9.9919 35.0042H10.7059V34.6822C10.7059 34.3742 10.6499 34.0756 10.5379 33.7862C10.4352 33.4876 10.2626 33.2449 10.0199 33.0582C9.78657 32.8622 9.46457 32.7642 9.0539 32.7642C8.7459 32.7642 8.4939 32.7969 8.2979 32.8622C8.1019 32.9276 7.9479 32.9976 7.8359 33.0722C7.7239 33.1376 7.63057 33.1702 7.5559 33.1702C7.4439 33.1702 7.35057 33.1142 7.2759 33.0022C7.21057 32.8902 7.1779 32.7876 7.1779 32.6942C7.1779 32.5636 7.2759 32.4469 7.4719 32.3442C7.6679 32.2322 7.91057 32.1436 8.1999 32.0782C8.49857 32.0036 8.79257 31.9662 9.0819 31.9662C9.70723 31.9662 10.2019 32.0969 10.5659 32.3582C10.9392 32.6102 11.2052 32.9416 11.3639 33.3522C11.5319 33.7629 11.6159 34.2016 11.6159 34.6682V38.3082C11.6159 38.4109 11.5739 38.4996 11.4899 38.5742C11.4152 38.6396 11.3079 38.6722 11.1679 38.6722C11.0559 38.6722 10.9532 38.6396 10.8599 38.5742C10.7759 38.4996 10.7339 38.4109 10.7339 38.3082V37.6922C10.5006 37.9722 10.2112 38.2242 9.8659 38.4482C9.52057 38.6629 9.1099 38.7702 8.6339 38.7702ZM8.8579 38.0002C9.1659 38.0002 9.4599 37.9209 9.7399 37.7622C10.0199 37.6036 10.2486 37.4122 10.4259 37.1882C10.6126 36.9549 10.7059 36.7356 10.7059 36.5302V35.6342H10.1179C9.6979 35.6342 9.29657 35.6622 8.9139 35.7182C8.54057 35.7649 8.23257 35.8722 7.9899 36.0402C7.75657 36.2082 7.6399 36.4742 7.6399 36.8382C7.6399 37.2396 7.75657 37.5336 7.9899 37.7202C8.23257 37.9069 8.5219 38.0002 8.8579 38.0002ZM13.7506 38.6722C13.6292 38.6722 13.5219 38.6349 13.4286 38.5602C13.3446 38.4856 13.3026 38.4016 13.3026 38.3082V32.4002C13.3026 32.2882 13.3446 32.2042 13.4286 32.1482C13.5219 32.0829 13.6292 32.0502 13.7506 32.0502C13.8719 32.0502 13.9746 32.0829 14.0586 32.1482C14.1426 32.2042 14.1846 32.2882 14.1846 32.4002V33.0862C14.2872 32.8902 14.4272 32.7082 14.6046 32.5402C14.7819 32.3722 14.9919 32.2369 15.2346 32.1342C15.4772 32.0222 15.7526 31.9662 16.0606 31.9662H16.5506C16.6532 31.9662 16.7372 32.0082 16.8026 32.0922C16.8772 32.1762 16.9146 32.2742 16.9146 32.3862C16.9146 32.5076 16.8772 32.6102 16.8026 32.6942C16.7372 32.7689 16.6532 32.8062 16.5506 32.8062H16.0606C15.7526 32.8062 15.4539 32.8902 15.1646 33.0582C14.8846 33.2262 14.6559 33.4596 14.4786 33.7582C14.3012 34.0569 14.2126 34.4209 14.2126 34.8502V38.3082C14.2126 38.4016 14.1659 38.4856 14.0726 38.5602C13.9886 38.6349 13.8812 38.6722 13.7506 38.6722ZM20.1217 38.6722C19.403 38.6722 18.8523 38.5089 18.4697 38.1822C18.087 37.8556 17.8957 37.3329 17.8957 36.6142V29.2502C17.8957 29.1382 17.9423 29.0542 18.0357 28.9982C18.1383 28.9329 18.241 28.9002 18.3437 28.9002C18.465 28.9002 18.5723 28.9329 18.6657 28.9982C18.759 29.0542 18.8057 29.1382 18.8057 29.2502V32.0502H20.6257C20.719 32.0502 20.7937 32.0876 20.8497 32.1622C20.9057 32.2369 20.9337 32.3256 20.9337 32.4282C20.9337 32.5309 20.9057 32.6196 20.8497 32.6942C20.7937 32.7689 20.719 32.8062 20.6257 32.8062H18.8057V36.6142C18.8057 37.0716 18.9037 37.3936 19.0997 37.5802C19.2957 37.7576 19.6363 37.8462 20.1217 37.8462H20.5137C20.6443 37.8462 20.7423 37.8882 20.8077 37.9722C20.8823 38.0469 20.9197 38.1402 20.9197 38.2522C20.9197 38.3642 20.8823 38.4622 20.8077 38.5462C20.7423 38.6302 20.6443 38.6722 20.5137 38.6722H20.1217ZM24.7015 38.7702C24.1135 38.7702 23.5909 38.6582 23.1335 38.4342C22.6855 38.2102 22.3309 37.9022 22.0695 37.5102C21.8175 37.1089 21.6915 36.6422 21.6915 36.1102V34.5562C21.6915 34.0896 21.8129 33.6602 22.0555 33.2682C22.2982 32.8669 22.6202 32.5496 23.0215 32.3162C23.4322 32.0829 23.8802 31.9662 24.3655 31.9662C24.8322 31.9662 25.2615 32.0782 25.6535 32.3022C26.0549 32.5169 26.3769 32.8156 26.6195 33.1982C26.8622 33.5809 26.9835 34.0242 26.9835 34.5282C26.9835 34.8829 26.9229 35.1396 26.8015 35.2982C26.6802 35.4569 26.5262 35.5549 26.3395 35.5922C26.1622 35.6202 25.9709 35.6342 25.7655 35.6342H22.6015V36.1522C22.6015 36.7122 22.8022 37.1556 23.2035 37.4822C23.6049 37.8089 24.1135 37.9722 24.7295 37.9722C25.1029 37.9722 25.3922 37.9256 25.5975 37.8322C25.8029 37.7389 25.9615 37.6456 26.0735 37.5522C26.1949 37.4589 26.3069 37.4122 26.4095 37.4122C26.4842 37.4122 26.5495 37.4402 26.6055 37.4962C26.6709 37.5429 26.7175 37.5989 26.7455 37.6642C26.7829 37.7296 26.8015 37.7902 26.8015 37.8462C26.8015 37.9489 26.7175 38.0749 26.5495 38.2242C26.3815 38.3736 26.1389 38.5042 25.8215 38.6162C25.5042 38.7189 25.1309 38.7702 24.7015 38.7702ZM22.6015 34.9622H25.4015C25.6815 34.9622 25.8682 34.9342 25.9615 34.8782C26.0549 34.8129 26.1015 34.6822 26.1015 34.4862C26.1015 34.1876 26.0269 33.9076 25.8775 33.6462C25.7282 33.3756 25.5229 33.1562 25.2615 32.9882C25.0002 32.8109 24.6969 32.7222 24.3515 32.7222C24.0342 32.7222 23.7402 32.8016 23.4695 32.9602C23.2082 33.1189 22.9982 33.3242 22.8395 33.5762C22.6809 33.8282 22.6015 34.1129 22.6015 34.4302V34.9622Z" fill="white"/>
<defs>
<clipPath id="clip0_321_3763">
<rect width="24.4375" height="24.4375" fill="white" transform="translate(3.0625 0.234741)"/>
</clipPath>
</defs>
</svg>
