<svg width="23" height="23" viewBox="0 0 23 23" fill="none" xmlns="http://www.w3.org/2000/svg">
<rect x="0.231934" y="0.748291" width="22.1733" height="22.1733" rx="11.0867" fill="black"/>
<path d="M9.07952 16.351L5.55986 17.5242C5.2974 17.6117 5.02637 17.4163 5.02637 17.1396V7.18573C5.02637 7.01127 5.138 6.85638 5.30351 6.80121L9.07952 5.54254M9.07952 16.351L12.5992 17.5242C12.8617 17.6117 13.1327 17.4163 13.1327 17.1396V7.18573C13.1327 7.01127 13.021 6.85638 12.8555 6.80121L9.07952 5.54254M9.07952 16.351V5.54254" stroke="white" stroke-width="0.759966" stroke-linecap="round" stroke-linejoin="round"/>
<path d="M13.1328 6.73681L16.6525 5.56359C16.9149 5.4761 17.186 5.67145 17.186 5.94811V13.4921" stroke="white" stroke-width="0.759966" stroke-linecap="round" stroke-linejoin="round"/>
<path d="M14.7886 17.997L16.2216 16.564M16.2216 16.564L17.6546 15.1309M16.2216 16.564L14.7886 15.1309M16.2216 16.564L17.6546 17.997" stroke="white" stroke-width="0.759966" stroke-linecap="round" stroke-linejoin="round"/>
</svg>
