<svg width="270" height="331" viewBox="0 0 270 331" fill="none" xmlns="http://www.w3.org/2000/svg">
<rect width="269" height="268" transform="translate(0.5 0.953491)" fill="black" fill-opacity="0.8"/>
<path d="M64.5724 18.9535V10.2262H67.5213C68.206 10.2262 68.7656 10.3498 69.2003 10.597C69.6378 10.8413 69.9616 11.1722 70.1719 11.5899C70.3821 12.0075 70.4872 12.4734 70.4872 12.9876C70.4872 13.5018 70.3821 13.9691 70.1719 14.3896C69.9645 14.81 69.6435 15.1453 69.2088 15.3953C68.7741 15.6424 68.2173 15.766 67.5384 15.766H65.4247V14.8285H67.5043C67.973 14.8285 68.3494 14.7475 68.6335 14.5856C68.9176 14.4237 69.1236 14.2049 69.2514 13.9293C69.3821 13.6509 69.4474 13.337 69.4474 12.9876C69.4474 12.6382 69.3821 12.3257 69.2514 12.0501C69.1236 11.7745 68.9162 11.5586 68.6293 11.4024C68.3423 11.2433 67.9616 11.1637 67.4872 11.1637H65.6293V18.9535H64.5724ZM73.0589 10.2262V18.9535H72.0533V10.2262H73.0589ZM76.8271 19.1069C76.4123 19.1069 76.0359 19.0288 75.6978 18.8725C75.3597 18.7134 75.0913 18.4847 74.8924 18.1864C74.6935 17.8853 74.5941 17.5217 74.5941 17.0955C74.5941 16.7205 74.668 16.4166 74.8157 16.1836C74.9634 15.9478 75.1609 15.7632 75.408 15.6296C75.6552 15.4961 75.9279 15.3967 76.2262 15.3313C76.5273 15.2632 76.8299 15.2092 77.1339 15.1694C77.5316 15.1183 77.854 15.0799 78.1012 15.0543C78.3512 15.0259 78.533 14.9791 78.6467 14.9137C78.7631 14.8484 78.8214 14.7347 78.8214 14.5728V14.5387C78.8214 14.1183 78.7063 13.7916 78.4762 13.5586C78.2489 13.3257 77.9038 13.2092 77.4407 13.2092C76.9606 13.2092 76.5842 13.3143 76.3114 13.5245C76.0387 13.7347 75.8469 13.9592 75.7362 14.1978L74.7816 13.8569C74.9521 13.4592 75.1793 13.1495 75.4634 12.9279C75.7504 12.7035 76.0629 12.5472 76.4009 12.4592C76.7418 12.3683 77.0771 12.3228 77.4066 12.3228C77.6168 12.3228 77.8583 12.3484 78.131 12.3995C78.4066 12.4478 78.6722 12.5487 78.9279 12.7021C79.1864 12.8555 79.4009 13.087 79.5714 13.3967C79.7418 13.7063 79.8271 14.1211 79.8271 14.641V18.9535H78.8214V18.0671H78.7702C78.7021 18.2092 78.5884 18.3612 78.4293 18.5231C78.2702 18.685 78.0586 18.8228 77.7944 18.9364C77.5302 19.0501 77.2077 19.1069 76.8271 19.1069ZM76.9805 18.2035C77.3782 18.2035 77.7134 18.1254 77.9862 17.9691C78.2617 17.8129 78.4691 17.6112 78.6083 17.364C78.7504 17.1168 78.8214 16.8569 78.8214 16.5842V15.6637C78.7788 15.7149 78.685 15.7617 78.5401 15.8043C78.3981 15.8441 78.2333 15.8796 78.0458 15.9109C77.8612 15.9393 77.6808 15.9649 77.5046 15.9876C77.3313 16.0075 77.1907 16.0245 77.0827 16.0387C76.8214 16.0728 76.5771 16.1282 76.3498 16.2049C76.1254 16.2788 75.9435 16.391 75.8043 16.5416C75.668 16.6893 75.5998 16.891 75.5998 17.1467C75.5998 17.4961 75.729 17.7603 75.9876 17.9393C76.2489 18.1154 76.5799 18.2035 76.9805 18.2035ZM82.6683 15.016V18.9535H81.6626V12.408H82.6342V13.4308H82.7195C82.8729 13.0984 83.1058 12.8313 83.4183 12.6296C83.7308 12.4251 84.1342 12.3228 84.6286 12.3228C85.0717 12.3228 85.4595 12.4137 85.7919 12.5955C86.1243 12.7745 86.3828 13.0472 86.5675 13.4137C86.7521 13.7774 86.8445 14.2376 86.8445 14.7944V18.9535H85.8388V14.8626C85.8388 14.3484 85.7053 13.9478 85.4382 13.6609C85.1712 13.3711 84.8047 13.2262 84.3388 13.2262C84.0178 13.2262 83.7308 13.2958 83.478 13.435C83.228 13.5742 83.0305 13.7774 82.8857 14.0444C82.7408 14.3114 82.6683 14.6353 82.6683 15.016ZM94.5288 19.0899C93.9833 19.0899 93.5018 18.9521 93.0842 18.6765C92.6665 18.3981 92.3398 18.006 92.104 17.5004C91.8683 16.9918 91.7504 16.391 91.7504 15.6978C91.7504 15.0103 91.8683 14.4137 92.104 13.908C92.3398 13.4024 92.668 13.0117 93.0884 12.7362C93.5089 12.4606 93.9947 12.3228 94.5458 12.3228C94.9719 12.3228 95.3086 12.3938 95.5558 12.5359C95.8058 12.6751 95.9961 12.8342 96.1268 13.0131C96.2603 13.1893 96.364 13.3342 96.4379 13.4478H96.5231V10.2262H97.5288V18.9535H96.5572V17.9478H96.4379C96.364 18.0671 96.2589 18.2177 96.1225 18.3995C95.9862 18.5785 95.7915 18.739 95.5387 18.881C95.2859 19.0203 94.9492 19.0899 94.5288 19.0899ZM94.6651 18.1864C95.0685 18.1864 95.4094 18.0813 95.6879 17.8711C95.9663 17.658 96.1779 17.364 96.3228 16.989C96.4677 16.6112 96.5401 16.1751 96.5401 15.6808C96.5401 15.1921 96.4691 14.7646 96.3271 14.3981C96.185 14.0288 95.9748 13.7418 95.6964 13.5373C95.418 13.3299 95.0742 13.2262 94.6651 13.2262C94.239 13.2262 93.8839 13.3356 93.5998 13.5543C93.3185 13.7703 93.1069 14.0643 92.9648 14.4364C92.8256 14.8058 92.756 15.2205 92.756 15.6808C92.756 16.1467 92.8271 16.57 92.9691 16.9507C93.114 17.3285 93.3271 17.6296 93.6083 17.8541C93.8924 18.0757 94.2447 18.1864 94.6651 18.1864ZM102.255 19.0899C101.624 19.0899 101.08 18.9507 100.623 18.6722C100.168 18.391 99.8171 17.9989 99.57 17.4961C99.3256 16.9904 99.2035 16.4024 99.2035 15.7319C99.2035 15.0614 99.3256 14.4705 99.57 13.9592C99.8171 13.445 100.161 13.0444 100.601 12.7575C101.044 12.4677 101.561 12.3228 102.152 12.3228C102.493 12.3228 102.83 12.3796 103.162 12.4933C103.495 12.6069 103.797 12.7916 104.07 13.0472C104.343 13.3001 104.56 13.6353 104.722 14.0529C104.884 14.4705 104.965 14.9847 104.965 15.5955V16.0217H99.9194V15.1524H103.942C103.942 14.783 103.868 14.4535 103.721 14.1637C103.576 13.8739 103.368 13.6453 103.098 13.4776C102.831 13.31 102.516 13.2262 102.152 13.2262C101.752 13.2262 101.405 13.3257 101.113 13.5245C100.823 13.7205 100.6 13.9762 100.444 14.2916C100.287 14.6069 100.209 14.945 100.209 15.3058V15.8853C100.209 16.3796 100.294 16.7987 100.465 17.1424C100.638 17.4833 100.878 17.7433 101.185 17.9222C101.492 18.0984 101.848 18.1864 102.255 18.1864C102.519 18.1864 102.757 18.1495 102.971 18.0757C103.186 17.9989 103.373 17.8853 103.529 17.7347C103.685 17.5813 103.806 17.391 103.891 17.1637L104.863 17.4364C104.76 17.766 104.588 18.0558 104.347 18.3058C104.105 18.5529 103.807 18.7461 103.452 18.8853C103.097 19.0217 102.698 19.0899 102.255 19.0899ZM110.875 10.2262V18.9535H109.87V10.2262H110.875ZM114.643 19.1069C114.229 19.1069 113.852 19.0288 113.514 18.8725C113.176 18.7134 112.908 18.4847 112.709 18.1864C112.51 17.8853 112.411 17.5217 112.411 17.0955C112.411 16.7205 112.484 16.4166 112.632 16.1836C112.78 15.9478 112.977 15.7632 113.224 15.6296C113.472 15.4961 113.744 15.3967 114.043 15.3313C114.344 15.2632 114.646 15.2092 114.95 15.1694C115.348 15.1183 115.67 15.0799 115.918 15.0543C116.168 15.0259 116.349 14.9791 116.463 14.9137C116.58 14.8484 116.638 14.7347 116.638 14.5728V14.5387C116.638 14.1183 116.523 13.7916 116.293 13.5586C116.065 13.3257 115.72 13.2092 115.257 13.2092C114.777 13.2092 114.401 13.3143 114.128 13.5245C113.855 13.7347 113.663 13.9592 113.553 14.1978L112.598 13.8569C112.768 13.4592 112.996 13.1495 113.28 12.9279C113.567 12.7035 113.879 12.5472 114.217 12.4592C114.558 12.3683 114.893 12.3228 115.223 12.3228C115.433 12.3228 115.675 12.3484 115.947 12.3995C116.223 12.4478 116.489 12.5487 116.744 12.7021C117.003 12.8555 117.217 13.087 117.388 13.3967C117.558 13.7063 117.643 14.1211 117.643 14.641V18.9535H116.638V18.0671H116.587C116.518 18.2092 116.405 18.3612 116.246 18.5231C116.087 18.685 115.875 18.8228 115.611 18.9364C115.347 19.0501 115.024 19.1069 114.643 19.1069ZM114.797 18.2035C115.195 18.2035 115.53 18.1254 115.803 17.9691C116.078 17.8129 116.286 17.6112 116.425 17.364C116.567 17.1168 116.638 16.8569 116.638 16.5842V15.6637C116.595 15.7149 116.501 15.7617 116.357 15.8043C116.214 15.8441 116.05 15.8796 115.862 15.9109C115.678 15.9393 115.497 15.9649 115.321 15.9876C115.148 16.0075 115.007 16.0245 114.899 16.0387C114.638 16.0728 114.393 16.1282 114.166 16.2049C113.942 16.2788 113.76 16.391 113.621 16.5416C113.484 16.6893 113.416 16.891 113.416 17.1467C113.416 17.4961 113.545 17.7603 113.804 17.9393C114.065 18.1154 114.396 18.2035 114.797 18.2035ZM127.49 13.8739L126.587 14.1296C126.53 13.9791 126.446 13.8328 126.336 13.6907C126.228 13.5458 126.08 13.4265 125.892 13.3328C125.705 13.239 125.465 13.1921 125.172 13.1921C124.772 13.1921 124.438 13.2845 124.171 13.4691C123.907 13.6509 123.775 13.8825 123.775 14.1637C123.775 14.4137 123.865 14.6112 124.047 14.756C124.229 14.9009 124.513 15.0217 124.9 15.1183L125.871 15.3569C126.456 15.4989 126.892 15.7163 127.179 16.0089C127.466 16.2987 127.61 16.6722 127.61 17.1296C127.61 17.5046 127.502 17.8399 127.286 18.1353C127.073 18.4308 126.775 18.6637 126.391 18.8342C126.007 19.0046 125.561 19.0899 125.053 19.0899C124.385 19.0899 123.833 18.945 123.395 18.6552C122.958 18.3654 122.681 17.9421 122.564 17.3853L123.519 17.1467C123.61 17.4989 123.782 17.7632 124.034 17.9393C124.29 18.1154 124.624 18.2035 125.036 18.2035C125.505 18.2035 125.877 18.1041 126.152 17.9052C126.431 17.7035 126.57 17.462 126.57 17.1808C126.57 16.9535 126.49 16.7632 126.331 16.6097C126.172 16.4535 125.928 16.337 125.598 16.2603L124.507 16.0046C123.908 15.8626 123.468 15.6424 123.186 15.3441C122.908 15.043 122.769 14.6666 122.769 14.2149C122.769 13.8455 122.873 13.5188 123.08 13.2347C123.29 12.9507 123.576 12.7276 123.936 12.5657C124.3 12.4038 124.712 12.3228 125.172 12.3228C125.82 12.3228 126.328 12.4649 126.698 12.7489C127.07 13.033 127.334 13.408 127.49 13.8739ZM131.05 19.1069C130.635 19.1069 130.259 19.0288 129.92 18.8725C129.582 18.7134 129.314 18.4847 129.115 18.1864C128.916 17.8853 128.817 17.5217 128.817 17.0955C128.817 16.7205 128.891 16.4166 129.038 16.1836C129.186 15.9478 129.384 15.7632 129.631 15.6296C129.878 15.4961 130.151 15.3967 130.449 15.3313C130.75 15.2632 131.053 15.2092 131.357 15.1694C131.754 15.1183 132.077 15.0799 132.324 15.0543C132.574 15.0259 132.756 14.9791 132.869 14.9137C132.986 14.8484 133.044 14.7347 133.044 14.5728V14.5387C133.044 14.1183 132.929 13.7916 132.699 13.5586C132.472 13.3257 132.126 13.2092 131.663 13.2092C131.183 13.2092 130.807 13.3143 130.534 13.5245C130.261 13.7347 130.07 13.9592 129.959 14.1978L129.004 13.8569C129.175 13.4592 129.402 13.1495 129.686 12.9279C129.973 12.7035 130.286 12.5472 130.624 12.4592C130.964 12.3683 131.3 12.3228 131.629 12.3228C131.839 12.3228 132.081 12.3484 132.354 12.3995C132.629 12.4478 132.895 12.5487 133.151 12.7021C133.409 12.8555 133.624 13.087 133.794 13.3967C133.964 13.7063 134.05 14.1211 134.05 14.641V18.9535H133.044V18.0671H132.993C132.925 18.2092 132.811 18.3612 132.652 18.5231C132.493 18.685 132.281 18.8228 132.017 18.9364C131.753 19.0501 131.43 19.1069 131.05 19.1069ZM131.203 18.2035C131.601 18.2035 131.936 18.1254 132.209 17.9691C132.484 17.8129 132.692 17.6112 132.831 17.364C132.973 17.1168 133.044 16.8569 133.044 16.5842V15.6637C133.001 15.7149 132.908 15.7617 132.763 15.8043C132.621 15.8441 132.456 15.8796 132.268 15.9109C132.084 15.9393 131.903 15.9649 131.727 15.9876C131.554 16.0075 131.413 16.0245 131.305 16.0387C131.044 16.0728 130.8 16.1282 130.572 16.2049C130.348 16.2788 130.166 16.391 130.027 16.5416C129.891 16.6893 129.822 16.891 129.822 17.1467C129.822 17.4961 129.952 17.7603 130.21 17.9393C130.472 18.1154 130.803 18.2035 131.203 18.2035ZM136.891 10.2262V18.9535H135.885V10.2262H136.891ZM139.739 10.2262V18.9535H138.733V10.2262H139.739ZM144.325 19.0899C143.694 19.0899 143.15 18.9507 142.693 18.6722C142.238 18.391 141.887 17.9989 141.64 17.4961C141.396 16.9904 141.274 16.4024 141.274 15.7319C141.274 15.0614 141.396 14.4705 141.64 13.9592C141.887 13.445 142.231 13.0444 142.672 12.7575C143.115 12.4677 143.632 12.3228 144.223 12.3228C144.564 12.3228 144.9 12.3796 145.233 12.4933C145.565 12.6069 145.868 12.7916 146.14 13.0472C146.413 13.3001 146.63 13.6353 146.792 14.0529C146.954 14.4705 147.035 14.9847 147.035 15.5955V16.0217H141.99V15.1524H146.012C146.012 14.783 145.939 14.4535 145.791 14.1637C145.646 13.8739 145.439 13.6453 145.169 13.4776C144.902 13.31 144.586 13.2262 144.223 13.2262C143.822 13.2262 143.475 13.3257 143.183 13.5245C142.893 13.7205 142.67 13.9762 142.514 14.2916C142.358 14.6069 142.279 14.945 142.279 15.3058V15.8853C142.279 16.3796 142.365 16.7987 142.535 17.1424C142.708 17.4833 142.949 17.7433 143.255 17.9222C143.562 18.0984 143.919 18.1864 144.325 18.1864C144.589 18.1864 144.828 18.1495 145.041 18.0757C145.257 17.9989 145.443 17.8853 145.599 17.7347C145.755 17.5813 145.876 17.391 145.961 17.1637L146.933 17.4364C146.831 17.766 146.659 18.0558 146.417 18.3058C146.176 18.5529 145.877 18.7461 145.522 18.8853C145.167 19.0217 144.768 19.0899 144.325 19.0899ZM154.412 19.0899C153.866 19.0899 153.385 18.9521 152.967 18.6765C152.549 18.3981 152.223 18.006 151.987 17.5004C151.751 16.9918 151.633 16.391 151.633 15.6978C151.633 15.0103 151.751 14.4137 151.987 13.908C152.223 13.4024 152.551 13.0117 152.971 12.7362C153.392 12.4606 153.877 12.3228 154.429 12.3228C154.855 12.3228 155.191 12.3938 155.439 12.5359C155.689 12.6751 155.879 12.8342 156.01 13.0131C156.143 13.1893 156.247 13.3342 156.321 13.4478H156.406V10.2262H157.412V18.9535H156.44V17.9478H156.321C156.247 18.0671 156.142 18.2177 156.005 18.3995C155.869 18.5785 155.674 18.739 155.422 18.881C155.169 19.0203 154.832 19.0899 154.412 19.0899ZM154.548 18.1864C154.951 18.1864 155.292 18.0813 155.571 17.8711C155.849 17.658 156.061 17.364 156.206 16.989C156.35 16.6112 156.423 16.1751 156.423 15.6808C156.423 15.1921 156.352 14.7646 156.21 14.3981C156.068 14.0288 155.858 13.7418 155.579 13.5373C155.301 13.3299 154.957 13.2262 154.548 13.2262C154.122 13.2262 153.767 13.3356 153.483 13.5543C153.201 13.7703 152.99 14.0643 152.848 14.4364C152.708 14.8058 152.639 15.2205 152.639 15.6808C152.639 16.1467 152.71 16.57 152.852 16.9507C152.997 17.3285 153.21 17.6296 153.491 17.8541C153.775 18.0757 154.127 18.1864 154.548 18.1864ZM160.279 10.2262V10.9933C160.279 11.2262 160.237 11.4748 160.152 11.739C160.069 12.0004 159.947 12.2546 159.785 12.5018C159.626 12.7461 159.433 12.9592 159.206 13.141L158.66 12.6978C158.839 12.4421 158.994 12.1765 159.125 11.9009C159.258 11.6225 159.325 11.3256 159.325 11.0103V10.2262H160.279ZM163.602 19.0899C162.972 19.0899 162.428 18.9507 161.97 18.6722C161.516 18.391 161.165 17.9989 160.918 17.4961C160.673 16.9904 160.551 16.4024 160.551 15.7319C160.551 15.0614 160.673 14.4705 160.918 13.9592C161.165 13.445 161.509 13.0444 161.949 12.7575C162.392 12.4677 162.909 12.3228 163.5 12.3228C163.841 12.3228 164.178 12.3796 164.51 12.4933C164.842 12.6069 165.145 12.7916 165.418 13.0472C165.69 13.3001 165.908 13.6353 166.07 14.0529C166.232 14.4705 166.312 14.9847 166.312 15.5955V16.0217H161.267V15.1524H165.29C165.29 14.783 165.216 14.4535 165.068 14.1637C164.923 13.8739 164.716 13.6453 164.446 13.4776C164.179 13.31 163.864 13.2262 163.5 13.2262C163.099 13.2262 162.753 13.3257 162.46 13.5245C162.17 13.7205 161.947 13.9762 161.791 14.2916C161.635 14.6069 161.557 14.945 161.557 15.3058V15.8853C161.557 16.3796 161.642 16.7987 161.812 17.1424C161.986 17.4833 162.226 17.7433 162.533 17.9222C162.839 18.0984 163.196 18.1864 163.602 18.1864C163.866 18.1864 164.105 18.1495 164.318 18.0757C164.534 17.9989 164.72 17.8853 164.876 17.7347C165.033 17.5813 165.153 17.391 165.239 17.1637L166.21 17.4364C166.108 17.766 165.936 18.0558 165.695 18.3058C165.453 18.5529 165.155 18.7461 164.8 18.8853C164.445 19.0217 164.045 19.0899 163.602 19.0899ZM168.848 15.016V18.9535H167.842V12.408H168.814V13.4308H168.899C169.053 13.0984 169.286 12.8313 169.598 12.6296C169.911 12.4251 170.314 12.3228 170.808 12.3228C171.251 12.3228 171.639 12.4137 171.972 12.5955C172.304 12.7745 172.563 13.0472 172.747 13.4137C172.932 13.7774 173.024 14.2376 173.024 14.7944V18.9535H172.018V14.8626C172.018 14.3484 171.885 13.9478 171.618 13.6609C171.351 13.3711 170.984 13.2262 170.518 13.2262C170.197 13.2262 169.911 13.2958 169.658 13.435C169.408 13.5742 169.21 13.7774 169.065 14.0444C168.92 14.3114 168.848 14.6353 168.848 15.016ZM179.328 21.408V17.9478H179.243C179.169 18.0671 179.064 18.2177 178.927 18.3995C178.791 18.5785 178.596 18.739 178.343 18.881C178.091 19.0203 177.754 19.0899 177.333 19.0899C176.788 19.0899 176.306 18.9521 175.889 18.6765C175.471 18.3981 175.145 18.006 174.909 17.5004C174.673 16.9918 174.555 16.391 174.555 15.6978C174.555 15.0103 174.673 14.4137 174.909 13.908C175.145 13.4024 175.473 13.0117 175.893 12.7362C176.314 12.4606 176.799 12.3228 177.35 12.3228C177.777 12.3228 178.113 12.3938 178.36 12.5359C178.61 12.6751 178.801 12.8342 178.931 13.0131C179.065 13.1893 179.169 13.3342 179.243 13.4478H179.362V12.408H180.333V21.408H179.328ZM177.47 18.1864C177.873 18.1864 178.214 18.0813 178.493 17.8711C178.771 17.658 178.983 17.364 179.127 16.989C179.272 16.6112 179.345 16.1751 179.345 15.6808C179.345 15.1921 179.274 14.7646 179.132 14.3981C178.99 14.0288 178.779 13.7418 178.501 13.5373C178.223 13.3299 177.879 13.2262 177.47 13.2262C177.044 13.2262 176.689 13.3356 176.404 13.5543C176.123 13.7703 175.912 14.0643 175.77 14.4364C175.63 14.8058 175.561 15.2205 175.561 15.6808C175.561 16.1467 175.632 16.57 175.774 16.9507C175.919 17.3285 176.132 17.6296 176.413 17.8541C176.697 18.0757 177.049 18.1864 177.47 18.1864ZM186.299 16.2774V12.408H187.305V18.9535H186.299V17.8455H186.231C186.078 18.1779 185.839 18.4606 185.515 18.6935C185.191 18.9237 184.782 19.0387 184.288 19.0387C183.879 19.0387 183.515 18.9492 183.197 18.7703C182.879 18.5884 182.629 18.3157 182.447 17.9521C182.265 17.5856 182.174 17.1239 182.174 16.5671V12.408H183.18V16.4989C183.18 16.9762 183.314 17.3569 183.581 17.641C183.85 17.9251 184.194 18.0671 184.612 18.0671C184.862 18.0671 185.116 18.0032 185.375 17.8754C185.636 17.7475 185.855 17.5515 186.031 17.2873C186.21 17.0231 186.299 16.6864 186.299 16.2774ZM191.891 19.0899C191.261 19.0899 190.717 18.9507 190.259 18.6722C189.805 18.391 189.454 17.9989 189.207 17.4961C188.962 16.9904 188.84 16.4024 188.84 15.7319C188.84 15.0614 188.962 14.4705 189.207 13.9592C189.454 13.445 189.798 13.0444 190.238 12.7575C190.681 12.4677 191.198 12.3228 191.789 12.3228C192.13 12.3228 192.467 12.3796 192.799 12.4933C193.131 12.6069 193.434 12.7916 193.707 13.0472C193.979 13.3001 194.197 13.6353 194.359 14.0529C194.521 14.4705 194.602 14.9847 194.602 15.5955V16.0217H189.556V15.1524H193.579C193.579 14.783 193.505 14.4535 193.357 14.1637C193.212 13.8739 193.005 13.6453 192.735 13.4776C192.468 13.31 192.153 13.2262 191.789 13.2262C191.388 13.2262 191.042 13.3257 190.749 13.5245C190.46 13.7205 190.237 13.9762 190.08 14.2916C189.924 14.6069 189.846 14.945 189.846 15.3058V15.8853C189.846 16.3796 189.931 16.7987 190.102 17.1424C190.275 17.4833 190.515 17.7433 190.822 17.9222C191.129 18.0984 191.485 18.1864 191.891 18.1864C192.156 18.1864 192.394 18.1495 192.607 18.0757C192.823 17.9989 193.009 17.8853 193.165 17.7347C193.322 17.5813 193.442 17.391 193.528 17.1637L194.499 17.4364C194.397 17.766 194.225 18.0558 193.984 18.3058C193.742 18.5529 193.444 18.7461 193.089 18.8853C192.734 19.0217 192.335 19.0899 191.891 19.0899ZM192.624 11.6239L191.738 10.4308L190.852 11.6239H189.897V11.5558L191.278 9.78304H192.198L193.579 11.5558V11.6239H192.624ZM198.978 12.408V13.2603H195.586V12.408H198.978ZM196.575 10.8399H197.58V17.0785C197.58 17.3626 197.621 17.5757 197.704 17.7177C197.789 17.8569 197.897 17.9507 198.028 17.9989C198.161 18.0444 198.302 18.0671 198.45 18.0671C198.56 18.0671 198.651 18.0614 198.722 18.0501C198.793 18.0359 198.85 18.0245 198.893 18.016L199.097 18.9194C199.029 18.945 198.934 18.9705 198.812 18.9961C198.69 19.0245 198.535 19.0387 198.347 19.0387C198.063 19.0387 197.785 18.9776 197.512 18.8555C197.242 18.7333 197.018 18.5472 196.839 18.2972C196.663 18.0472 196.575 17.7319 196.575 17.3512V10.8399ZM203.165 19.0899C202.534 19.0899 201.99 18.9507 201.533 18.6722C201.078 18.391 200.727 17.9989 200.48 17.4961C200.236 16.9904 200.114 16.4024 200.114 15.7319C200.114 15.0614 200.236 14.4705 200.48 13.9592C200.727 13.445 201.071 13.0444 201.511 12.7575C201.955 12.4677 202.472 12.3228 203.062 12.3228C203.403 12.3228 203.74 12.3796 204.072 12.4933C204.405 12.6069 204.707 12.7916 204.98 13.0472C205.253 13.3001 205.47 13.6353 205.632 14.0529C205.794 14.4705 205.875 14.9847 205.875 15.5955V16.0217H200.83V15.1524H204.852C204.852 14.783 204.778 14.4535 204.631 14.1637C204.486 13.8739 204.278 13.6453 204.009 13.4776C203.741 13.31 203.426 13.2262 203.062 13.2262C202.662 13.2262 202.315 13.3257 202.023 13.5245C201.733 13.7205 201.51 13.9762 201.354 14.2916C201.197 14.6069 201.119 14.945 201.119 15.3058V15.8853C201.119 16.3796 201.205 16.7987 201.375 17.1424C201.548 17.4833 201.788 17.7433 202.095 17.9222C202.402 18.0984 202.759 18.1864 203.165 18.1864C203.429 18.1864 203.668 18.1495 203.881 18.0757C204.097 17.9989 204.283 17.8853 204.439 17.7347C204.595 17.5813 204.716 17.391 204.801 17.1637L205.773 17.4364C205.67 17.766 205.499 18.0558 205.257 18.3058C205.016 18.5529 204.717 18.7461 204.362 18.8853C204.007 19.0217 203.608 19.0899 203.165 19.0899Z" fill="white"/>
<line x1="38.5" y1="46.4535" x2="66.5" y2="46.4535" stroke="#FFD82D" stroke-width="5"/>
<path d="M70.9261 42.7475V41.2262H78.0938V42.7475H75.4219V49.9535H73.598V42.7475H70.9261ZM80.2159 50.0771C79.7983 50.0771 79.4261 50.0046 79.0994 49.8597C78.7727 49.712 78.5142 49.4947 78.3239 49.2078C78.1364 48.918 78.0426 48.5572 78.0426 48.1254C78.0426 47.7617 78.1094 47.4563 78.2429 47.2092C78.3764 46.962 78.5582 46.7632 78.7884 46.6126C79.0185 46.462 79.2798 46.3484 79.5724 46.2717C79.8679 46.195 80.1776 46.141 80.5014 46.1097C80.8821 46.07 81.1889 46.033 81.4219 45.9989C81.6548 45.962 81.8239 45.908 81.929 45.837C82.0341 45.766 82.0866 45.6609 82.0866 45.5217V45.4961C82.0866 45.2262 82.0014 45.0174 81.831 44.8697C81.6634 44.722 81.4247 44.6481 81.1151 44.6481C80.7884 44.6481 80.5284 44.7205 80.3352 44.8654C80.142 45.0075 80.0142 45.1864 79.9517 45.4024L78.2727 45.266C78.358 44.8683 78.5256 44.5245 78.7756 44.2347C79.0256 43.9421 79.348 43.7177 79.7429 43.5614C80.1406 43.4024 80.6009 43.3228 81.1236 43.3228C81.4872 43.3228 81.8352 43.3654 82.1676 43.4506C82.5028 43.5359 82.7997 43.668 83.0582 43.847C83.3196 44.0259 83.5256 44.256 83.6761 44.5373C83.8267 44.8157 83.902 45.1495 83.902 45.5387V49.9535H82.1804V49.0458H82.1293C82.0241 49.2504 81.8835 49.4308 81.7074 49.587C81.5312 49.7404 81.3196 49.8612 81.0724 49.9492C80.8253 50.0345 80.5398 50.0771 80.2159 50.0771ZM80.7358 48.8242C81.0028 48.8242 81.2386 48.7717 81.4432 48.6666C81.6477 48.5586 81.8082 48.4137 81.9247 48.2319C82.0412 48.0501 82.0994 47.8441 82.0994 47.614V46.9194C82.0426 46.9563 81.9645 46.9904 81.8651 47.0217C81.7685 47.0501 81.6591 47.0771 81.5369 47.1026C81.4148 47.1254 81.2926 47.1467 81.1705 47.1666C81.0483 47.1836 80.9375 47.1992 80.8381 47.2134C80.625 47.2447 80.4389 47.2944 80.2798 47.3626C80.1207 47.4308 79.9972 47.5231 79.9091 47.6396C79.821 47.7532 79.777 47.8953 79.777 48.0657C79.777 48.3129 79.8665 48.5018 80.0455 48.6325C80.2273 48.7603 80.4574 48.8242 80.7358 48.8242ZM85.3445 49.9535V41.2262H87.1598V44.5075H87.2152C87.2947 44.3313 87.4098 44.1524 87.5604 43.9705C87.7138 43.7859 87.9126 43.6325 88.157 43.5103C88.4041 43.3853 88.7109 43.3228 89.0774 43.3228C89.5547 43.3228 89.995 43.4478 90.3984 43.6978C90.8018 43.945 91.1243 44.3185 91.3658 44.8185C91.6072 45.3157 91.728 45.9393 91.728 46.6893C91.728 47.4194 91.6101 48.0359 91.3743 48.5387C91.1413 49.0387 90.8232 49.418 90.4197 49.6765C90.0192 49.9322 89.5703 50.06 89.0732 50.06C88.7209 50.06 88.4212 50.0018 88.174 49.8853C87.9297 49.7688 87.7294 49.6225 87.5732 49.4464C87.4169 49.2674 87.2976 49.087 87.2152 48.9052H87.1342V49.9535H85.3445ZM87.1214 46.6808C87.1214 47.07 87.1754 47.4095 87.2834 47.6992C87.3913 47.989 87.5476 48.2149 87.7521 48.3768C87.9567 48.5359 88.2053 48.6154 88.4979 48.6154C88.7933 48.6154 89.0433 48.5345 89.2479 48.3725C89.4524 48.2078 89.6072 47.9805 89.7124 47.6907C89.8203 47.3981 89.8743 47.0614 89.8743 46.6808C89.8743 46.3029 89.8217 45.9705 89.7166 45.6836C89.6115 45.3967 89.4567 45.1722 89.2521 45.0103C89.0476 44.8484 88.7962 44.7674 88.4979 44.7674C88.2024 44.7674 87.9524 44.8455 87.7479 45.0018C87.5462 45.158 87.3913 45.3796 87.2834 45.6666C87.1754 45.9535 87.1214 46.2916 87.1214 46.6808ZM94.7546 41.2262V49.9535H92.9393V41.2262H94.7546ZM99.1918 50.0813C98.5185 50.0813 97.9389 49.945 97.4531 49.6722C96.9702 49.3967 96.598 49.0075 96.3366 48.5046C96.0753 47.9989 95.9446 47.4009 95.9446 46.7106C95.9446 46.0373 96.0753 45.4464 96.3366 44.9379C96.598 44.4293 96.9659 44.033 97.4403 43.7489C97.9176 43.4649 98.4773 43.3228 99.1193 43.3228C99.5511 43.3228 99.9531 43.3924 100.325 43.5316C100.7 43.668 101.027 43.8739 101.305 44.1495C101.587 44.4251 101.805 44.7717 101.962 45.1893C102.118 45.6041 102.196 46.0899 102.196 46.6467V47.1453H96.669V46.0203H100.487C100.487 45.7589 100.43 45.5274 100.317 45.3257C100.203 45.1239 100.045 44.9663 99.8438 44.8526C99.6449 44.7362 99.4134 44.6779 99.1491 44.6779C98.8736 44.6779 98.6293 44.7418 98.4162 44.8697C98.206 44.9947 98.0412 45.1637 97.9219 45.3768C97.8026 45.587 97.7415 45.8214 97.7386 46.0799V47.1495C97.7386 47.4734 97.7983 47.7532 97.9176 47.989C98.0398 48.2248 98.2116 48.4066 98.4332 48.5345C98.6548 48.6623 98.9176 48.7262 99.2216 48.7262C99.4233 48.7262 99.608 48.6978 99.7756 48.641C99.9432 48.5842 100.087 48.4989 100.206 48.3853C100.325 48.2717 100.416 48.1325 100.479 47.9677L102.158 48.0785C102.072 48.4819 101.898 48.8342 101.634 49.1353C101.372 49.4336 101.034 49.6666 100.619 49.8342C100.207 49.9989 99.7315 50.0813 99.1918 50.0813ZM105.247 50.0771C104.83 50.0771 104.457 50.0046 104.131 49.8597C103.804 49.712 103.545 49.4947 103.355 49.2078C103.168 48.918 103.074 48.5572 103.074 48.1254C103.074 47.7617 103.141 47.4563 103.274 47.2092C103.408 46.962 103.589 46.7632 103.82 46.6126C104.05 46.462 104.311 46.3484 104.604 46.2717C104.899 46.195 105.209 46.141 105.533 46.1097C105.913 46.07 106.22 46.033 106.453 45.9989C106.686 45.962 106.855 45.908 106.96 45.837C107.065 45.766 107.118 45.6609 107.118 45.5217V45.4961C107.118 45.2262 107.033 45.0174 106.862 44.8697C106.695 44.722 106.456 44.6481 106.146 44.6481C105.82 44.6481 105.56 44.7205 105.366 44.8654C105.173 45.0075 105.045 45.1864 104.983 45.4024L103.304 45.266C103.389 44.8683 103.557 44.5245 103.807 44.2347C104.057 43.9421 104.379 43.7177 104.774 43.5614C105.172 43.4024 105.632 43.3228 106.155 43.3228C106.518 43.3228 106.866 43.3654 107.199 43.4506C107.534 43.5359 107.831 43.668 108.089 43.847C108.351 44.0259 108.557 44.256 108.707 44.5373C108.858 44.8157 108.933 45.1495 108.933 45.5387V49.9535H107.212V49.0458H107.161C107.055 49.2504 106.915 49.4308 106.739 49.587C106.562 49.7404 106.351 49.8612 106.104 49.9492C105.857 50.0345 105.571 50.0771 105.247 50.0771ZM105.767 48.8242C106.034 48.8242 106.27 48.7717 106.474 48.6666C106.679 48.5586 106.839 48.4137 106.956 48.2319C107.072 48.0501 107.131 47.8441 107.131 47.614V46.9194C107.074 46.9563 106.996 46.9904 106.896 47.0217C106.8 47.0501 106.69 47.0771 106.568 47.1026C106.446 47.1254 106.324 47.1467 106.202 47.1666C106.08 47.1836 105.969 47.1992 105.869 47.2134C105.656 47.2447 105.47 47.2944 105.311 47.3626C105.152 47.4308 105.028 47.5231 104.94 47.6396C104.852 47.7532 104.808 47.8953 104.808 48.0657C104.808 48.3129 104.898 48.5018 105.077 48.6325C105.259 48.7603 105.489 48.8242 105.767 48.8242ZM114.539 47.1666V43.408H116.354V49.9535H114.612V48.7646H114.543C114.396 49.1481 114.15 49.4563 113.806 49.6893C113.465 49.9222 113.049 50.0387 112.558 50.0387C112.12 50.0387 111.735 49.9393 111.403 49.7404C111.07 49.5416 110.81 49.2589 110.623 48.8924C110.438 48.5259 110.344 48.087 110.342 47.5757V43.408H112.157V47.2518C112.16 47.6382 112.263 47.9435 112.468 48.168C112.673 48.3924 112.947 48.5046 113.29 48.5046C113.509 48.5046 113.714 48.4549 113.904 48.3555C114.094 48.2532 114.248 48.1026 114.364 47.9038C114.484 47.7049 114.542 47.4592 114.539 47.1666ZM119.324 43.408L120.525 45.6964L121.757 43.408H123.619L121.723 46.6808L123.67 49.9535H121.816L120.525 47.6907L119.255 49.9535H117.38L119.324 46.6808L117.449 43.408H119.324ZM131.672 47.1666V43.408H133.487V49.9535H131.744V48.7646H131.676C131.528 49.1481 131.283 49.4563 130.939 49.6893C130.598 49.9222 130.182 50.0387 129.69 50.0387C129.253 50.0387 128.868 49.9393 128.536 49.7404C128.203 49.5416 127.943 49.2589 127.756 48.8924C127.571 48.5259 127.477 48.087 127.474 47.5757V43.408H129.29V47.2518C129.293 47.6382 129.396 47.9435 129.601 48.168C129.805 48.3924 130.08 48.5046 130.423 48.5046C130.642 48.5046 130.847 48.4549 131.037 48.3555C131.227 48.2532 131.381 48.1026 131.497 47.9038C131.616 47.7049 131.675 47.4592 131.672 47.1666ZM138.421 43.408V44.7717H134.479V43.408H138.421ZM135.374 41.8399H137.189V47.9421C137.189 48.1097 137.215 48.2404 137.266 48.3342C137.317 48.4251 137.388 48.489 137.479 48.5259C137.573 48.5629 137.681 48.5813 137.803 48.5813C137.888 48.5813 137.973 48.5742 138.059 48.56C138.144 48.543 138.209 48.5302 138.255 48.5217L138.54 49.8725C138.449 49.9009 138.321 49.9336 138.157 49.9705C137.992 50.0103 137.792 50.0345 137.556 50.043C137.118 50.06 136.735 50.0018 136.405 49.8683C136.078 49.7347 135.824 49.5274 135.642 49.2461C135.461 48.9649 135.371 48.6097 135.374 48.1808V41.8399ZM139.603 49.9535V43.408H141.419V49.9535H139.603ZM140.515 42.5643C140.245 42.5643 140.014 42.4748 139.821 42.2958C139.63 42.114 139.535 41.8967 139.535 41.6438C139.535 41.3938 139.63 41.1793 139.821 41.0004C140.014 40.8185 140.245 40.7276 140.515 40.7276C140.785 40.7276 141.015 40.8185 141.206 41.0004C141.399 41.1793 141.495 41.3938 141.495 41.6438C141.495 41.8967 141.399 42.114 141.206 42.2958C141.015 42.4748 140.785 42.5643 140.515 42.5643ZM144.688 41.2262V49.9535H142.873V41.2262H144.688ZM149.125 50.0813C148.452 50.0813 147.873 49.945 147.387 49.6722C146.904 49.3967 146.532 49.0075 146.27 48.5046C146.009 47.9989 145.878 47.4009 145.878 46.7106C145.878 46.0373 146.009 45.4464 146.27 44.9379C146.532 44.4293 146.9 44.033 147.374 43.7489C147.851 43.4649 148.411 43.3228 149.053 43.3228C149.485 43.3228 149.887 43.3924 150.259 43.5316C150.634 43.668 150.961 43.8739 151.239 44.1495C151.52 44.4251 151.739 44.7717 151.895 45.1893C152.051 45.6041 152.13 46.0899 152.13 46.6467V47.1453H146.603V46.0203H150.421C150.421 45.7589 150.364 45.5274 150.25 45.3257C150.137 45.1239 149.979 44.9663 149.777 44.8526C149.578 44.7362 149.347 44.6779 149.083 44.6779C148.807 44.6779 148.563 44.7418 148.35 44.8697C148.14 44.9947 147.975 45.1637 147.855 45.3768C147.736 45.587 147.675 45.8214 147.672 46.0799V47.1495C147.672 47.4734 147.732 47.7532 147.851 47.989C147.973 48.2248 148.145 48.4066 148.367 48.5345C148.588 48.6623 148.851 48.7262 149.155 48.7262C149.357 48.7262 149.542 48.6978 149.709 48.641C149.877 48.5842 150.02 48.4989 150.14 48.3853C150.259 48.2717 150.35 48.1325 150.412 47.9677L152.091 48.0785C152.006 48.4819 151.831 48.8342 151.567 49.1353C151.306 49.4336 150.968 49.6666 150.553 49.8342C150.141 49.9989 149.665 50.0813 149.125 50.0813ZM158.76 45.2745L157.098 45.3768C157.07 45.2347 157.009 45.1069 156.915 44.9933C156.821 44.8768 156.698 44.7845 156.544 44.7163C156.394 44.6453 156.213 44.6097 156.003 44.6097C155.722 44.6097 155.485 44.6694 155.292 44.7887C155.098 44.9052 155.002 45.0614 155.002 45.2575C155.002 45.4137 155.064 45.5458 155.189 45.6538C155.314 45.7617 155.529 45.8484 155.833 45.9137L157.017 46.1524C157.654 46.283 158.128 46.4933 158.441 46.783C158.753 47.0728 158.909 47.4535 158.909 47.9251C158.909 48.3541 158.783 48.7305 158.53 49.0543C158.28 49.3782 157.936 49.631 157.499 49.8129C157.064 49.9918 156.563 50.0813 155.995 50.0813C155.128 50.0813 154.438 49.9009 153.924 49.5401C153.412 49.1765 153.113 48.6822 153.025 48.0572L154.81 47.9634C154.864 48.2276 154.995 48.4293 155.202 48.5685C155.409 48.7049 155.675 48.7731 155.999 48.7731C156.317 48.7731 156.573 48.712 156.766 48.5899C156.962 48.4649 157.061 48.3043 157.064 48.1083C157.061 47.9435 156.992 47.8086 156.855 47.7035C156.719 47.5955 156.509 47.5132 156.225 47.4563L155.091 47.2305C154.452 47.1026 153.976 46.881 153.664 46.5657C153.354 46.2504 153.199 45.8484 153.199 45.3597C153.199 44.9393 153.313 44.5771 153.54 44.2731C153.77 43.9691 154.093 43.7347 154.507 43.57C154.925 43.4052 155.414 43.3228 155.973 43.3228C156.8 43.3228 157.451 43.4975 157.925 43.847C158.402 44.1964 158.681 44.6722 158.76 45.2745ZM164.696 50.0771C164.279 50.0771 163.907 50.0046 163.58 49.8597C163.253 49.712 162.995 49.4947 162.804 49.2078C162.617 48.918 162.523 48.5572 162.523 48.1254C162.523 47.7617 162.59 47.4563 162.723 47.2092C162.857 46.962 163.039 46.7632 163.269 46.6126C163.499 46.462 163.76 46.3484 164.053 46.2717C164.348 46.195 164.658 46.141 164.982 46.1097C165.363 46.07 165.669 46.033 165.902 45.9989C166.135 45.962 166.304 45.908 166.409 45.837C166.515 45.766 166.567 45.6609 166.567 45.5217V45.4961C166.567 45.2262 166.482 45.0174 166.311 44.8697C166.144 44.722 165.905 44.6481 165.596 44.6481C165.269 44.6481 165.009 44.7205 164.816 44.8654C164.623 45.0075 164.495 45.1864 164.432 45.4024L162.753 45.266C162.838 44.8683 163.006 44.5245 163.256 44.2347C163.506 43.9421 163.828 43.7177 164.223 43.5614C164.621 43.4024 165.081 43.3228 165.604 43.3228C165.968 43.3228 166.316 43.3654 166.648 43.4506C166.983 43.5359 167.28 43.668 167.539 43.847C167.8 44.0259 168.006 44.256 168.157 44.5373C168.307 44.8157 168.382 45.1495 168.382 45.5387V49.9535H166.661V49.0458H166.61C166.505 49.2504 166.364 49.4308 166.188 49.587C166.012 49.7404 165.8 49.8612 165.553 49.9492C165.306 50.0345 165.02 50.0771 164.696 50.0771ZM165.216 48.8242C165.483 48.8242 165.719 48.7717 165.924 48.6666C166.128 48.5586 166.289 48.4137 166.405 48.2319C166.522 48.0501 166.58 47.8441 166.58 47.614V46.9194C166.523 46.9563 166.445 46.9904 166.346 47.0217C166.249 47.0501 166.14 47.0771 166.017 47.1026C165.895 47.1254 165.773 47.1467 165.651 47.1666C165.529 47.1836 165.418 47.1992 165.319 47.2134C165.105 47.2447 164.919 47.2944 164.76 47.3626C164.601 47.4308 164.478 47.5231 164.39 47.6396C164.301 47.7532 164.257 47.8953 164.257 48.0657C164.257 48.3129 164.347 48.5018 164.526 48.6325C164.708 48.7603 164.938 48.8242 165.216 48.8242ZM165.042 42.5643L163.742 40.6254H165.417L166.324 42.5643H165.042ZM174.384 41.2262V49.9535H172.568V41.2262H174.384ZM177.359 41.2262V42.1467C177.359 42.408 177.308 42.6751 177.206 42.9478C177.106 43.2177 176.973 43.4734 176.805 43.7149C176.637 43.9535 176.454 44.1566 176.255 44.3242L175.454 43.8512C175.596 43.6268 175.721 43.3782 175.829 43.1055C175.94 42.8328 175.995 42.516 175.995 42.1552V41.2262H177.359ZM180.801 50.0813C180.128 50.0813 179.548 49.945 179.062 49.6722C178.58 49.3967 178.207 49.0075 177.946 48.5046C177.685 47.9989 177.554 47.4009 177.554 46.7106C177.554 46.0373 177.685 45.4464 177.946 44.9379C178.207 44.4293 178.575 44.033 179.05 43.7489C179.527 43.4649 180.087 43.3228 180.729 43.3228C181.161 43.3228 181.563 43.3924 181.935 43.5316C182.31 43.668 182.636 43.8739 182.915 44.1495C183.196 44.4251 183.415 44.7717 183.571 45.1893C183.727 45.6041 183.805 46.0899 183.805 46.6467V47.1453H178.278V46.0203H182.097C182.097 45.7589 182.04 45.5274 181.926 45.3257C181.813 45.1239 181.655 44.9663 181.453 44.8526C181.254 44.7362 181.023 44.6779 180.759 44.6779C180.483 44.6779 180.239 44.7418 180.026 44.8697C179.815 44.9947 179.651 45.1637 179.531 45.3768C179.412 45.587 179.351 45.8214 179.348 46.0799V47.1495C179.348 47.4734 179.408 47.7532 179.527 47.989C179.649 48.2248 179.821 48.4066 180.043 48.5345C180.264 48.6623 180.527 48.7262 180.831 48.7262C181.033 48.7262 181.217 48.6978 181.385 48.641C181.553 48.5842 181.696 48.4989 181.815 48.3853C181.935 48.2717 182.026 48.1325 182.088 47.9677L183.767 48.0785C183.682 48.4819 183.507 48.8342 183.243 49.1353C182.982 49.4336 182.643 49.6666 182.229 49.8342C181.817 49.9989 181.341 50.0813 180.801 50.0813ZM186.805 46.1694V49.9535H184.99V43.408H186.72V44.5629H186.797C186.942 44.1822 187.185 43.881 187.526 43.6595C187.866 43.435 188.28 43.3228 188.766 43.3228C189.22 43.3228 189.616 43.4222 189.955 43.6211C190.293 43.82 190.555 44.1041 190.743 44.4734C190.93 44.8399 191.024 45.2774 191.024 45.7859V49.9535H189.209V46.1097C189.212 45.7092 189.109 45.3967 188.902 45.1722C188.695 44.945 188.409 44.8313 188.045 44.8313C187.801 44.8313 187.585 44.8839 187.398 44.989C187.213 45.0941 187.068 45.2475 186.963 45.4492C186.861 45.6481 186.808 45.8882 186.805 46.1694ZM196.78 52.408V48.9052H196.725C196.64 49.087 196.519 49.2674 196.363 49.4464C196.209 49.6225 196.009 49.7688 195.762 49.8853C195.517 50.0018 195.219 50.06 194.867 50.06C194.37 50.06 193.919 49.9322 193.516 49.6765C193.115 49.418 192.797 49.0387 192.561 48.5387C192.328 48.0359 192.212 47.4194 192.212 46.6893C192.212 45.9393 192.333 45.3157 192.574 44.8185C192.816 44.3185 193.137 43.945 193.537 43.6978C193.941 43.4478 194.382 43.3228 194.863 43.3228C195.229 43.3228 195.534 43.3853 195.779 43.5103C196.026 43.6325 196.225 43.7859 196.375 43.9705C196.529 44.1524 196.645 44.3313 196.725 44.5075H196.801V43.408H198.591V52.408H196.78ZM195.442 48.6154C195.735 48.6154 195.982 48.5359 196.184 48.3768C196.388 48.2149 196.544 47.989 196.652 47.6992C196.763 47.4095 196.819 47.07 196.819 46.6808C196.819 46.2916 196.765 45.9535 196.657 45.6666C196.549 45.3796 196.392 45.158 196.188 45.0018C195.983 44.8455 195.735 44.7674 195.442 44.7674C195.144 44.7674 194.892 44.8484 194.688 45.0103C194.483 45.1722 194.328 45.3967 194.223 45.6836C194.118 45.9705 194.066 46.3029 194.066 46.6808C194.066 47.0614 194.118 47.3981 194.223 47.6907C194.331 47.9805 194.486 48.2078 194.688 48.3725C194.892 48.5345 195.144 48.6154 195.442 48.6154ZM204.246 47.1666V43.408H206.061V49.9535H204.319V48.7646H204.25C204.103 49.1481 203.857 49.4563 203.513 49.6893C203.172 49.9222 202.756 50.0387 202.265 50.0387C201.827 50.0387 201.442 49.9393 201.11 49.7404C200.777 49.5416 200.517 49.2589 200.33 48.8924C200.145 48.5259 200.051 48.087 200.049 47.5757V43.408H201.864V47.2518C201.867 47.6382 201.971 47.9435 202.175 48.168C202.38 48.3924 202.654 48.5046 202.998 48.5046C203.216 48.5046 203.421 48.4549 203.611 48.3555C203.801 48.2532 203.955 48.1026 204.071 47.9038C204.191 47.7049 204.249 47.4592 204.246 47.1666ZM210.496 50.0813C209.823 50.0813 209.244 49.945 208.758 49.6722C208.275 49.3967 207.903 49.0075 207.641 48.5046C207.38 47.9989 207.249 47.4009 207.249 46.7106C207.249 46.0373 207.38 45.4464 207.641 44.9379C207.903 44.4293 208.271 44.033 208.745 43.7489C209.222 43.4649 209.782 43.3228 210.424 43.3228C210.856 43.3228 211.258 43.3924 211.63 43.5316C212.005 43.668 212.332 43.8739 212.61 44.1495C212.891 44.4251 213.11 44.7717 213.266 45.1893C213.423 45.6041 213.501 46.0899 213.501 46.6467V47.1453H207.974V46.0203H211.792C211.792 45.7589 211.735 45.5274 211.621 45.3257C211.508 45.1239 211.35 44.9663 211.148 44.8526C210.95 44.7362 210.718 44.6779 210.454 44.6779C210.178 44.6779 209.934 44.7418 209.721 44.8697C209.511 44.9947 209.346 45.1637 209.227 45.3768C209.107 45.587 209.046 45.8214 209.043 46.0799V47.1495C209.043 47.4734 209.103 47.7532 209.222 47.989C209.344 48.2248 209.516 48.4066 209.738 48.5345C209.96 48.6623 210.222 48.7262 210.526 48.7262C210.728 48.7262 210.913 48.6978 211.08 48.641C211.248 48.5842 211.391 48.4989 211.511 48.3853C211.63 48.2717 211.721 48.1325 211.783 47.9677L213.462 48.0785C213.377 48.4819 213.202 48.8342 212.938 49.1353C212.677 49.4336 212.339 49.6666 211.924 49.8342C211.512 49.9989 211.036 50.0813 210.496 50.0813ZM211.238 42.6239L210.381 41.5842L209.525 42.6239H207.978V42.5643L209.704 40.6893H211.055L212.785 42.5643V42.6239H211.238ZM218.167 43.408V44.7717H214.225V43.408H218.167ZM215.12 41.8399H216.935V47.9421C216.935 48.1097 216.961 48.2404 217.012 48.3342C217.063 48.4251 217.134 48.489 217.225 48.5259C217.319 48.5629 217.427 48.5813 217.549 48.5813C217.634 48.5813 217.719 48.5742 217.805 48.56C217.89 48.543 217.955 48.5302 218.001 48.5217L218.286 49.8725C218.195 49.9009 218.067 49.9336 217.903 49.9705C217.738 50.0103 217.538 50.0345 217.302 50.043C216.864 50.06 216.481 50.0018 216.151 49.8683C215.825 49.7347 215.57 49.5274 215.388 49.2461C215.207 48.9649 215.117 48.6097 215.12 48.1808V41.8399ZM222.262 50.0813C221.589 50.0813 221.009 49.945 220.523 49.6722C220.04 49.3967 219.668 49.0075 219.407 48.5046C219.146 47.9989 219.015 47.4009 219.015 46.7106C219.015 46.0373 219.146 45.4464 219.407 44.9379C219.668 44.4293 220.036 44.033 220.511 43.7489C220.988 43.4649 221.548 43.3228 222.19 43.3228C222.621 43.3228 223.023 43.3924 223.396 43.5316C223.771 43.668 224.097 43.8739 224.376 44.1495C224.657 44.4251 224.876 44.7717 225.032 45.1893C225.188 45.6041 225.266 46.0899 225.266 46.6467V47.1453H219.739V46.0203H223.558C223.558 45.7589 223.501 45.5274 223.387 45.3257C223.273 45.1239 223.116 44.9663 222.914 44.8526C222.715 44.7362 222.484 44.6779 222.219 44.6779C221.944 44.6779 221.7 44.7418 221.487 44.8697C221.276 44.9947 221.112 45.1637 220.992 45.3768C220.873 45.587 220.812 45.8214 220.809 46.0799V47.1495C220.809 47.4734 220.869 47.7532 220.988 47.989C221.11 48.2248 221.282 48.4066 221.504 48.5345C221.725 48.6623 221.988 48.7262 222.292 48.7262C222.494 48.7262 222.678 48.6978 222.846 48.641C223.013 48.5842 223.157 48.4989 223.276 48.3853C223.396 48.2717 223.487 48.1325 223.549 47.9677L225.228 48.0785C225.143 48.4819 224.968 48.8342 224.704 49.1353C224.442 49.4336 224.104 49.6666 223.69 49.8342C223.278 49.9989 222.802 50.0813 222.262 50.0813Z" fill="white"/>
<line x1="63.7337" y1="62.4619" x2="63.7337" y2="237.422" stroke="white" stroke-width="2.26242"/>
<line x1="62.6025" y1="61.7077" x2="207.397" y2="61.7077" stroke="white" stroke-width="1.50828"/>
<line x1="62.6025" y1="236.291" x2="115.392" y2="236.291" stroke="white" stroke-width="2.26242"/>
<line x1="154.607" y1="236.291" x2="207.397" y2="236.291" stroke="white" stroke-width="2.26242"/>
<line x1="108.605" y1="201.6" x2="161.395" y2="201.6" stroke="white" stroke-width="2.26242"/>
<line x1="62.6025" y1="164.648" x2="92.7681" y2="164.648" stroke="white" stroke-width="2.26242"/>
<line x1="177.231" y1="164.648" x2="207.397" y2="164.648" stroke="white" stroke-width="2.26242"/>
<line x1="176.1" y1="165.779" x2="176.1" y2="150.696" stroke="white" stroke-width="2.26242"/>
<line x1="91.6373" y1="165.779" x2="91.6373" y2="150.696" stroke="white" stroke-width="2.26242"/>
<line x1="208.529" y1="60.9535" x2="208.529" y2="237.422" stroke="white" stroke-width="2.26242"/>
<line x1="168.559" y1="62.4619" x2="168.559" y2="112.989" stroke="white" stroke-width="2.26242"/>
<line x1="116.901" y1="111.858" x2="167.428" y2="111.858" stroke="white" stroke-width="2.26242"/>
<line x1="115.77" y1="112.989" x2="115.77" y2="104.694" stroke="white" stroke-width="2.26242"/>
<line x1="78.4395" y1="233.274" x2="99.5554" y2="233.274" stroke="#FFD82D" stroke-width="3.7707"/>
<line x1="173.838" y1="150.696" x2="173.838" y2="165.779" stroke="#FFD82D" stroke-width="3.7707"/>
<line x1="66.7506" y1="128.072" x2="66.7506" y2="143.155" stroke="#FFD82D" stroke-width="3.7707"/>
<line x1="66.7506" y1="181.616" x2="66.7506" y2="193.682" stroke="#FFD82D" stroke-width="3.7707"/>
<line x1="200.61" y1="64.3472" x2="174.97" y2="64.3472" stroke="#FFD82D" stroke-width="3.7707"/>
<path d="M135.533 238.397C135.239 238.103 134.761 238.103 134.467 238.397L129.667 243.197C129.373 243.491 129.373 243.969 129.667 244.263C129.962 244.558 130.439 244.558 130.734 244.263L135 239.997L139.266 244.263C139.561 244.558 140.038 244.558 140.333 244.263C140.627 243.969 140.627 243.491 140.333 243.197L135.533 238.397ZM135.754 259.292L135.754 238.931L134.246 238.931L134.246 259.292L135.754 259.292Z" fill="white"/>
<path d="M142.547 218.592L142.21 218.424L142.547 218.592L142.616 218.454C142.804 218.078 142.822 217.64 142.667 217.25L142.484 216.79C142.398 216.575 142.263 216.382 142.089 216.229L141.984 216.137C141.696 215.883 141.32 215.752 140.937 215.77L140.732 215.781C140.589 215.787 140.449 215.815 140.314 215.862L139.89 216.012C139.607 216.111 139.361 216.294 139.186 216.537L138.599 217.346C138.562 217.398 138.529 217.453 138.502 217.51C138.414 217.697 138.156 217.717 138.041 217.545L137.536 216.794C137.334 216.493 137.388 216.088 137.662 215.85L138.625 215.012C138.715 214.934 138.837 214.905 138.952 214.934L139.045 214.569L138.952 214.934C139.358 215.038 139.788 214.905 140.066 214.59L140.102 214.549C140.446 214.158 140.474 213.581 140.169 213.159C139.991 212.914 139.722 212.751 139.422 212.709L138.756 212.614C138.36 212.558 137.958 212.666 137.643 212.911L135.05 214.933C134.978 214.989 134.911 215.052 134.85 215.121L134.795 215.184C134.482 215.54 134.359 216.024 134.464 216.486L134.484 216.575C134.529 216.772 134.614 216.958 134.734 217.121L134.868 217.304C135.128 217.656 135.015 218.157 134.629 218.364L133.417 219.016C133.228 219.118 133.004 219.13 132.806 219.05L130.271 218.023C129.939 217.889 129.569 217.88 129.231 217.998L128.89 218.118C128.772 218.159 128.66 218.215 128.556 218.285L126.21 219.856C126.085 219.94 125.936 219.983 125.785 219.978L124.799 219.944C124.541 219.935 124.292 220.042 124.122 220.236C123.807 220.593 123.842 221.138 124.199 221.453L125.094 222.241C125.59 222.678 126.316 222.732 126.87 222.372L129.002 220.991C129.233 220.842 129.529 220.837 129.764 220.978L131.262 221.879C131.6 222.082 131.712 222.518 131.514 222.858L128.996 227.186C128.961 227.247 128.916 227.303 128.864 227.351L128.829 227.383C127.939 228.207 128.399 229.695 129.598 229.872C130.34 229.982 131.043 229.506 131.216 228.776L131.533 227.438C131.555 227.344 131.596 227.254 131.654 227.176L134.593 223.206C134.675 223.095 134.788 223.01 134.918 222.961L137.333 222.052C137.557 221.967 137.81 222.036 137.961 222.221C138.107 222.4 138.127 222.65 138.013 222.85L137.323 224.054C137.299 224.096 137.254 224.122 137.206 224.122C136.858 224.124 136.543 224.329 136.401 224.646L136.069 225.381C135.892 225.774 135.992 226.237 136.315 226.522C136.743 226.899 137.401 226.834 137.746 226.38L140.329 222.986C140.556 222.688 140.661 222.316 140.623 221.944L140.57 221.418C140.544 221.168 140.456 220.929 140.312 220.724L140.101 220.42C139.93 220.176 140.002 219.839 140.257 219.685C140.305 219.657 140.357 219.636 140.411 219.624L141.547 219.373C141.981 219.276 142.348 218.99 142.547 218.592Z" stroke="white" stroke-width="0.75414"/>
</svg>
