<svg width="269" height="268" viewBox="0 0 269 268" fill="none" xmlns="http://www.w3.org/2000/svg">
<rect width="269" height="268" fill="black" fill-opacity="0.8"/>
<path d="M64.0724 18V9.27273H67.0213C67.706 9.27273 68.2656 9.39631 68.7003 9.64347C69.1378 9.88778 69.4616 10.2188 69.6719 10.6364C69.8821 11.054 69.9872 11.5199 69.9872 12.0341C69.9872 12.5483 69.8821 13.0156 69.6719 13.4361C69.4645 13.8565 69.1435 14.1918 68.7088 14.4418C68.2741 14.6889 67.7173 14.8125 67.0384 14.8125H64.9247V13.875H67.0043C67.473 13.875 67.8494 13.794 68.1335 13.6321C68.4176 13.4702 68.6236 13.2514 68.7514 12.9759C68.8821 12.6974 68.9474 12.3835 68.9474 12.0341C68.9474 11.6847 68.8821 11.3722 68.7514 11.0966C68.6236 10.821 68.4162 10.6051 68.1293 10.4489C67.8423 10.2898 67.4616 10.2102 66.9872 10.2102H65.1293V18H64.0724ZM72.5589 9.27273V18H71.5533V9.27273H72.5589ZM76.3271 18.1534C75.9123 18.1534 75.5359 18.0753 75.1978 17.919C74.8597 17.7599 74.5913 17.5312 74.3924 17.233C74.1935 16.9318 74.0941 16.5682 74.0941 16.142C74.0941 15.767 74.168 15.4631 74.3157 15.2301C74.4634 14.9943 74.6609 14.8097 74.908 14.6761C75.1552 14.5426 75.4279 14.4432 75.7262 14.3778C76.0273 14.3097 76.3299 14.2557 76.6339 14.2159C77.0316 14.1648 77.354 14.1264 77.6012 14.1009C77.8512 14.0724 78.033 14.0256 78.1467 13.9602C78.2631 13.8949 78.3214 13.7812 78.3214 13.6193V13.5852C78.3214 13.1648 78.2063 12.8381 77.9762 12.6051C77.7489 12.3722 77.4038 12.2557 76.9407 12.2557C76.4606 12.2557 76.0842 12.3608 75.8114 12.571C75.5387 12.7812 75.3469 13.0057 75.2362 13.2443L74.2816 12.9034C74.4521 12.5057 74.6793 12.196 74.9634 11.9744C75.2504 11.75 75.5629 11.5937 75.9009 11.5057C76.2418 11.4148 76.5771 11.3693 76.9066 11.3693C77.1168 11.3693 77.3583 11.3949 77.631 11.446C77.9066 11.4943 78.1722 11.5952 78.4279 11.7486C78.6864 11.902 78.9009 12.1335 79.0714 12.4432C79.2418 12.7528 79.3271 13.1676 79.3271 13.6875V18H78.3214V17.1136H78.2702C78.2021 17.2557 78.0884 17.4077 77.9293 17.5696C77.7702 17.7315 77.5586 17.8693 77.2944 17.983C77.0302 18.0966 76.7077 18.1534 76.3271 18.1534ZM76.4805 17.25C76.8782 17.25 77.2134 17.1719 77.4862 17.0156C77.7617 16.8594 77.9691 16.6577 78.1083 16.4105C78.2504 16.1634 78.3214 15.9034 78.3214 15.6307V14.7102C78.2788 14.7614 78.185 14.8082 78.0401 14.8509C77.8981 14.8906 77.7333 14.9261 77.5458 14.9574C77.3612 14.9858 77.1808 15.0114 77.0046 15.0341C76.8313 15.054 76.6907 15.071 76.5827 15.0852C76.3214 15.1193 76.0771 15.1747 75.8498 15.2514C75.6254 15.3253 75.4435 15.4375 75.3043 15.5881C75.168 15.7358 75.0998 15.9375 75.0998 16.1932C75.0998 16.5426 75.229 16.8068 75.4876 16.9858C75.7489 17.1619 76.0799 17.25 76.4805 17.25ZM82.1683 14.0625V18H81.1626V11.4545H82.1342V12.4773H82.2195C82.3729 12.1449 82.6058 11.8778 82.9183 11.6761C83.2308 11.4716 83.6342 11.3693 84.1286 11.3693C84.5717 11.3693 84.9595 11.4602 85.2919 11.642C85.6243 11.821 85.8828 12.0938 86.0675 12.4602C86.2521 12.8239 86.3445 13.2841 86.3445 13.8409V18H85.3388V13.9091C85.3388 13.3949 85.2053 12.9943 84.9382 12.7074C84.6712 12.4176 84.3047 12.2727 83.8388 12.2727C83.5178 12.2727 83.2308 12.3423 82.978 12.4815C82.728 12.6207 82.5305 12.8239 82.3857 13.0909C82.2408 13.358 82.1683 13.6818 82.1683 14.0625ZM94.0288 18.1364C93.4833 18.1364 93.0018 17.9986 92.5842 17.723C92.1665 17.4446 91.8398 17.0526 91.604 16.5469C91.3683 16.0384 91.2504 15.4375 91.2504 14.7443C91.2504 14.0568 91.3683 13.4602 91.604 12.9545C91.8398 12.4489 92.168 12.0582 92.5884 11.7827C93.0089 11.5071 93.4947 11.3693 94.0458 11.3693C94.4719 11.3693 94.8086 11.4403 95.0558 11.5824C95.3058 11.7216 95.4961 11.8807 95.6268 12.0597C95.7603 12.2358 95.864 12.3807 95.9379 12.4943H96.0231V9.27273H97.0288V18H96.0572V16.9943H95.9379C95.864 17.1136 95.7589 17.2642 95.6225 17.446C95.4862 17.625 95.2915 17.7855 95.0387 17.9276C94.7859 18.0668 94.4492 18.1364 94.0288 18.1364ZM94.1651 17.233C94.5685 17.233 94.9094 17.1278 95.1879 16.9176C95.4663 16.7045 95.6779 16.4105 95.8228 16.0355C95.9677 15.6577 96.0401 15.2216 96.0401 14.7273C96.0401 14.2386 95.9691 13.8111 95.8271 13.4446C95.685 13.0753 95.4748 12.7884 95.1964 12.5838C94.918 12.3764 94.5742 12.2727 94.1651 12.2727C93.739 12.2727 93.3839 12.3821 93.0998 12.6009C92.8185 12.8168 92.6069 13.1108 92.4648 13.483C92.3256 13.8523 92.256 14.267 92.256 14.7273C92.256 15.1932 92.3271 15.6165 92.4691 15.9972C92.614 16.375 92.8271 16.6761 93.1083 16.9006C93.3924 17.1222 93.7447 17.233 94.1651 17.233ZM101.755 18.1364C101.124 18.1364 100.58 17.9972 100.123 17.7188C99.668 17.4375 99.3171 17.0455 99.07 16.5426C98.8256 16.0369 98.7035 15.4489 98.7035 14.7784C98.7035 14.108 98.8256 13.517 99.07 13.0057C99.3171 12.4915 99.6609 12.0909 100.101 11.804C100.544 11.5142 101.061 11.3693 101.652 11.3693C101.993 11.3693 102.33 11.4261 102.662 11.5398C102.995 11.6534 103.297 11.8381 103.57 12.0938C103.843 12.3466 104.06 12.6818 104.222 13.0994C104.384 13.517 104.465 14.0312 104.465 14.642V15.0682H99.4194V14.1989H103.442C103.442 13.8295 103.368 13.5 103.221 13.2102C103.076 12.9205 102.868 12.6918 102.598 12.5241C102.331 12.3565 102.016 12.2727 101.652 12.2727C101.252 12.2727 100.905 12.3722 100.613 12.571C100.323 12.767 100.1 13.0227 99.9435 13.3381C99.7873 13.6534 99.7092 13.9915 99.7092 14.3523V14.9318C99.7092 15.4261 99.7944 15.8452 99.9648 16.1889C100.138 16.5298 100.378 16.7898 100.685 16.9688C100.992 17.1449 101.348 17.233 101.755 17.233C102.019 17.233 102.257 17.196 102.471 17.1222C102.686 17.0455 102.873 16.9318 103.029 16.7812C103.185 16.6278 103.306 16.4375 103.391 16.2102L104.363 16.483C104.26 16.8125 104.088 17.1023 103.847 17.3523C103.605 17.5994 103.307 17.7926 102.952 17.9318C102.597 18.0682 102.198 18.1364 101.755 18.1364ZM110.375 9.27273V18H109.37V9.27273H110.375ZM114.143 18.1534C113.729 18.1534 113.352 18.0753 113.014 17.919C112.676 17.7599 112.408 17.5312 112.209 17.233C112.01 16.9318 111.911 16.5682 111.911 16.142C111.911 15.767 111.984 15.4631 112.132 15.2301C112.28 14.9943 112.477 14.8097 112.724 14.6761C112.972 14.5426 113.244 14.4432 113.543 14.3778C113.844 14.3097 114.146 14.2557 114.45 14.2159C114.848 14.1648 115.17 14.1264 115.418 14.1009C115.668 14.0724 115.849 14.0256 115.963 13.9602C116.08 13.8949 116.138 13.7812 116.138 13.6193V13.5852C116.138 13.1648 116.023 12.8381 115.793 12.6051C115.565 12.3722 115.22 12.2557 114.757 12.2557C114.277 12.2557 113.901 12.3608 113.628 12.571C113.355 12.7812 113.163 13.0057 113.053 13.2443L112.098 12.9034C112.268 12.5057 112.496 12.196 112.78 11.9744C113.067 11.75 113.379 11.5937 113.717 11.5057C114.058 11.4148 114.393 11.3693 114.723 11.3693C114.933 11.3693 115.175 11.3949 115.447 11.446C115.723 11.4943 115.989 11.5952 116.244 11.7486C116.503 11.902 116.717 12.1335 116.888 12.4432C117.058 12.7528 117.143 13.1676 117.143 13.6875V18H116.138V17.1136H116.087C116.018 17.2557 115.905 17.4077 115.746 17.5696C115.587 17.7315 115.375 17.8693 115.111 17.983C114.847 18.0966 114.524 18.1534 114.143 18.1534ZM114.297 17.25C114.695 17.25 115.03 17.1719 115.303 17.0156C115.578 16.8594 115.786 16.6577 115.925 16.4105C116.067 16.1634 116.138 15.9034 116.138 15.6307V14.7102C116.095 14.7614 116.001 14.8082 115.857 14.8509C115.714 14.8906 115.55 14.9261 115.362 14.9574C115.178 14.9858 114.997 15.0114 114.821 15.0341C114.648 15.054 114.507 15.071 114.399 15.0852C114.138 15.1193 113.893 15.1747 113.666 15.2514C113.442 15.3253 113.26 15.4375 113.121 15.5881C112.984 15.7358 112.916 15.9375 112.916 16.1932C112.916 16.5426 113.045 16.8068 113.304 16.9858C113.565 17.1619 113.896 17.25 114.297 17.25ZM126.99 12.9205L126.087 13.1761C126.03 13.0256 125.946 12.8793 125.836 12.7372C125.728 12.5923 125.58 12.473 125.392 12.3793C125.205 12.2855 124.965 12.2386 124.672 12.2386C124.272 12.2386 123.938 12.331 123.671 12.5156C123.407 12.6974 123.275 12.929 123.275 13.2102C123.275 13.4602 123.365 13.6577 123.547 13.8026C123.729 13.9474 124.013 14.0682 124.4 14.1648L125.371 14.4034C125.956 14.5455 126.392 14.7628 126.679 15.0554C126.966 15.3452 127.11 15.7187 127.11 16.1761C127.11 16.5511 127.002 16.8864 126.786 17.1818C126.573 17.4773 126.275 17.7102 125.891 17.8807C125.507 18.0511 125.061 18.1364 124.553 18.1364C123.885 18.1364 123.333 17.9915 122.895 17.7017C122.458 17.4119 122.181 16.9886 122.064 16.4318L123.019 16.1932C123.11 16.5455 123.282 16.8097 123.534 16.9858C123.79 17.1619 124.124 17.25 124.536 17.25C125.005 17.25 125.377 17.1506 125.652 16.9517C125.931 16.75 126.07 16.5085 126.07 16.2273C126.07 16 125.99 15.8097 125.831 15.6562C125.672 15.5 125.428 15.3835 125.098 15.3068L124.007 15.0511C123.408 14.9091 122.968 14.6889 122.686 14.3906C122.408 14.0895 122.269 13.7131 122.269 13.2614C122.269 12.892 122.373 12.5653 122.58 12.2812C122.79 11.9972 123.076 11.7741 123.436 11.6122C123.8 11.4503 124.212 11.3693 124.672 11.3693C125.32 11.3693 125.828 11.5114 126.198 11.7955C126.57 12.0795 126.834 12.4545 126.99 12.9205ZM130.55 18.1534C130.135 18.1534 129.759 18.0753 129.42 17.919C129.082 17.7599 128.814 17.5312 128.615 17.233C128.416 16.9318 128.317 16.5682 128.317 16.142C128.317 15.767 128.391 15.4631 128.538 15.2301C128.686 14.9943 128.884 14.8097 129.131 14.6761C129.378 14.5426 129.651 14.4432 129.949 14.3778C130.25 14.3097 130.553 14.2557 130.857 14.2159C131.254 14.1648 131.577 14.1264 131.824 14.1009C132.074 14.0724 132.256 14.0256 132.369 13.9602C132.486 13.8949 132.544 13.7812 132.544 13.6193V13.5852C132.544 13.1648 132.429 12.8381 132.199 12.6051C131.972 12.3722 131.626 12.2557 131.163 12.2557C130.683 12.2557 130.307 12.3608 130.034 12.571C129.761 12.7812 129.57 13.0057 129.459 13.2443L128.504 12.9034C128.675 12.5057 128.902 12.196 129.186 11.9744C129.473 11.75 129.786 11.5937 130.124 11.5057C130.464 11.4148 130.8 11.3693 131.129 11.3693C131.339 11.3693 131.581 11.3949 131.854 11.446C132.129 11.4943 132.395 11.5952 132.651 11.7486C132.909 11.902 133.124 12.1335 133.294 12.4432C133.464 12.7528 133.55 13.1676 133.55 13.6875V18H132.544V17.1136H132.493C132.425 17.2557 132.311 17.4077 132.152 17.5696C131.993 17.7315 131.781 17.8693 131.517 17.983C131.253 18.0966 130.93 18.1534 130.55 18.1534ZM130.703 17.25C131.101 17.25 131.436 17.1719 131.709 17.0156C131.984 16.8594 132.192 16.6577 132.331 16.4105C132.473 16.1634 132.544 15.9034 132.544 15.6307V14.7102C132.501 14.7614 132.408 14.8082 132.263 14.8509C132.121 14.8906 131.956 14.9261 131.768 14.9574C131.584 14.9858 131.403 15.0114 131.227 15.0341C131.054 15.054 130.913 15.071 130.805 15.0852C130.544 15.1193 130.3 15.1747 130.072 15.2514C129.848 15.3253 129.666 15.4375 129.527 15.5881C129.391 15.7358 129.322 15.9375 129.322 16.1932C129.322 16.5426 129.452 16.8068 129.71 16.9858C129.972 17.1619 130.303 17.25 130.703 17.25ZM136.391 9.27273V18H135.385V9.27273H136.391ZM139.239 9.27273V18H138.233V9.27273H139.239ZM143.825 18.1364C143.194 18.1364 142.65 17.9972 142.193 17.7188C141.738 17.4375 141.387 17.0455 141.14 16.5426C140.896 16.0369 140.774 15.4489 140.774 14.7784C140.774 14.108 140.896 13.517 141.14 13.0057C141.387 12.4915 141.731 12.0909 142.172 11.804C142.615 11.5142 143.132 11.3693 143.723 11.3693C144.064 11.3693 144.4 11.4261 144.733 11.5398C145.065 11.6534 145.368 11.8381 145.64 12.0938C145.913 12.3466 146.13 12.6818 146.292 13.0994C146.454 13.517 146.535 14.0312 146.535 14.642V15.0682H141.49V14.1989H145.512C145.512 13.8295 145.439 13.5 145.291 13.2102C145.146 12.9205 144.939 12.6918 144.669 12.5241C144.402 12.3565 144.086 12.2727 143.723 12.2727C143.322 12.2727 142.975 12.3722 142.683 12.571C142.393 12.767 142.17 13.0227 142.014 13.3381C141.858 13.6534 141.779 13.9915 141.779 14.3523V14.9318C141.779 15.4261 141.865 15.8452 142.035 16.1889C142.208 16.5298 142.449 16.7898 142.755 16.9688C143.062 17.1449 143.419 17.233 143.825 17.233C144.089 17.233 144.328 17.196 144.541 17.1222C144.757 17.0455 144.943 16.9318 145.099 16.7812C145.255 16.6278 145.376 16.4375 145.461 16.2102L146.433 16.483C146.331 16.8125 146.159 17.1023 145.917 17.3523C145.676 17.5994 145.377 17.7926 145.022 17.9318C144.667 18.0682 144.268 18.1364 143.825 18.1364ZM153.912 18.1364C153.366 18.1364 152.885 17.9986 152.467 17.723C152.049 17.4446 151.723 17.0526 151.487 16.5469C151.251 16.0384 151.133 15.4375 151.133 14.7443C151.133 14.0568 151.251 13.4602 151.487 12.9545C151.723 12.4489 152.051 12.0582 152.471 11.7827C152.892 11.5071 153.377 11.3693 153.929 11.3693C154.355 11.3693 154.691 11.4403 154.939 11.5824C155.189 11.7216 155.379 11.8807 155.51 12.0597C155.643 12.2358 155.747 12.3807 155.821 12.4943H155.906V9.27273H156.912V18H155.94V16.9943H155.821C155.747 17.1136 155.642 17.2642 155.505 17.446C155.369 17.625 155.174 17.7855 154.922 17.9276C154.669 18.0668 154.332 18.1364 153.912 18.1364ZM154.048 17.233C154.451 17.233 154.792 17.1278 155.071 16.9176C155.349 16.7045 155.561 16.4105 155.706 16.0355C155.85 15.6577 155.923 15.2216 155.923 14.7273C155.923 14.2386 155.852 13.8111 155.71 13.4446C155.568 13.0753 155.358 12.7884 155.079 12.5838C154.801 12.3764 154.457 12.2727 154.048 12.2727C153.622 12.2727 153.267 12.3821 152.983 12.6009C152.701 12.8168 152.49 13.1108 152.348 13.483C152.208 13.8523 152.139 14.267 152.139 14.7273C152.139 15.1932 152.21 15.6165 152.352 15.9972C152.497 16.375 152.71 16.6761 152.991 16.9006C153.275 17.1222 153.627 17.233 154.048 17.233ZM159.779 9.27273V10.0398C159.779 10.2727 159.737 10.5213 159.652 10.7855C159.569 11.0469 159.447 11.3011 159.285 11.5483C159.126 11.7926 158.933 12.0057 158.706 12.1875L158.16 11.7443C158.339 11.4886 158.494 11.223 158.625 10.9474C158.758 10.669 158.825 10.3722 158.825 10.0568V9.27273H159.779ZM163.102 18.1364C162.472 18.1364 161.928 17.9972 161.47 17.7188C161.016 17.4375 160.665 17.0455 160.418 16.5426C160.173 16.0369 160.051 15.4489 160.051 14.7784C160.051 14.108 160.173 13.517 160.418 13.0057C160.665 12.4915 161.009 12.0909 161.449 11.804C161.892 11.5142 162.409 11.3693 163 11.3693C163.341 11.3693 163.678 11.4261 164.01 11.5398C164.342 11.6534 164.645 11.8381 164.918 12.0938C165.19 12.3466 165.408 12.6818 165.57 13.0994C165.732 13.517 165.812 14.0312 165.812 14.642V15.0682H160.767V14.1989H164.79C164.79 13.8295 164.716 13.5 164.568 13.2102C164.423 12.9205 164.216 12.6918 163.946 12.5241C163.679 12.3565 163.364 12.2727 163 12.2727C162.599 12.2727 162.253 12.3722 161.96 12.571C161.67 12.767 161.447 13.0227 161.291 13.3381C161.135 13.6534 161.057 13.9915 161.057 14.3523V14.9318C161.057 15.4261 161.142 15.8452 161.312 16.1889C161.486 16.5298 161.726 16.7898 162.033 16.9688C162.339 17.1449 162.696 17.233 163.102 17.233C163.366 17.233 163.605 17.196 163.818 17.1222C164.034 17.0455 164.22 16.9318 164.376 16.7812C164.533 16.6278 164.653 16.4375 164.739 16.2102L165.71 16.483C165.608 16.8125 165.436 17.1023 165.195 17.3523C164.953 17.5994 164.655 17.7926 164.3 17.9318C163.945 18.0682 163.545 18.1364 163.102 18.1364ZM168.348 14.0625V18H167.342V11.4545H168.314V12.4773H168.399C168.553 12.1449 168.786 11.8778 169.098 11.6761C169.411 11.4716 169.814 11.3693 170.308 11.3693C170.751 11.3693 171.139 11.4602 171.472 11.642C171.804 11.821 172.063 12.0938 172.247 12.4602C172.432 12.8239 172.524 13.2841 172.524 13.8409V18H171.518V13.9091C171.518 13.3949 171.385 12.9943 171.118 12.7074C170.851 12.4176 170.484 12.2727 170.018 12.2727C169.697 12.2727 169.411 12.3423 169.158 12.4815C168.908 12.6207 168.71 12.8239 168.565 13.0909C168.42 13.358 168.348 13.6818 168.348 14.0625ZM178.828 20.4545V16.9943H178.743C178.669 17.1136 178.564 17.2642 178.427 17.446C178.291 17.625 178.096 17.7855 177.843 17.9276C177.591 18.0668 177.254 18.1364 176.833 18.1364C176.288 18.1364 175.806 17.9986 175.389 17.723C174.971 17.4446 174.645 17.0526 174.409 16.5469C174.173 16.0384 174.055 15.4375 174.055 14.7443C174.055 14.0568 174.173 13.4602 174.409 12.9545C174.645 12.4489 174.973 12.0582 175.393 11.7827C175.814 11.5071 176.299 11.3693 176.85 11.3693C177.277 11.3693 177.613 11.4403 177.86 11.5824C178.11 11.7216 178.301 11.8807 178.431 12.0597C178.565 12.2358 178.669 12.3807 178.743 12.4943H178.862V11.4545H179.833V20.4545H178.828ZM176.97 17.233C177.373 17.233 177.714 17.1278 177.993 16.9176C178.271 16.7045 178.483 16.4105 178.627 16.0355C178.772 15.6577 178.845 15.2216 178.845 14.7273C178.845 14.2386 178.774 13.8111 178.632 13.4446C178.49 13.0753 178.279 12.7884 178.001 12.5838C177.723 12.3764 177.379 12.2727 176.97 12.2727C176.544 12.2727 176.189 12.3821 175.904 12.6009C175.623 12.8168 175.412 13.1108 175.27 13.483C175.13 13.8523 175.061 14.267 175.061 14.7273C175.061 15.1932 175.132 15.6165 175.274 15.9972C175.419 16.375 175.632 16.6761 175.913 16.9006C176.197 17.1222 176.549 17.233 176.97 17.233ZM185.799 15.3239V11.4545H186.805V18H185.799V16.892H185.731C185.578 17.2244 185.339 17.5071 185.015 17.7401C184.691 17.9702 184.282 18.0852 183.788 18.0852C183.379 18.0852 183.015 17.9957 182.697 17.8168C182.379 17.6349 182.129 17.3622 181.947 16.9986C181.765 16.6321 181.674 16.1705 181.674 15.6136V11.4545H182.68V15.5455C182.68 16.0227 182.814 16.4034 183.081 16.6875C183.35 16.9716 183.694 17.1136 184.112 17.1136C184.362 17.1136 184.616 17.0497 184.875 16.9219C185.136 16.794 185.355 16.598 185.531 16.3338C185.71 16.0696 185.799 15.733 185.799 15.3239ZM191.391 18.1364C190.761 18.1364 190.217 17.9972 189.759 17.7188C189.305 17.4375 188.954 17.0455 188.707 16.5426C188.462 16.0369 188.34 15.4489 188.34 14.7784C188.34 14.108 188.462 13.517 188.707 13.0057C188.954 12.4915 189.298 12.0909 189.738 11.804C190.181 11.5142 190.698 11.3693 191.289 11.3693C191.63 11.3693 191.967 11.4261 192.299 11.5398C192.631 11.6534 192.934 11.8381 193.207 12.0938C193.479 12.3466 193.697 12.6818 193.859 13.0994C194.021 13.517 194.102 14.0312 194.102 14.642V15.0682H189.056V14.1989H193.079C193.079 13.8295 193.005 13.5 192.857 13.2102C192.712 12.9205 192.505 12.6918 192.235 12.5241C191.968 12.3565 191.653 12.2727 191.289 12.2727C190.888 12.2727 190.542 12.3722 190.249 12.571C189.96 12.767 189.737 13.0227 189.58 13.3381C189.424 13.6534 189.346 13.9915 189.346 14.3523V14.9318C189.346 15.4261 189.431 15.8452 189.602 16.1889C189.775 16.5298 190.015 16.7898 190.322 16.9688C190.629 17.1449 190.985 17.233 191.391 17.233C191.656 17.233 191.894 17.196 192.107 17.1222C192.323 17.0455 192.509 16.9318 192.665 16.7812C192.822 16.6278 192.942 16.4375 193.028 16.2102L193.999 16.483C193.897 16.8125 193.725 17.1023 193.484 17.3523C193.242 17.5994 192.944 17.7926 192.589 17.9318C192.234 18.0682 191.835 18.1364 191.391 18.1364ZM192.124 10.6705L191.238 9.47727L190.352 10.6705H189.397V10.6023L190.778 8.82955H191.698L193.079 10.6023V10.6705H192.124ZM198.478 11.4545V12.3068H195.086V11.4545H198.478ZM196.075 9.88636H197.08V16.125C197.08 16.4091 197.121 16.6222 197.204 16.7642C197.289 16.9034 197.397 16.9972 197.528 17.0455C197.661 17.0909 197.802 17.1136 197.95 17.1136C198.06 17.1136 198.151 17.108 198.222 17.0966C198.293 17.0824 198.35 17.071 198.393 17.0625L198.597 17.9659C198.529 17.9915 198.434 18.017 198.312 18.0426C198.19 18.071 198.035 18.0852 197.847 18.0852C197.563 18.0852 197.285 18.0241 197.012 17.902C196.742 17.7798 196.518 17.5938 196.339 17.3438C196.163 17.0938 196.075 16.7784 196.075 16.3977V9.88636ZM202.665 18.1364C202.034 18.1364 201.49 17.9972 201.033 17.7188C200.578 17.4375 200.227 17.0455 199.98 16.5426C199.736 16.0369 199.614 15.4489 199.614 14.7784C199.614 14.108 199.736 13.517 199.98 13.0057C200.227 12.4915 200.571 12.0909 201.011 11.804C201.455 11.5142 201.972 11.3693 202.562 11.3693C202.903 11.3693 203.24 11.4261 203.572 11.5398C203.905 11.6534 204.207 11.8381 204.48 12.0938C204.753 12.3466 204.97 12.6818 205.132 13.0994C205.294 13.517 205.375 14.0312 205.375 14.642V15.0682H200.33V14.1989H204.352C204.352 13.8295 204.278 13.5 204.131 13.2102C203.986 12.9205 203.778 12.6918 203.509 12.5241C203.241 12.3565 202.926 12.2727 202.562 12.2727C202.162 12.2727 201.815 12.3722 201.523 12.571C201.233 12.767 201.01 13.0227 200.854 13.3381C200.697 13.6534 200.619 13.9915 200.619 14.3523V14.9318C200.619 15.4261 200.705 15.8452 200.875 16.1889C201.048 16.5298 201.288 16.7898 201.595 16.9688C201.902 17.1449 202.259 17.233 202.665 17.233C202.929 17.233 203.168 17.196 203.381 17.1222C203.597 17.0455 203.783 16.9318 203.939 16.7812C204.095 16.6278 204.216 16.4375 204.301 16.2102L205.273 16.483C205.17 16.8125 204.999 17.1023 204.757 17.3523C204.516 17.5994 204.217 17.7926 203.862 17.9318C203.507 18.0682 203.108 18.1364 202.665 18.1364Z" fill="white"/>
<line x1="38" y1="45.5" x2="66" y2="45.5" stroke="#FFD82D" stroke-width="5"/>
<path d="M70.4261 41.794V40.2727H77.5938V41.794H74.9219V49H73.098V41.794H70.4261ZM79.7159 49.1236C79.2983 49.1236 78.9261 49.0511 78.5994 48.9062C78.2727 48.7585 78.0142 48.5412 77.8239 48.2543C77.6364 47.9645 77.5426 47.6037 77.5426 47.1719C77.5426 46.8082 77.6094 46.5028 77.7429 46.2557C77.8764 46.0085 78.0582 45.8097 78.2884 45.6591C78.5185 45.5085 78.7798 45.3949 79.0724 45.3182C79.3679 45.2415 79.6776 45.1875 80.0014 45.1562C80.3821 45.1165 80.6889 45.0795 80.9219 45.0455C81.1548 45.0085 81.3239 44.9545 81.429 44.8835C81.5341 44.8125 81.5866 44.7074 81.5866 44.5682V44.5426C81.5866 44.2727 81.5014 44.0639 81.331 43.9162C81.1634 43.7685 80.9247 43.6946 80.6151 43.6946C80.2884 43.6946 80.0284 43.767 79.8352 43.9119C79.642 44.054 79.5142 44.233 79.4517 44.4489L77.7727 44.3125C77.858 43.9148 78.0256 43.571 78.2756 43.2812C78.5256 42.9886 78.848 42.7642 79.2429 42.608C79.6406 42.4489 80.1009 42.3693 80.6236 42.3693C80.9872 42.3693 81.3352 42.4119 81.6676 42.4972C82.0028 42.5824 82.2997 42.7145 82.5582 42.8935C82.8196 43.0724 83.0256 43.3026 83.1761 43.5838C83.3267 43.8622 83.402 44.196 83.402 44.5852V49H81.6804V48.0923H81.6293C81.5241 48.2969 81.3835 48.4773 81.2074 48.6335C81.0312 48.7869 80.8196 48.9077 80.5724 48.9957C80.3253 49.081 80.0398 49.1236 79.7159 49.1236ZM80.2358 47.8707C80.5028 47.8707 80.7386 47.8182 80.9432 47.7131C81.1477 47.6051 81.3082 47.4602 81.4247 47.2784C81.5412 47.0966 81.5994 46.8906 81.5994 46.6605V45.9659C81.5426 46.0028 81.4645 46.0369 81.3651 46.0682C81.2685 46.0966 81.1591 46.1236 81.0369 46.1491C80.9148 46.1719 80.7926 46.1932 80.6705 46.2131C80.5483 46.2301 80.4375 46.2457 80.3381 46.2599C80.125 46.2912 79.9389 46.3409 79.7798 46.4091C79.6207 46.4773 79.4972 46.5696 79.4091 46.6861C79.321 46.7997 79.277 46.9418 79.277 47.1122C79.277 47.3594 79.3665 47.5483 79.5455 47.679C79.7273 47.8068 79.9574 47.8707 80.2358 47.8707ZM84.8445 49V40.2727H86.6598V43.554H86.7152C86.7947 43.3778 86.9098 43.1989 87.0604 43.017C87.2138 42.8324 87.4126 42.679 87.657 42.5568C87.9041 42.4318 88.2109 42.3693 88.5774 42.3693C89.0547 42.3693 89.495 42.4943 89.8984 42.7443C90.3018 42.9915 90.6243 43.3651 90.8658 43.8651C91.1072 44.3622 91.228 44.9858 91.228 45.7358C91.228 46.4659 91.1101 47.0824 90.8743 47.5852C90.6413 48.0852 90.3232 48.4645 89.9197 48.723C89.5192 48.9787 89.0703 49.1065 88.5732 49.1065C88.2209 49.1065 87.9212 49.0483 87.674 48.9318C87.4297 48.8153 87.2294 48.669 87.0732 48.4929C86.9169 48.3139 86.7976 48.1335 86.7152 47.9517H86.6342V49H84.8445ZM86.6214 45.7273C86.6214 46.1165 86.6754 46.456 86.7834 46.7457C86.8913 47.0355 87.0476 47.2614 87.2521 47.4233C87.4567 47.5824 87.7053 47.6619 87.9979 47.6619C88.2933 47.6619 88.5433 47.581 88.7479 47.419C88.9524 47.2543 89.1072 47.027 89.2124 46.7372C89.3203 46.4446 89.3743 46.108 89.3743 45.7273C89.3743 45.3494 89.3217 45.017 89.2166 44.7301C89.1115 44.4432 88.9567 44.2187 88.7521 44.0568C88.5476 43.8949 88.2962 43.8139 87.9979 43.8139C87.7024 43.8139 87.4524 43.892 87.2479 44.0483C87.0462 44.2045 86.8913 44.4261 86.7834 44.7131C86.6754 45 86.6214 45.3381 86.6214 45.7273ZM94.2546 40.2727V49H92.4393V40.2727H94.2546ZM98.6918 49.1278C98.0185 49.1278 97.4389 48.9915 96.9531 48.7188C96.4702 48.4432 96.098 48.054 95.8366 47.5511C95.5753 47.0455 95.4446 46.4474 95.4446 45.7571C95.4446 45.0838 95.5753 44.4929 95.8366 43.9844C96.098 43.4759 96.4659 43.0795 96.9403 42.7955C97.4176 42.5114 97.9773 42.3693 98.6193 42.3693C99.0511 42.3693 99.4531 42.4389 99.8253 42.5781C100.2 42.7145 100.527 42.9205 100.805 43.196C101.087 43.4716 101.305 43.8182 101.462 44.2358C101.618 44.6506 101.696 45.1364 101.696 45.6932V46.1918H96.169V45.0668H99.9872C99.9872 44.8054 99.9304 44.5739 99.8168 44.3722C99.7031 44.1705 99.5455 44.0128 99.3438 43.8991C99.1449 43.7827 98.9134 43.7244 98.6491 43.7244C98.3736 43.7244 98.1293 43.7884 97.9162 43.9162C97.706 44.0412 97.5412 44.2102 97.4219 44.4233C97.3026 44.6335 97.2415 44.8679 97.2386 45.1264V46.196C97.2386 46.5199 97.2983 46.7997 97.4176 47.0355C97.5398 47.2713 97.7116 47.4531 97.9332 47.581C98.1548 47.7088 98.4176 47.7727 98.7216 47.7727C98.9233 47.7727 99.108 47.7443 99.2756 47.6875C99.4432 47.6307 99.5866 47.5455 99.706 47.4318C99.8253 47.3182 99.9162 47.179 99.9787 47.0142L101.658 47.125C101.572 47.5284 101.398 47.8807 101.134 48.1818C100.872 48.4801 100.534 48.7131 100.119 48.8807C99.7074 49.0455 99.2315 49.1278 98.6918 49.1278ZM104.747 49.1236C104.33 49.1236 103.957 49.0511 103.631 48.9062C103.304 48.7585 103.045 48.5412 102.855 48.2543C102.668 47.9645 102.574 47.6037 102.574 47.1719C102.574 46.8082 102.641 46.5028 102.774 46.2557C102.908 46.0085 103.089 45.8097 103.32 45.6591C103.55 45.5085 103.811 45.3949 104.104 45.3182C104.399 45.2415 104.709 45.1875 105.033 45.1562C105.413 45.1165 105.72 45.0795 105.953 45.0455C106.186 45.0085 106.355 44.9545 106.46 44.8835C106.565 44.8125 106.618 44.7074 106.618 44.5682V44.5426C106.618 44.2727 106.533 44.0639 106.362 43.9162C106.195 43.7685 105.956 43.6946 105.646 43.6946C105.32 43.6946 105.06 43.767 104.866 43.9119C104.673 44.054 104.545 44.233 104.483 44.4489L102.804 44.3125C102.889 43.9148 103.057 43.571 103.307 43.2812C103.557 42.9886 103.879 42.7642 104.274 42.608C104.672 42.4489 105.132 42.3693 105.655 42.3693C106.018 42.3693 106.366 42.4119 106.699 42.4972C107.034 42.5824 107.331 42.7145 107.589 42.8935C107.851 43.0724 108.057 43.3026 108.207 43.5838C108.358 43.8622 108.433 44.196 108.433 44.5852V49H106.712V48.0923H106.661C106.555 48.2969 106.415 48.4773 106.239 48.6335C106.062 48.7869 105.851 48.9077 105.604 48.9957C105.357 49.081 105.071 49.1236 104.747 49.1236ZM105.267 47.8707C105.534 47.8707 105.77 47.8182 105.974 47.7131C106.179 47.6051 106.339 47.4602 106.456 47.2784C106.572 47.0966 106.631 46.8906 106.631 46.6605V45.9659C106.574 46.0028 106.496 46.0369 106.396 46.0682C106.3 46.0966 106.19 46.1236 106.068 46.1491C105.946 46.1719 105.824 46.1932 105.702 46.2131C105.58 46.2301 105.469 46.2457 105.369 46.2599C105.156 46.2912 104.97 46.3409 104.811 46.4091C104.652 46.4773 104.528 46.5696 104.44 46.6861C104.352 46.7997 104.308 46.9418 104.308 47.1122C104.308 47.3594 104.398 47.5483 104.577 47.679C104.759 47.8068 104.989 47.8707 105.267 47.8707ZM114.039 46.2131V42.4545H115.854V49H114.112V47.8111H114.043C113.896 48.1946 113.65 48.5028 113.306 48.7358C112.965 48.9687 112.549 49.0852 112.058 49.0852C111.62 49.0852 111.235 48.9858 110.903 48.7869C110.57 48.5881 110.31 48.3054 110.123 47.9389C109.938 47.5724 109.844 47.1335 109.842 46.6222V42.4545H111.657V46.2983C111.66 46.6847 111.763 46.9901 111.968 47.2145C112.173 47.4389 112.447 47.5511 112.79 47.5511C113.009 47.5511 113.214 47.5014 113.404 47.402C113.594 47.2997 113.748 47.1491 113.864 46.9503C113.984 46.7514 114.042 46.5057 114.039 46.2131ZM118.824 42.4545L120.025 44.7429L121.257 42.4545H123.119L121.223 45.7273L123.17 49H121.316L120.025 46.7372L118.755 49H116.88L118.824 45.7273L116.949 42.4545H118.824ZM131.172 46.2131V42.4545H132.987V49H131.244V47.8111H131.176C131.028 48.1946 130.783 48.5028 130.439 48.7358C130.098 48.9687 129.682 49.0852 129.19 49.0852C128.753 49.0852 128.368 48.9858 128.036 48.7869C127.703 48.5881 127.443 48.3054 127.256 47.9389C127.071 47.5724 126.977 47.1335 126.974 46.6222V42.4545H128.79V46.2983C128.793 46.6847 128.896 46.9901 129.101 47.2145C129.305 47.4389 129.58 47.5511 129.923 47.5511C130.142 47.5511 130.347 47.5014 130.537 47.402C130.727 47.2997 130.881 47.1491 130.997 46.9503C131.116 46.7514 131.175 46.5057 131.172 46.2131ZM137.921 42.4545V43.8182H133.979V42.4545H137.921ZM134.874 40.8864H136.689V46.9886C136.689 47.1562 136.715 47.2869 136.766 47.3807C136.817 47.4716 136.888 47.5355 136.979 47.5724C137.073 47.6094 137.181 47.6278 137.303 47.6278C137.388 47.6278 137.473 47.6207 137.559 47.6065C137.644 47.5895 137.709 47.5767 137.755 47.5682L138.04 48.919C137.949 48.9474 137.821 48.9801 137.657 49.017C137.492 49.0568 137.292 49.081 137.056 49.0895C136.618 49.1065 136.235 49.0483 135.905 48.9148C135.578 48.7812 135.324 48.5739 135.142 48.2926C134.961 48.0114 134.871 47.6562 134.874 47.2273V40.8864ZM139.103 49V42.4545H140.919V49H139.103ZM140.015 41.6108C139.745 41.6108 139.514 41.5213 139.321 41.3423C139.13 41.1605 139.035 40.9432 139.035 40.6903C139.035 40.4403 139.13 40.2259 139.321 40.0469C139.514 39.8651 139.745 39.7741 140.015 39.7741C140.285 39.7741 140.515 39.8651 140.706 40.0469C140.899 40.2259 140.995 40.4403 140.995 40.6903C140.995 40.9432 140.899 41.1605 140.706 41.3423C140.515 41.5213 140.285 41.6108 140.015 41.6108ZM144.188 40.2727V49H142.373V40.2727H144.188ZM148.625 49.1278C147.952 49.1278 147.373 48.9915 146.887 48.7188C146.404 48.4432 146.032 48.054 145.77 47.5511C145.509 47.0455 145.378 46.4474 145.378 45.7571C145.378 45.0838 145.509 44.4929 145.77 43.9844C146.032 43.4759 146.4 43.0795 146.874 42.7955C147.351 42.5114 147.911 42.3693 148.553 42.3693C148.985 42.3693 149.387 42.4389 149.759 42.5781C150.134 42.7145 150.461 42.9205 150.739 43.196C151.02 43.4716 151.239 43.8182 151.395 44.2358C151.551 44.6506 151.63 45.1364 151.63 45.6932V46.1918H146.103V45.0668H149.921C149.921 44.8054 149.864 44.5739 149.75 44.3722C149.637 44.1705 149.479 44.0128 149.277 43.8991C149.078 43.7827 148.847 43.7244 148.583 43.7244C148.307 43.7244 148.063 43.7884 147.85 43.9162C147.64 44.0412 147.475 44.2102 147.355 44.4233C147.236 44.6335 147.175 44.8679 147.172 45.1264V46.196C147.172 46.5199 147.232 46.7997 147.351 47.0355C147.473 47.2713 147.645 47.4531 147.867 47.581C148.088 47.7088 148.351 47.7727 148.655 47.7727C148.857 47.7727 149.042 47.7443 149.209 47.6875C149.377 47.6307 149.52 47.5455 149.64 47.4318C149.759 47.3182 149.85 47.179 149.912 47.0142L151.591 47.125C151.506 47.5284 151.331 47.8807 151.067 48.1818C150.806 48.4801 150.468 48.7131 150.053 48.8807C149.641 49.0455 149.165 49.1278 148.625 49.1278ZM158.26 44.321L156.598 44.4233C156.57 44.2812 156.509 44.1534 156.415 44.0398C156.321 43.9233 156.198 43.831 156.044 43.7628C155.894 43.6918 155.713 43.6562 155.503 43.6562C155.222 43.6562 154.985 43.7159 154.792 43.8352C154.598 43.9517 154.502 44.108 154.502 44.304C154.502 44.4602 154.564 44.5923 154.689 44.7003C154.814 44.8082 155.029 44.8949 155.333 44.9602L156.517 45.1989C157.154 45.3295 157.628 45.5398 157.941 45.8295C158.253 46.1193 158.409 46.5 158.409 46.9716C158.409 47.4006 158.283 47.777 158.03 48.1009C157.78 48.4247 157.436 48.6776 156.999 48.8594C156.564 49.0384 156.063 49.1278 155.495 49.1278C154.628 49.1278 153.938 48.9474 153.424 48.5866C152.912 48.223 152.613 47.7287 152.525 47.1037L154.31 47.0099C154.364 47.2741 154.495 47.4759 154.702 47.6151C154.909 47.7514 155.175 47.8196 155.499 47.8196C155.817 47.8196 156.073 47.7585 156.266 47.6364C156.462 47.5114 156.561 47.3509 156.564 47.1548C156.561 46.9901 156.492 46.8551 156.355 46.75C156.219 46.642 156.009 46.5597 155.725 46.5028L154.591 46.277C153.952 46.1491 153.476 45.9276 153.164 45.6122C152.854 45.2969 152.699 44.8949 152.699 44.4062C152.699 43.9858 152.813 43.6236 153.04 43.3196C153.27 43.0156 153.593 42.7812 154.007 42.6165C154.425 42.4517 154.914 42.3693 155.473 42.3693C156.3 42.3693 156.951 42.544 157.425 42.8935C157.902 43.2429 158.181 43.7187 158.26 44.321ZM164.196 49.1236C163.779 49.1236 163.407 49.0511 163.08 48.9062C162.753 48.7585 162.495 48.5412 162.304 48.2543C162.117 47.9645 162.023 47.6037 162.023 47.1719C162.023 46.8082 162.09 46.5028 162.223 46.2557C162.357 46.0085 162.539 45.8097 162.769 45.6591C162.999 45.5085 163.26 45.3949 163.553 45.3182C163.848 45.2415 164.158 45.1875 164.482 45.1562C164.863 45.1165 165.169 45.0795 165.402 45.0455C165.635 45.0085 165.804 44.9545 165.909 44.8835C166.015 44.8125 166.067 44.7074 166.067 44.5682V44.5426C166.067 44.2727 165.982 44.0639 165.811 43.9162C165.644 43.7685 165.405 43.6946 165.096 43.6946C164.769 43.6946 164.509 43.767 164.316 43.9119C164.123 44.054 163.995 44.233 163.932 44.4489L162.253 44.3125C162.338 43.9148 162.506 43.571 162.756 43.2812C163.006 42.9886 163.328 42.7642 163.723 42.608C164.121 42.4489 164.581 42.3693 165.104 42.3693C165.468 42.3693 165.816 42.4119 166.148 42.4972C166.483 42.5824 166.78 42.7145 167.039 42.8935C167.3 43.0724 167.506 43.3026 167.657 43.5838C167.807 43.8622 167.882 44.196 167.882 44.5852V49H166.161V48.0923H166.11C166.005 48.2969 165.864 48.4773 165.688 48.6335C165.512 48.7869 165.3 48.9077 165.053 48.9957C164.806 49.081 164.52 49.1236 164.196 49.1236ZM164.716 47.8707C164.983 47.8707 165.219 47.8182 165.424 47.7131C165.628 47.6051 165.789 47.4602 165.905 47.2784C166.022 47.0966 166.08 46.8906 166.08 46.6605V45.9659C166.023 46.0028 165.945 46.0369 165.846 46.0682C165.749 46.0966 165.64 46.1236 165.517 46.1491C165.395 46.1719 165.273 46.1932 165.151 46.2131C165.029 46.2301 164.918 46.2457 164.819 46.2599C164.605 46.2912 164.419 46.3409 164.26 46.4091C164.101 46.4773 163.978 46.5696 163.89 46.6861C163.801 46.7997 163.757 46.9418 163.757 47.1122C163.757 47.3594 163.847 47.5483 164.026 47.679C164.208 47.8068 164.438 47.8707 164.716 47.8707ZM164.542 41.6108L163.242 39.6719H164.917L165.824 41.6108H164.542ZM173.884 40.2727V49H172.068V40.2727H173.884ZM176.859 40.2727V41.1932C176.859 41.4545 176.808 41.7216 176.706 41.9943C176.606 42.2642 176.473 42.5199 176.305 42.7614C176.137 43 175.954 43.2031 175.755 43.3707L174.954 42.8977C175.096 42.6733 175.221 42.4247 175.329 42.152C175.44 41.8793 175.495 41.5625 175.495 41.2017V40.2727H176.859ZM180.301 49.1278C179.628 49.1278 179.048 48.9915 178.562 48.7188C178.08 48.4432 177.707 48.054 177.446 47.5511C177.185 47.0455 177.054 46.4474 177.054 45.7571C177.054 45.0838 177.185 44.4929 177.446 43.9844C177.707 43.4759 178.075 43.0795 178.55 42.7955C179.027 42.5114 179.587 42.3693 180.229 42.3693C180.661 42.3693 181.063 42.4389 181.435 42.5781C181.81 42.7145 182.136 42.9205 182.415 43.196C182.696 43.4716 182.915 43.8182 183.071 44.2358C183.227 44.6506 183.305 45.1364 183.305 45.6932V46.1918H177.778V45.0668H181.597C181.597 44.8054 181.54 44.5739 181.426 44.3722C181.313 44.1705 181.155 44.0128 180.953 43.8991C180.754 43.7827 180.523 43.7244 180.259 43.7244C179.983 43.7244 179.739 43.7884 179.526 43.9162C179.315 44.0412 179.151 44.2102 179.031 44.4233C178.912 44.6335 178.851 44.8679 178.848 45.1264V46.196C178.848 46.5199 178.908 46.7997 179.027 47.0355C179.149 47.2713 179.321 47.4531 179.543 47.581C179.764 47.7088 180.027 47.7727 180.331 47.7727C180.533 47.7727 180.717 47.7443 180.885 47.6875C181.053 47.6307 181.196 47.5455 181.315 47.4318C181.435 47.3182 181.526 47.179 181.588 47.0142L183.267 47.125C183.182 47.5284 183.007 47.8807 182.743 48.1818C182.482 48.4801 182.143 48.7131 181.729 48.8807C181.317 49.0455 180.841 49.1278 180.301 49.1278ZM186.305 45.2159V49H184.49V42.4545H186.22V43.6094H186.297C186.442 43.2287 186.685 42.9276 187.026 42.706C187.366 42.4815 187.78 42.3693 188.266 42.3693C188.72 42.3693 189.116 42.4688 189.455 42.6676C189.793 42.8665 190.055 43.1506 190.243 43.5199C190.43 43.8864 190.524 44.3239 190.524 44.8324V49H188.709V45.1562C188.712 44.7557 188.609 44.4432 188.402 44.2188C188.195 43.9915 187.909 43.8778 187.545 43.8778C187.301 43.8778 187.085 43.9304 186.898 44.0355C186.713 44.1406 186.568 44.294 186.463 44.4957C186.361 44.6946 186.308 44.9347 186.305 45.2159ZM196.28 51.4545V47.9517H196.225C196.14 48.1335 196.019 48.3139 195.863 48.4929C195.709 48.669 195.509 48.8153 195.262 48.9318C195.017 49.0483 194.719 49.1065 194.367 49.1065C193.87 49.1065 193.419 48.9787 193.016 48.723C192.615 48.4645 192.297 48.0852 192.061 47.5852C191.828 47.0824 191.712 46.4659 191.712 45.7358C191.712 44.9858 191.833 44.3622 192.074 43.8651C192.316 43.3651 192.637 42.9915 193.037 42.7443C193.441 42.4943 193.882 42.3693 194.363 42.3693C194.729 42.3693 195.034 42.4318 195.279 42.5568C195.526 42.679 195.725 42.8324 195.875 43.017C196.029 43.1989 196.145 43.3778 196.225 43.554H196.301V42.4545H198.091V51.4545H196.28ZM194.942 47.6619C195.235 47.6619 195.482 47.5824 195.684 47.4233C195.888 47.2614 196.044 47.0355 196.152 46.7457C196.263 46.456 196.319 46.1165 196.319 45.7273C196.319 45.3381 196.265 45 196.157 44.7131C196.049 44.4261 195.892 44.2045 195.688 44.0483C195.483 43.892 195.235 43.8139 194.942 43.8139C194.644 43.8139 194.392 43.8949 194.188 44.0568C193.983 44.2187 193.828 44.4432 193.723 44.7301C193.618 45.017 193.566 45.3494 193.566 45.7273C193.566 46.108 193.618 46.4446 193.723 46.7372C193.831 47.027 193.986 47.2543 194.188 47.419C194.392 47.581 194.644 47.6619 194.942 47.6619ZM203.746 46.2131V42.4545H205.561V49H203.819V47.8111H203.75C203.603 48.1946 203.357 48.5028 203.013 48.7358C202.672 48.9687 202.256 49.0852 201.765 49.0852C201.327 49.0852 200.942 48.9858 200.61 48.7869C200.277 48.5881 200.017 48.3054 199.83 47.9389C199.645 47.5724 199.551 47.1335 199.549 46.6222V42.4545H201.364V46.2983C201.367 46.6847 201.471 46.9901 201.675 47.2145C201.88 47.4389 202.154 47.5511 202.498 47.5511C202.716 47.5511 202.921 47.5014 203.111 47.402C203.301 47.2997 203.455 47.1491 203.571 46.9503C203.691 46.7514 203.749 46.5057 203.746 46.2131ZM209.996 49.1278C209.323 49.1278 208.744 48.9915 208.258 48.7188C207.775 48.4432 207.403 48.054 207.141 47.5511C206.88 47.0455 206.749 46.4474 206.749 45.7571C206.749 45.0838 206.88 44.4929 207.141 43.9844C207.403 43.4759 207.771 43.0795 208.245 42.7955C208.722 42.5114 209.282 42.3693 209.924 42.3693C210.356 42.3693 210.758 42.4389 211.13 42.5781C211.505 42.7145 211.832 42.9205 212.11 43.196C212.391 43.4716 212.61 43.8182 212.766 44.2358C212.923 44.6506 213.001 45.1364 213.001 45.6932V46.1918H207.474V45.0668H211.292C211.292 44.8054 211.235 44.5739 211.121 44.3722C211.008 44.1705 210.85 44.0128 210.648 43.8991C210.45 43.7827 210.218 43.7244 209.954 43.7244C209.678 43.7244 209.434 43.7884 209.221 43.9162C209.011 44.0412 208.846 44.2102 208.727 44.4233C208.607 44.6335 208.546 44.8679 208.543 45.1264V46.196C208.543 46.5199 208.603 46.7997 208.722 47.0355C208.844 47.2713 209.016 47.4531 209.238 47.581C209.46 47.7088 209.722 47.7727 210.026 47.7727C210.228 47.7727 210.413 47.7443 210.58 47.6875C210.748 47.6307 210.891 47.5455 211.011 47.4318C211.13 47.3182 211.221 47.179 211.283 47.0142L212.962 47.125C212.877 47.5284 212.702 47.8807 212.438 48.1818C212.177 48.4801 211.839 48.7131 211.424 48.8807C211.012 49.0455 210.536 49.1278 209.996 49.1278ZM210.738 41.6705L209.881 40.6307L209.025 41.6705H207.478V41.6108L209.204 39.7358H210.555L212.285 41.6108V41.6705H210.738ZM217.667 42.4545V43.8182H213.725V42.4545H217.667ZM214.62 40.8864H216.435V46.9886C216.435 47.1562 216.461 47.2869 216.512 47.3807C216.563 47.4716 216.634 47.5355 216.725 47.5724C216.819 47.6094 216.927 47.6278 217.049 47.6278C217.134 47.6278 217.219 47.6207 217.305 47.6065C217.39 47.5895 217.455 47.5767 217.501 47.5682L217.786 48.919C217.695 48.9474 217.567 48.9801 217.403 49.017C217.238 49.0568 217.038 49.081 216.802 49.0895C216.364 49.1065 215.981 49.0483 215.651 48.9148C215.325 48.7812 215.07 48.5739 214.888 48.2926C214.707 48.0114 214.617 47.6562 214.62 47.2273V40.8864ZM221.762 49.1278C221.089 49.1278 220.509 48.9915 220.023 48.7188C219.54 48.4432 219.168 48.054 218.907 47.5511C218.646 47.0455 218.515 46.4474 218.515 45.7571C218.515 45.0838 218.646 44.4929 218.907 43.9844C219.168 43.4759 219.536 43.0795 220.011 42.7955C220.488 42.5114 221.048 42.3693 221.69 42.3693C222.121 42.3693 222.523 42.4389 222.896 42.5781C223.271 42.7145 223.597 42.9205 223.876 43.196C224.157 43.4716 224.376 43.8182 224.532 44.2358C224.688 44.6506 224.766 45.1364 224.766 45.6932V46.1918H219.239V45.0668H223.058C223.058 44.8054 223.001 44.5739 222.887 44.3722C222.773 44.1705 222.616 44.0128 222.414 43.8991C222.215 43.7827 221.984 43.7244 221.719 43.7244C221.444 43.7244 221.2 43.7884 220.987 43.9162C220.776 44.0412 220.612 44.2102 220.492 44.4233C220.373 44.6335 220.312 44.8679 220.309 45.1264V46.196C220.309 46.5199 220.369 46.7997 220.488 47.0355C220.61 47.2713 220.782 47.4531 221.004 47.581C221.225 47.7088 221.488 47.7727 221.792 47.7727C221.994 47.7727 222.178 47.7443 222.346 47.6875C222.513 47.6307 222.657 47.5455 222.776 47.4318C222.896 47.3182 222.987 47.179 223.049 47.0142L224.728 47.125C224.643 47.5284 224.468 47.8807 224.204 48.1818C223.942 48.4801 223.604 48.7131 223.19 48.8807C222.778 49.0455 222.302 49.1278 221.762 49.1278Z" fill="white"/>
<line x1="63.2337" y1="61.5083" x2="63.2337" y2="236.469" stroke="white" stroke-width="2.26242"/>
<line x1="62.1025" y1="60.7542" x2="206.897" y2="60.7542" stroke="white" stroke-width="1.50828"/>
<line x1="62.1025" y1="235.338" x2="114.892" y2="235.338" stroke="white" stroke-width="2.26242"/>
<line x1="154.107" y1="235.338" x2="206.897" y2="235.338" stroke="white" stroke-width="2.26242"/>
<line x1="108.105" y1="200.647" x2="160.895" y2="200.647" stroke="white" stroke-width="2.26242"/>
<line x1="62.1025" y1="163.694" x2="92.2681" y2="163.694" stroke="white" stroke-width="2.26242"/>
<line x1="176.731" y1="163.694" x2="206.897" y2="163.694" stroke="white" stroke-width="2.26242"/>
<line x1="175.6" y1="164.825" x2="175.6" y2="149.743" stroke="white" stroke-width="2.26242"/>
<line x1="91.1373" y1="164.825" x2="91.1373" y2="149.743" stroke="white" stroke-width="2.26242"/>
<line x1="208.029" y1="60" x2="208.029" y2="236.469" stroke="white" stroke-width="2.26242"/>
<line x1="168.06" y1="61.5083" x2="168.06" y2="112.036" stroke="white" stroke-width="2.26242"/>
<line x1="116.4" y1="110.904" x2="166.928" y2="110.904" stroke="white" stroke-width="2.26242"/>
<line x1="115.269" y1="112.036" x2="115.269" y2="103.74" stroke="white" stroke-width="2.26242"/>
<line x1="77.9395" y1="232.321" x2="99.0554" y2="232.321" stroke="#FFD82D" stroke-width="3.7707"/>
<line x1="173.338" y1="149.743" x2="173.338" y2="164.825" stroke="#FFD82D" stroke-width="3.7707"/>
<line x1="66.2506" y1="127.118" x2="66.2506" y2="142.201" stroke="#FFD82D" stroke-width="3.7707"/>
<line x1="66.2506" y1="180.662" x2="66.2506" y2="192.729" stroke="#FFD82D" stroke-width="3.7707"/>
<line x1="200.11" y1="63.3937" x2="174.47" y2="63.3937" stroke="#FFD82D" stroke-width="3.7707"/>
<path d="M135.033 237.444C134.739 237.149 134.261 237.149 133.967 237.444L129.167 242.243C128.873 242.538 128.873 243.015 129.167 243.31C129.462 243.604 129.939 243.604 130.234 243.31L134.5 239.044L138.766 243.31C139.061 243.604 139.538 243.604 139.833 243.31C140.127 243.015 140.127 242.538 139.833 242.243L135.033 237.444ZM135.254 258.339L135.254 237.977L133.746 237.977L133.746 258.339L135.254 258.339Z" fill="white"/>
<path d="M142.047 217.639L141.71 217.47L142.047 217.639L142.116 217.5C142.304 217.124 142.322 216.686 142.167 216.296L141.984 215.836C141.898 215.621 141.763 215.429 141.589 215.276L141.484 215.183C141.196 214.93 140.82 214.798 140.437 214.817L140.232 214.827C140.089 214.834 139.949 214.862 139.814 214.909L139.39 215.058C139.107 215.158 138.861 215.341 138.686 215.584L138.099 216.393C138.062 216.444 138.029 216.499 138.002 216.557C137.914 216.744 137.656 216.763 137.541 216.592L137.036 215.841C136.834 215.539 136.888 215.134 137.162 214.896L138.125 214.059C138.215 213.981 138.337 213.952 138.452 213.981L138.545 213.616L138.452 213.981C138.858 214.084 139.288 213.952 139.566 213.637L139.602 213.596C139.946 213.205 139.974 212.628 139.669 212.206C139.491 211.96 139.222 211.797 138.922 211.755L138.256 211.661C137.86 211.605 137.458 211.712 137.143 211.958L134.55 213.98C134.478 214.036 134.411 214.099 134.35 214.168L134.295 214.231C133.982 214.586 133.859 215.071 133.964 215.532L133.984 215.622C134.029 215.819 134.114 216.005 134.234 216.167L134.368 216.35C134.628 216.703 134.515 217.203 134.129 217.41L132.917 218.063C132.728 218.164 132.504 218.176 132.306 218.096L129.771 217.07C129.439 216.936 129.069 216.927 128.731 217.045L128.39 217.164C128.272 217.206 128.16 217.262 128.056 217.331L125.71 218.903C125.585 218.987 125.436 219.029 125.285 219.024L124.299 218.99C124.041 218.982 123.792 219.089 123.622 219.282C123.307 219.64 123.342 220.185 123.699 220.499L124.594 221.288C125.09 221.725 125.816 221.778 126.37 221.419L128.502 220.038C128.733 219.888 129.029 219.883 129.264 220.025L130.762 220.926C131.1 221.129 131.212 221.564 131.014 221.905L128.496 226.233C128.461 226.294 128.416 226.349 128.364 226.398L128.329 226.43C127.439 227.253 127.899 228.741 129.098 228.919C129.84 229.029 130.543 228.553 130.716 227.823L131.033 226.485C131.055 226.39 131.096 226.301 131.154 226.223L134.093 222.253C134.175 222.142 134.288 222.056 134.418 222.008L136.833 221.098C137.057 221.014 137.31 221.082 137.461 221.268C137.607 221.447 137.627 221.697 137.513 221.897L136.823 223.1C136.799 223.142 136.754 223.168 136.706 223.169C136.358 223.171 136.043 223.376 135.901 223.693L135.569 224.428C135.392 224.821 135.492 225.284 135.815 225.569C136.243 225.945 136.901 225.88 137.246 225.426L139.829 222.032C140.056 221.735 140.161 221.363 140.123 220.991L140.07 220.464C140.044 220.215 139.956 219.976 139.812 219.77L139.601 219.466C139.43 219.222 139.502 218.885 139.757 218.732C139.805 218.703 139.857 218.683 139.911 218.671L141.047 218.419C141.481 218.323 141.848 218.036 142.047 217.639Z" stroke="white" stroke-width="0.75414"/>
</svg>
