<svg width="296" height="49" viewBox="0 0 296 49" fill="none" xmlns="http://www.w3.org/2000/svg">
<path d="M2.712 16.0655C2.19867 16.0655 1.76 15.9162 1.396 15.6175C1.032 15.3095 0.85 14.8428 0.85 14.2175C0.85 13.6855 0.99 13.2748 1.27 12.9855C1.55 12.6962 1.93267 12.4955 2.418 12.3835C2.91267 12.2715 3.482 12.2155 4.126 12.2155H4.742V11.9635C4.742 11.7208 4.69533 11.4875 4.602 11.2635C4.518 11.0302 4.37333 10.8388 4.168 10.6895C3.972 10.5308 3.70133 10.4515 3.356 10.4515C3.01067 10.4515 2.74467 10.4842 2.558 10.5495C2.37133 10.6148 2.222 10.6848 2.11 10.7595C1.998 10.8342 1.89533 10.8715 1.802 10.8715C1.634 10.8715 1.50333 10.7922 1.41 10.6335C1.31667 10.4655 1.27 10.2975 1.27 10.1295C1.27 9.96149 1.37733 9.81216 1.592 9.68149C1.816 9.54149 2.09133 9.43416 2.418 9.35949C2.74467 9.27549 3.06667 9.23349 3.384 9.23349C4.07467 9.23349 4.62533 9.36416 5.036 9.62549C5.44667 9.87749 5.74533 10.2088 5.932 10.6195C6.11867 11.0302 6.212 11.4735 6.212 11.9495V15.4635C6.212 15.5942 6.142 15.7108 6.002 15.8135C5.87133 15.9068 5.70333 15.9535 5.498 15.9535C5.31133 15.9535 5.15267 15.9068 5.022 15.8135C4.89133 15.7108 4.826 15.5942 4.826 15.4635V14.9735C4.58333 15.2535 4.28933 15.5055 3.944 15.7295C3.59867 15.9535 3.188 16.0655 2.712 16.0655ZM3.244 14.9455C3.47733 14.9455 3.706 14.8755 3.93 14.7355C4.16333 14.5955 4.35467 14.4182 4.504 14.2035C4.66267 13.9888 4.742 13.7695 4.742 13.5455V13.0275H4.392C4.03733 13.0275 3.70133 13.0508 3.384 13.0975C3.06667 13.1348 2.81 13.2282 2.614 13.3775C2.42733 13.5175 2.334 13.7368 2.334 14.0355C2.334 14.3528 2.418 14.5862 2.586 14.7355C2.76333 14.8755 2.98267 14.9455 3.244 14.9455ZM8.40978 15.9535C8.20445 15.9535 8.03178 15.9022 7.89178 15.7995C7.76111 15.6968 7.69578 15.5848 7.69578 15.4635V9.79349C7.69578 9.65349 7.76111 9.54149 7.89178 9.45749C8.03178 9.36416 8.20445 9.31749 8.40978 9.31749C8.59645 9.31749 8.75511 9.36416 8.88578 9.45749C9.01645 9.54149 9.08178 9.65349 9.08178 9.79349V10.4095C9.18445 10.2135 9.31978 10.0268 9.48778 9.84949C9.66511 9.67216 9.87045 9.52749 10.1038 9.41549C10.3371 9.29416 10.5891 9.23349 10.8598 9.23349H11.3078C11.4571 9.23349 11.5878 9.29882 11.6998 9.42949C11.8118 9.55082 11.8678 9.70016 11.8678 9.87749C11.8678 10.0548 11.8118 10.2088 11.6998 10.3395C11.5878 10.4702 11.4571 10.5355 11.3078 10.5355H10.8598C10.5798 10.5355 10.3091 10.6195 10.0478 10.7875C9.78645 10.9555 9.57178 11.1935 9.40378 11.5015C9.24511 11.8002 9.16578 12.1642 9.16578 12.5935V15.4635C9.16578 15.5848 9.09111 15.6968 8.94178 15.7995C8.80178 15.9022 8.62445 15.9535 8.40978 15.9535ZM13.4414 15.9535C13.2267 15.9535 13.0494 15.9022 12.9094 15.7995C12.7787 15.6968 12.7134 15.5848 12.7134 15.4635V9.79349C12.7134 9.65349 12.7787 9.54149 12.9094 9.45749C13.0494 9.36416 13.2267 9.31749 13.4414 9.31749C13.6187 9.31749 13.7727 9.36416 13.9034 9.45749C14.034 9.54149 14.0994 9.65349 14.0994 9.79349V10.2975C14.258 10.0268 14.4914 9.78416 14.7994 9.56949C15.1074 9.34549 15.4947 9.23349 15.9614 9.23349C16.3814 9.23349 16.75 9.36416 17.0674 9.62549C17.394 9.88682 17.6367 10.2228 17.7954 10.6335C18.038 10.1575 18.3507 9.80749 18.7334 9.58349C19.116 9.35016 19.508 9.23349 19.9094 9.23349C20.3294 9.23349 20.7214 9.34082 21.0854 9.55549C21.4587 9.77016 21.762 10.0828 21.9954 10.4935C22.2287 10.9042 22.3454 11.4035 22.3454 11.9915V15.4635C22.3454 15.5848 22.2707 15.6968 22.1214 15.7995C21.9814 15.9022 21.8087 15.9535 21.6034 15.9535C21.4074 15.9535 21.2347 15.9022 21.0854 15.7995C20.9454 15.6968 20.8754 15.5848 20.8754 15.4635V11.9915C20.8754 11.6742 20.81 11.4082 20.6794 11.1935C20.558 10.9695 20.3947 10.8015 20.1894 10.6895C19.9934 10.5775 19.788 10.5215 19.5734 10.5215C19.3494 10.5215 19.1394 10.5822 18.9434 10.7035C18.7474 10.8155 18.584 10.9788 18.4534 11.1935C18.3227 11.3988 18.2574 11.6555 18.2574 11.9635V15.4775C18.2574 15.6455 18.178 15.7668 18.0194 15.8415C17.87 15.9162 17.702 15.9535 17.5154 15.9535C17.3474 15.9535 17.184 15.9162 17.0254 15.8415C16.8667 15.7668 16.7874 15.6455 16.7874 15.4775V11.9775C16.7874 11.6788 16.7267 11.4222 16.6054 11.2075C16.484 10.9928 16.3254 10.8295 16.1294 10.7175C15.9334 10.5962 15.7187 10.5355 15.4854 10.5355C15.2707 10.5355 15.0607 10.5915 14.8554 10.7035C14.6594 10.8155 14.496 10.9788 14.3654 11.1935C14.244 11.4082 14.1834 11.6742 14.1834 11.9915V15.4635C14.1834 15.5848 14.1087 15.6968 13.9594 15.7995C13.8194 15.9022 13.6467 15.9535 13.4414 15.9535ZM26.8246 16.0655C26.1899 16.0655 25.6299 15.9488 25.1446 15.7155C24.6593 15.4822 24.2766 15.1602 23.9966 14.7495C23.7166 14.3295 23.5766 13.8395 23.5766 13.2795V11.9495C23.5766 11.4548 23.7073 11.0022 23.9686 10.5915C24.2393 10.1808 24.5939 9.85416 25.0326 9.61149C25.4713 9.35949 25.9566 9.23349 26.4886 9.23349C26.9926 9.23349 27.4546 9.34549 27.8746 9.56949C28.2946 9.78416 28.6306 10.0875 28.8826 10.4795C29.1439 10.8715 29.2746 11.3195 29.2746 11.8235C29.2746 12.2155 29.2139 12.4955 29.0926 12.6635C28.9713 12.8315 28.8126 12.9342 28.6166 12.9715C28.4206 13.0088 28.2153 13.0275 28.0006 13.0275H25.0466V13.3495C25.0466 13.8162 25.2146 14.1895 25.5506 14.4695C25.8959 14.7402 26.3346 14.8755 26.8666 14.8755C27.1933 14.8755 27.4593 14.8288 27.6646 14.7355C27.8699 14.6422 28.0426 14.5535 28.1826 14.4695C28.3226 14.3855 28.4533 14.3435 28.5746 14.3435C28.6959 14.3435 28.7986 14.3808 28.8826 14.4555C28.9666 14.5302 29.0319 14.6188 29.0786 14.7215C29.1253 14.8242 29.1486 14.9175 29.1486 15.0015C29.1486 15.1415 29.0506 15.2955 28.8546 15.4635C28.6679 15.6315 28.4019 15.7762 28.0566 15.8975C27.7113 16.0095 27.3006 16.0655 26.8246 16.0655ZM25.0466 12.1175H27.3706C27.5759 12.1175 27.7113 12.0895 27.7766 12.0335C27.8513 11.9775 27.8886 11.8655 27.8886 11.6975C27.8886 11.4548 27.8279 11.2308 27.7066 11.0255C27.5853 10.8108 27.4173 10.6475 27.2026 10.5355C26.9879 10.4142 26.7453 10.3535 26.4746 10.3535C26.2133 10.3535 25.9753 10.4095 25.7606 10.5215C25.5459 10.6335 25.3733 10.7875 25.2426 10.9835C25.1119 11.1795 25.0466 11.4082 25.0466 11.6695V12.1175Z" fill="#FFD82D"/>
<rect x="24.3848" y="31.4535" width="64" height="8" fill="#FFD82D"/>
<rect x="2.27051" y="22.9535" width="23" height="25" rx="11.5" fill="#FFD82D"/>
<path d="M14.0467 41.4535C13.86 41.4535 13.6874 41.4115 13.5287 41.3275C13.3794 41.2435 13.3047 41.1222 13.3047 40.9635V33.1795L12.8147 33.7955C12.7587 33.8422 12.7027 33.8795 12.6467 33.9075C12.6 33.9262 12.5534 33.9355 12.5067 33.9355C12.3574 33.9355 12.236 33.8748 12.1427 33.7535C12.0494 33.6228 12.0027 33.4828 12.0027 33.3335C12.0027 33.2215 12.0307 33.1142 12.0867 33.0115C12.1427 32.9088 12.2127 32.8248 12.2967 32.7595L13.7527 31.3595C13.7994 31.3128 13.8507 31.2755 13.9067 31.2475C13.972 31.2195 14.0467 31.2055 14.1307 31.2055C14.2894 31.2055 14.4387 31.2475 14.5787 31.3315C14.7187 31.4155 14.7887 31.5368 14.7887 31.6955V40.9635C14.7887 41.1222 14.7094 41.2435 14.5507 41.3275C14.4014 41.4115 14.2334 41.4535 14.0467 41.4535Z" fill="black"/>
<path d="M77.3555 16.0655C76.6835 16.0655 76.1281 15.9442 75.6895 15.7015C75.2601 15.4588 74.9428 15.1275 74.7375 14.7075C74.5321 14.2875 74.4295 13.8115 74.4295 13.2795V12.0195C74.4295 11.4968 74.5321 11.0255 74.7375 10.6055C74.9428 10.1762 75.2601 9.84016 75.6895 9.59749C76.1188 9.35482 76.6648 9.23349 77.3275 9.23349C77.7568 9.23349 78.1301 9.28482 78.4475 9.38749C78.7741 9.49016 79.0261 9.62082 79.2035 9.77949C79.3901 9.92882 79.4835 10.0875 79.4835 10.2555C79.4835 10.3395 79.4555 10.4422 79.3995 10.5635C79.3528 10.6755 79.2828 10.7735 79.1895 10.8575C79.1055 10.9322 79.0028 10.9695 78.8815 10.9695C78.7881 10.9695 78.6855 10.9322 78.5735 10.8575C78.4708 10.7828 78.3308 10.7128 78.1535 10.6475C77.9761 10.5728 77.7381 10.5355 77.4395 10.5355C76.9168 10.5355 76.5295 10.6662 76.2775 10.9275C76.0255 11.1888 75.8995 11.5528 75.8995 12.0195V13.2795C75.8995 13.7462 76.0255 14.1102 76.2775 14.3715C76.5295 14.6328 76.9215 14.7635 77.4535 14.7635C77.7615 14.7635 78.0041 14.7262 78.1815 14.6515C78.3588 14.5675 78.4988 14.4882 78.6015 14.4135C78.7135 14.3388 78.8208 14.3015 78.9235 14.3015C79.0541 14.3015 79.1661 14.3388 79.2595 14.4135C79.3621 14.4882 79.4368 14.5815 79.4835 14.6935C79.5395 14.8055 79.5675 14.9082 79.5675 15.0015C79.5675 15.1602 79.4695 15.3235 79.2735 15.4915C79.0868 15.6595 78.8255 15.7995 78.4895 15.9115C78.1628 16.0142 77.7848 16.0655 77.3555 16.0655ZM83.1644 16.0655C82.6604 16.0655 82.189 15.9348 81.7504 15.6735C81.3117 15.4122 80.957 15.0715 80.6864 14.6515C80.425 14.2222 80.2944 13.7648 80.2944 13.2795V11.9915C80.2944 11.4968 80.4204 11.0395 80.6724 10.6195C80.9337 10.1995 81.2837 9.86349 81.7224 9.61149C82.1704 9.35949 82.6557 9.23349 83.1784 9.23349C83.701 9.23349 84.1817 9.35949 84.6204 9.61149C85.059 9.85416 85.409 10.1855 85.6704 10.6055C85.941 11.0162 86.0764 11.4782 86.0764 11.9915V13.2795C86.0764 13.7555 85.941 14.2082 85.6704 14.6375C85.409 15.0668 85.0544 15.4122 84.6064 15.6735C84.1677 15.9348 83.687 16.0655 83.1644 16.0655ZM83.1784 14.7635C83.4397 14.7635 83.6777 14.6935 83.8924 14.5535C84.107 14.4135 84.2797 14.2315 84.4104 14.0075C84.541 13.7742 84.6064 13.5315 84.6064 13.2795V11.9915C84.6064 11.7488 84.541 11.5155 84.4104 11.2915C84.2797 11.0675 84.107 10.8855 83.8924 10.7455C83.6777 10.6055 83.4397 10.5355 83.1784 10.5355C82.9077 10.5355 82.665 10.6055 82.4504 10.7455C82.245 10.8855 82.077 11.0675 81.9464 11.2915C81.825 11.5155 81.7644 11.7488 81.7644 11.9915V13.2795C81.7644 13.5315 81.825 13.7742 81.9464 14.0075C82.077 14.2315 82.2497 14.4135 82.4644 14.5535C82.679 14.6935 82.917 14.7635 83.1784 14.7635ZM88.083 15.9535C87.8683 15.9535 87.691 15.9022 87.551 15.7995C87.4203 15.6968 87.355 15.5848 87.355 15.4635V9.79349C87.355 9.65349 87.4203 9.54149 87.551 9.45749C87.691 9.36416 87.8683 9.31749 88.083 9.31749C88.2603 9.31749 88.4143 9.36416 88.545 9.45749C88.6756 9.54149 88.741 9.65349 88.741 9.79349V10.2975C88.8996 10.0268 89.133 9.78416 89.441 9.56949C89.749 9.34549 90.1363 9.23349 90.603 9.23349C91.023 9.23349 91.3916 9.36416 91.709 9.62549C92.0356 9.88682 92.2783 10.2228 92.437 10.6335C92.6796 10.1575 92.9923 9.80749 93.375 9.58349C93.7576 9.35016 94.1496 9.23349 94.551 9.23349C94.971 9.23349 95.363 9.34082 95.727 9.55549C96.1003 9.77016 96.4036 10.0828 96.637 10.4935C96.8703 10.9042 96.987 11.4035 96.987 11.9915V15.4635C96.987 15.5848 96.9123 15.6968 96.763 15.7995C96.623 15.9022 96.4503 15.9535 96.245 15.9535C96.049 15.9535 95.8763 15.9022 95.727 15.7995C95.587 15.6968 95.517 15.5848 95.517 15.4635V11.9915C95.517 11.6742 95.4516 11.4082 95.321 11.1935C95.1996 10.9695 95.0363 10.8015 94.831 10.6895C94.635 10.5775 94.4296 10.5215 94.215 10.5215C93.991 10.5215 93.781 10.5822 93.585 10.7035C93.389 10.8155 93.2256 10.9788 93.095 11.1935C92.9643 11.3988 92.899 11.6555 92.899 11.9635V15.4775C92.899 15.6455 92.8196 15.7668 92.661 15.8415C92.5116 15.9162 92.3436 15.9535 92.157 15.9535C91.989 15.9535 91.8256 15.9162 91.667 15.8415C91.5083 15.7668 91.429 15.6455 91.429 15.4775V11.9775C91.429 11.6788 91.3683 11.4222 91.247 11.2075C91.1256 10.9928 90.967 10.8295 90.771 10.7175C90.575 10.5962 90.3603 10.5355 90.127 10.5355C89.9123 10.5355 89.7023 10.5915 89.497 10.7035C89.301 10.8155 89.1376 10.9788 89.007 11.1935C88.8856 11.4082 88.825 11.6742 88.825 11.9915V15.4635C88.825 15.5848 88.7503 15.6968 88.601 15.7995C88.461 15.9022 88.2883 15.9535 88.083 15.9535ZM99.1982 19.1035C98.9929 19.1035 98.8202 19.0522 98.6802 18.9495C98.5495 18.8468 98.4842 18.7348 98.4842 18.6135V9.79349C98.4842 9.65349 98.5495 9.54149 98.6802 9.45749C98.8202 9.36416 98.9882 9.31749 99.1842 9.31749C99.3802 9.31749 99.5435 9.36416 99.6742 9.45749C99.8049 9.54149 99.8702 9.65349 99.8702 9.79349V10.2975C100.029 10.0268 100.267 9.78416 100.584 9.56949C100.911 9.34549 101.298 9.23349 101.746 9.23349C102.213 9.23349 102.638 9.35949 103.02 9.61149C103.403 9.85416 103.706 10.1855 103.93 10.6055C104.154 11.0162 104.266 11.4782 104.266 11.9915V13.2795C104.266 13.7648 104.15 14.2222 103.916 14.6515C103.692 15.0715 103.394 15.4122 103.02 15.6735C102.647 15.9348 102.241 16.0655 101.802 16.0655C101.382 16.0655 101.004 15.9582 100.668 15.7435C100.332 15.5195 100.094 15.2628 99.9542 14.9735V18.6135C99.9542 18.7348 99.8795 18.8468 99.7302 18.9495C99.5902 19.0522 99.4129 19.1035 99.1982 19.1035ZM101.368 14.7635C101.62 14.7635 101.854 14.6935 102.068 14.5535C102.283 14.4135 102.456 14.2268 102.586 13.9935C102.726 13.7602 102.796 13.5222 102.796 13.2795V11.9915C102.796 11.7488 102.731 11.5155 102.6 11.2915C102.47 11.0675 102.292 10.8855 102.068 10.7455C101.854 10.6055 101.611 10.5355 101.34 10.5355C101.116 10.5355 100.897 10.5962 100.682 10.7175C100.468 10.8295 100.29 10.9928 100.15 11.2075C100.02 11.4222 99.9542 11.6835 99.9542 11.9915V13.6015C99.9542 13.7135 100.015 13.8628 100.136 14.0495C100.258 14.2268 100.426 14.3902 100.64 14.5395C100.855 14.6888 101.098 14.7635 101.368 14.7635ZM106.406 15.9535C106.192 15.9535 106.014 15.9022 105.874 15.7995C105.744 15.6968 105.678 15.5848 105.678 15.4635V5.84549C105.678 5.70549 105.744 5.59349 105.874 5.50949C106.014 5.41616 106.192 5.36949 106.406 5.36949C106.612 5.36949 106.784 5.41616 106.924 5.50949C107.074 5.59349 107.148 5.70549 107.148 5.84549V15.4635C107.148 15.5848 107.074 15.6968 106.924 15.7995C106.784 15.9022 106.612 15.9535 106.406 15.9535ZM109.534 7.65149C109.301 7.65149 109.1 7.57216 108.932 7.41349C108.764 7.25482 108.68 7.07749 108.68 6.88149C108.68 6.66682 108.764 6.48482 108.932 6.33549C109.1 6.18616 109.301 6.11149 109.534 6.11149C109.767 6.11149 109.963 6.18616 110.122 6.33549C110.29 6.48482 110.374 6.66682 110.374 6.88149C110.374 7.07749 110.29 7.25482 110.122 7.41349C109.963 7.57216 109.767 7.65149 109.534 7.65149ZM109.534 15.9535C109.319 15.9535 109.142 15.9022 109.002 15.7995C108.871 15.6968 108.806 15.5848 108.806 15.4635V9.79349C108.806 9.65349 108.871 9.54149 109.002 9.45749C109.142 9.36416 109.319 9.31749 109.534 9.31749C109.739 9.31749 109.912 9.36416 110.052 9.45749C110.201 9.54149 110.276 9.65349 110.276 9.79349V15.4635C110.276 15.5848 110.201 15.6968 110.052 15.7995C109.912 15.9022 109.739 15.9535 109.534 15.9535ZM114.488 16.0655C113.816 16.0655 113.261 15.9442 112.822 15.7015C112.393 15.4588 112.076 15.1275 111.87 14.7075C111.665 14.2875 111.562 13.8115 111.562 13.2795V12.0195C111.562 11.4968 111.665 11.0255 111.87 10.6055C112.076 10.1762 112.393 9.84016 112.822 9.59749C113.252 9.35482 113.798 9.23349 114.46 9.23349C114.89 9.23349 115.263 9.28482 115.58 9.38749C115.907 9.49016 116.159 9.62082 116.336 9.77949C116.523 9.92882 116.616 10.0875 116.616 10.2555C116.616 10.3395 116.588 10.4422 116.532 10.5635C116.486 10.6755 116.416 10.7735 116.322 10.8575C116.238 10.9322 116.136 10.9695 116.014 10.9695C115.921 10.9695 115.818 10.9322 115.706 10.8575C115.604 10.7828 115.464 10.7128 115.286 10.6475C115.109 10.5728 114.871 10.5355 114.572 10.5355C114.05 10.5355 113.662 10.6662 113.41 10.9275C113.158 11.1888 113.032 11.5528 113.032 12.0195V13.2795C113.032 13.7462 113.158 14.1102 113.41 14.3715C113.662 14.6328 114.054 14.7635 114.586 14.7635C114.894 14.7635 115.137 14.7262 115.314 14.6515C115.492 14.5675 115.632 14.4882 115.734 14.4135C115.846 14.3388 115.954 14.3015 116.056 14.3015C116.187 14.3015 116.299 14.3388 116.392 14.4135C116.495 14.4882 116.57 14.5815 116.616 14.6935C116.672 14.8055 116.7 14.9082 116.7 15.0015C116.7 15.1602 116.602 15.3235 116.406 15.4915C116.22 15.6595 115.958 15.7995 115.622 15.9115C115.296 16.0142 114.918 16.0655 114.488 16.0655ZM120.675 16.0655C120.041 16.0655 119.481 15.9488 118.995 15.7155C118.51 15.4822 118.127 15.1602 117.847 14.7495C117.567 14.3295 117.427 13.8395 117.427 13.2795V11.9495C117.427 11.4548 117.558 11.0022 117.819 10.5915C118.09 10.1808 118.445 9.85416 118.883 9.61149C119.322 9.35949 119.807 9.23349 120.339 9.23349C120.843 9.23349 121.305 9.34549 121.725 9.56949C122.145 9.78416 122.481 10.0875 122.733 10.4795C122.995 10.8715 123.125 11.3195 123.125 11.8235C123.125 12.2155 123.065 12.4955 122.943 12.6635C122.822 12.8315 122.663 12.9342 122.467 12.9715C122.271 13.0088 122.066 13.0275 121.851 13.0275H118.897V13.3495C118.897 13.8162 119.065 14.1895 119.401 14.4695C119.747 14.7402 120.185 14.8755 120.717 14.8755C121.044 14.8755 121.31 14.8288 121.515 14.7355C121.721 14.6422 121.893 14.5535 122.033 14.4695C122.173 14.3855 122.304 14.3435 122.425 14.3435C122.547 14.3435 122.649 14.3808 122.733 14.4555C122.817 14.5302 122.883 14.6188 122.929 14.7215C122.976 14.8242 122.999 14.9175 122.999 15.0015C122.999 15.1415 122.901 15.2955 122.705 15.4635C122.519 15.6315 122.253 15.7762 121.907 15.8975C121.562 16.0095 121.151 16.0655 120.675 16.0655ZM118.897 12.1175H121.221C121.427 12.1175 121.562 12.0895 121.627 12.0335C121.702 11.9775 121.739 11.8655 121.739 11.6975C121.739 11.4548 121.679 11.2308 121.557 11.0255C121.436 10.8108 121.268 10.6475 121.053 10.5355C120.839 10.4142 120.596 10.3535 120.325 10.3535C120.064 10.3535 119.826 10.4095 119.611 10.5215C119.397 10.6335 119.224 10.7875 119.093 10.9835C118.963 11.1795 118.897 11.4082 118.897 11.6695V12.1175Z" fill="#FFD82D"/>
<rect x="83.7461" y="22.9535" width="23" height="25" rx="11.5" fill="#FFD82D"/>
<path d="M92.8515 41.4535C92.7208 41.4535 92.5762 41.4115 92.4175 41.3275C92.2682 41.2342 92.1935 41.1128 92.1935 40.9635V39.6055C92.1935 39.2228 92.3008 38.8728 92.5155 38.5555C92.7395 38.2288 93.0242 37.9208 93.3695 37.6315C93.7242 37.3422 94.0975 37.0622 94.4895 36.7915C94.8815 36.5115 95.2502 36.2315 95.5955 35.9515C95.9408 35.6622 96.2255 35.3635 96.4495 35.0555C96.6735 34.7475 96.7855 34.4115 96.7855 34.0475C96.7855 33.8142 96.7295 33.5855 96.6175 33.3615C96.5148 33.1375 96.3515 32.9508 96.1275 32.8015C95.9035 32.6522 95.6142 32.5775 95.2595 32.5775C94.8675 32.5775 94.5315 32.6895 94.2515 32.9135C93.9808 33.1375 93.8455 33.4875 93.8455 33.9635C93.8455 34.1035 93.7755 34.2342 93.6355 34.3555C93.5048 34.4675 93.3182 34.5235 93.0755 34.5235C92.8702 34.5235 92.7068 34.4675 92.5855 34.3555C92.4642 34.2342 92.4035 34.0148 92.4035 33.6975C92.4035 33.1935 92.5342 32.7595 92.7955 32.3955C93.0568 32.0222 93.4068 31.7328 93.8455 31.5275C94.2842 31.3222 94.7555 31.2195 95.2595 31.2195C95.8008 31.2195 96.3002 31.3362 96.7575 31.5695C97.2148 31.8028 97.5788 32.1295 97.8495 32.5495C98.1295 32.9602 98.2695 33.4455 98.2695 34.0055C98.2695 34.5002 98.1575 34.9482 97.9335 35.3495C97.7188 35.7508 97.4388 36.1148 97.0935 36.4415C96.7482 36.7682 96.3795 37.0668 95.9875 37.3375C95.6048 37.6082 95.2408 37.8648 94.8955 38.1075C94.5595 38.3502 94.2795 38.5928 94.0555 38.8355C93.8408 39.0782 93.7335 39.3348 93.7335 39.6055V40.1375H97.8355C97.9662 40.1375 98.0782 40.2028 98.1715 40.3335C98.2742 40.4548 98.3255 40.6042 98.3255 40.7815C98.3255 40.9588 98.2742 41.1175 98.1715 41.2575C98.0782 41.3882 97.9662 41.4535 97.8355 41.4535H92.8515Z" fill="black"/>
<rect x="105.86" y="31.4535" width="71" height="8" fill="#FFD82D"/>
<path d="M174.828 15.9535C174.034 15.9535 173.428 15.7808 173.008 15.4355C172.588 15.0808 172.378 14.5255 172.378 13.7695V6.75549C172.378 6.61549 172.452 6.50349 172.602 6.41949C172.76 6.32616 172.928 6.27949 173.106 6.27949C173.283 6.27949 173.451 6.32616 173.61 6.41949C173.768 6.50349 173.848 6.61549 173.848 6.75549V9.31749H175.556C175.686 9.31749 175.784 9.37349 175.85 9.48549C175.924 9.59749 175.962 9.72349 175.962 9.86349C175.962 10.0035 175.924 10.1295 175.85 10.2415C175.784 10.3535 175.686 10.4095 175.556 10.4095H173.848V13.7695C173.848 14.1055 173.918 14.3435 174.058 14.4835C174.207 14.6235 174.464 14.6935 174.828 14.6935H175.304C175.518 14.6935 175.677 14.7588 175.78 14.8895C175.892 15.0108 175.948 15.1555 175.948 15.3235C175.948 15.4822 175.892 15.6268 175.78 15.7575C175.677 15.8882 175.518 15.9535 175.304 15.9535H174.828ZM179.8 16.0655C179.277 16.0655 178.792 15.9395 178.344 15.6875C177.905 15.4262 177.555 15.0855 177.294 14.6655C177.033 14.2362 176.902 13.7835 176.902 13.3075V9.80749C176.902 9.68616 176.972 9.57416 177.112 9.47149C177.261 9.36882 177.439 9.31749 177.644 9.31749C177.84 9.31749 178.008 9.36882 178.148 9.47149C178.297 9.57416 178.372 9.68616 178.372 9.80749V13.3075C178.372 13.5502 178.433 13.7835 178.554 14.0075C178.685 14.2315 178.857 14.4135 179.072 14.5535C179.296 14.6935 179.539 14.7635 179.8 14.7635C180.061 14.7635 180.299 14.6935 180.514 14.5535C180.729 14.4135 180.897 14.2315 181.018 14.0075C181.149 13.7835 181.214 13.5502 181.214 13.3075V9.79349C181.214 9.66282 181.289 9.55082 181.438 9.45749C181.597 9.36416 181.769 9.31749 181.956 9.31749C182.171 9.31749 182.343 9.36416 182.474 9.45749C182.614 9.55082 182.684 9.66282 182.684 9.79349V13.3075C182.684 13.8022 182.553 14.2595 182.292 14.6795C182.031 15.0995 181.681 15.4355 181.242 15.6875C180.803 15.9395 180.323 16.0655 179.8 16.0655ZM187.146 16.0655C186.511 16.0655 185.951 15.9488 185.466 15.7155C184.981 15.4822 184.598 15.1602 184.318 14.7495C184.038 14.3295 183.898 13.8395 183.898 13.2795V11.9495C183.898 11.4548 184.029 11.0022 184.29 10.5915C184.561 10.1808 184.915 9.85416 185.354 9.61149C185.793 9.35949 186.278 9.23349 186.81 9.23349C187.314 9.23349 187.776 9.34549 188.196 9.56949C188.616 9.78416 188.952 10.0875 189.204 10.4795C189.465 10.8715 189.596 11.3195 189.596 11.8235C189.596 12.2155 189.535 12.4955 189.414 12.6635C189.293 12.8315 189.134 12.9342 188.938 12.9715C188.742 13.0088 188.537 13.0275 188.322 13.0275H185.368V13.3495C185.368 13.8162 185.536 14.1895 185.872 14.4695C186.217 14.7402 186.656 14.8755 187.188 14.8755C187.515 14.8755 187.781 14.8288 187.986 14.7355C188.191 14.6422 188.364 14.5535 188.504 14.4695C188.644 14.3855 188.775 14.3435 188.896 14.3435C189.017 14.3435 189.12 14.3808 189.204 14.4555C189.288 14.5302 189.353 14.6188 189.4 14.7215C189.447 14.8242 189.47 14.9175 189.47 15.0015C189.47 15.1415 189.372 15.2955 189.176 15.4635C188.989 15.6315 188.723 15.7762 188.378 15.8975C188.033 16.0095 187.622 16.0655 187.146 16.0655ZM185.368 12.1175H187.692C187.897 12.1175 188.033 12.0895 188.098 12.0335C188.173 11.9775 188.21 11.8655 188.21 11.6975C188.21 11.4548 188.149 11.2308 188.028 11.0255C187.907 10.8108 187.739 10.6475 187.524 10.5355C187.309 10.4142 187.067 10.3535 186.796 10.3535C186.535 10.3535 186.297 10.4095 186.082 10.5215C185.867 10.6335 185.695 10.7875 185.564 10.9835C185.433 11.1795 185.368 11.4082 185.368 11.6695V12.1175ZM193.622 16.0655C193.1 16.0655 192.614 15.9395 192.166 15.6875C191.728 15.4262 191.378 15.0855 191.116 14.6655C190.855 14.2362 190.724 13.7835 190.724 13.3075V9.80749C190.724 9.68616 190.794 9.57416 190.934 9.47149C191.084 9.36882 191.261 9.31749 191.466 9.31749C191.662 9.31749 191.83 9.36882 191.97 9.47149C192.12 9.57416 192.194 9.68616 192.194 9.80749V13.3075C192.194 13.5502 192.255 13.7835 192.376 14.0075C192.507 14.2315 192.68 14.4135 192.894 14.5535C193.118 14.6935 193.361 14.7635 193.622 14.7635C193.884 14.7635 194.122 14.6935 194.336 14.5535C194.551 14.4135 194.719 14.2315 194.84 14.0075C194.971 13.7835 195.036 13.5502 195.036 13.3075V9.79349C195.036 9.66282 195.111 9.55082 195.26 9.45749C195.419 9.36416 195.592 9.31749 195.778 9.31749C195.993 9.31749 196.166 9.36416 196.296 9.45749C196.436 9.55082 196.506 9.66282 196.506 9.79349V13.3075C196.506 13.8022 196.376 14.2595 196.114 14.6795C195.853 15.0995 195.503 15.4355 195.064 15.6875C194.626 15.9395 194.145 16.0655 193.622 16.0655ZM198.686 15.9535C198.481 15.9535 198.308 15.9022 198.168 15.7995C198.037 15.6968 197.972 15.5848 197.972 15.4635V9.79349C197.972 9.65349 198.037 9.54149 198.168 9.45749C198.308 9.36416 198.481 9.31749 198.686 9.31749C198.873 9.31749 199.031 9.36416 199.162 9.45749C199.293 9.54149 199.358 9.65349 199.358 9.79349V10.4095C199.461 10.2135 199.596 10.0268 199.764 9.84949C199.941 9.67216 200.147 9.52749 200.38 9.41549C200.613 9.29416 200.865 9.23349 201.136 9.23349H201.584C201.733 9.23349 201.864 9.29882 201.976 9.42949C202.088 9.55082 202.144 9.70016 202.144 9.87749C202.144 10.0548 202.088 10.2088 201.976 10.3395C201.864 10.4702 201.733 10.5355 201.584 10.5355H201.136C200.856 10.5355 200.585 10.6195 200.324 10.7875C200.063 10.9555 199.848 11.1935 199.68 11.5015C199.521 11.8002 199.442 12.1642 199.442 12.5935V15.4635C199.442 15.5848 199.367 15.6968 199.218 15.7995C199.078 15.9022 198.901 15.9535 198.686 15.9535Z" fill="#FFD82D"/>
<rect x="173.406" y="22.9535" width="23" height="25" rx="11.5" fill="#FFD82D"/>
<path d="M184.761 41.5375C184.22 41.5375 183.753 41.4628 183.361 41.3135C182.969 41.1642 182.647 40.9682 182.395 40.7255C182.143 40.4828 181.956 40.2168 181.835 39.9275C181.723 39.6382 181.667 39.3535 181.667 39.0735C181.667 38.8215 181.718 38.6535 181.821 38.5695C181.933 38.4855 182.115 38.4435 182.367 38.4435C182.666 38.4435 182.866 38.4902 182.969 38.5835C183.072 38.6675 183.123 38.8075 183.123 39.0035C183.123 39.1528 183.156 39.3022 183.221 39.4515C183.296 39.5915 183.398 39.7222 183.529 39.8435C183.66 39.9555 183.828 40.0488 184.033 40.1235C184.248 40.1888 184.495 40.2215 184.775 40.2215C185.354 40.2215 185.778 40.0862 186.049 39.8155C186.329 39.5355 186.469 39.0922 186.469 38.4855V38.2195C186.469 37.6595 186.31 37.2675 185.993 37.0435C185.685 36.8102 185.279 36.6935 184.775 36.6935C184.598 36.6935 184.472 36.6328 184.397 36.5115C184.322 36.3808 184.285 36.2455 184.285 36.1055C184.285 35.9468 184.322 35.8068 184.397 35.6855C184.472 35.5642 184.593 35.5035 184.761 35.5035C185.05 35.5035 185.302 35.4662 185.517 35.3915C185.741 35.3075 185.914 35.1535 186.035 34.9295C186.156 34.7055 186.217 34.3835 186.217 33.9635C186.217 33.4502 186.096 33.0815 185.853 32.8575C185.62 32.6335 185.274 32.5215 184.817 32.5215C184.537 32.5215 184.304 32.5542 184.117 32.6195C183.93 32.6848 183.781 32.7735 183.669 32.8855C183.557 32.9975 183.478 33.1188 183.431 33.2495C183.384 33.3802 183.361 33.5202 183.361 33.6695C183.361 33.8468 183.31 33.9915 183.207 34.1035C183.114 34.2155 182.932 34.2715 182.661 34.2715C182.446 34.2715 182.283 34.2528 182.171 34.2155C182.059 34.1782 181.984 34.1082 181.947 34.0055C181.91 33.9028 181.891 33.7628 181.891 33.5855C181.891 33.3615 181.938 33.1142 182.031 32.8435C182.124 32.5635 182.278 32.3022 182.493 32.0595C182.717 31.8075 183.02 31.6068 183.403 31.4575C183.786 31.2988 184.262 31.2195 184.831 31.2195C185.382 31.2195 185.867 31.2988 186.287 31.4575C186.707 31.6162 187.038 31.8775 187.281 32.2415C187.524 32.6055 187.645 33.0955 187.645 33.7115C187.645 34.2995 187.542 34.7988 187.337 35.2095C187.141 35.6108 186.87 35.8908 186.525 36.0495C186.936 36.2082 187.276 36.4602 187.547 36.8055C187.818 37.1508 187.953 37.6222 187.953 38.2195V38.4855C187.953 39.2228 187.808 39.8155 187.519 40.2635C187.239 40.7115 186.856 41.0382 186.371 41.2435C185.886 41.4395 185.349 41.5375 184.761 41.5375Z" fill="black"/>
<rect x="195.521" y="31.4535" width="75" height="8" fill="#FFD82D"/>
<path d="M272.43 15.9535C272.225 15.9535 272.052 15.9115 271.912 15.8275C271.781 15.7342 271.716 15.6175 271.716 15.4775V8.29549C271.716 7.78216 271.842 7.30149 272.094 6.85349C272.355 6.40549 272.729 6.04616 273.214 5.77549C273.699 5.50482 274.283 5.36949 274.964 5.36949C275.337 5.36949 275.701 5.41149 276.056 5.49549C276.411 5.57016 276.7 5.68216 276.924 5.83149C277.148 5.97149 277.26 6.13482 277.26 6.32149C277.26 6.38682 277.241 6.48949 277.204 6.62949C277.167 6.76016 277.106 6.88149 277.022 6.99349C276.947 7.10549 276.849 7.16149 276.728 7.16149C276.625 7.16149 276.509 7.11949 276.378 7.03549C276.257 6.94216 276.089 6.85349 275.874 6.76949C275.659 6.67616 275.361 6.62949 274.978 6.62949C274.679 6.62949 274.413 6.67149 274.18 6.75549C273.956 6.83949 273.769 6.95616 273.62 7.10549C273.471 7.24549 273.359 7.41349 273.284 7.60949C273.219 7.79616 273.186 8.00149 273.186 8.22549V9.31749H274.74C274.88 9.31749 274.983 9.37349 275.048 9.48549C275.123 9.59749 275.16 9.72349 275.16 9.86349C275.16 10.0035 275.123 10.1295 275.048 10.2415C274.983 10.3535 274.88 10.4095 274.74 10.4095H273.186V15.4775C273.186 15.6175 273.111 15.7342 272.962 15.8275C272.813 15.9115 272.635 15.9535 272.43 15.9535ZM277.036 15.9535C276.831 15.9535 276.658 15.9022 276.518 15.7995C276.378 15.6968 276.308 15.5848 276.308 15.4635V9.79349C276.308 9.65349 276.378 9.54149 276.518 9.45749C276.658 9.36416 276.831 9.31749 277.036 9.31749C277.241 9.31749 277.414 9.36416 277.554 9.45749C277.703 9.54149 277.778 9.65349 277.778 9.79349V15.4635C277.778 15.5848 277.703 15.6968 277.554 15.7995C277.414 15.9022 277.241 15.9535 277.036 15.9535ZM280.031 15.9535C279.817 15.9535 279.639 15.9022 279.499 15.7995C279.369 15.6968 279.303 15.5848 279.303 15.4635V9.79349C279.303 9.65349 279.369 9.54149 279.499 9.45749C279.639 9.36416 279.817 9.31749 280.031 9.31749C280.209 9.31749 280.363 9.36416 280.493 9.45749C280.624 9.54149 280.689 9.65349 280.689 9.79349V10.2975C280.829 10.0268 281.058 9.78416 281.375 9.56949C281.702 9.34549 282.099 9.23349 282.565 9.23349C283.004 9.23349 283.405 9.35949 283.769 9.61149C284.143 9.85416 284.441 10.1855 284.665 10.6055C284.889 11.0162 285.001 11.4782 285.001 11.9915V15.4635C285.001 15.6222 284.922 15.7435 284.763 15.8275C284.614 15.9115 284.446 15.9535 284.259 15.9535C284.091 15.9535 283.928 15.9115 283.769 15.8275C283.611 15.7435 283.531 15.6222 283.531 15.4635V11.9915C283.531 11.7488 283.466 11.5155 283.335 11.2915C283.214 11.0675 283.046 10.8855 282.831 10.7455C282.617 10.6055 282.379 10.5355 282.117 10.5355C281.893 10.5355 281.679 10.5962 281.473 10.7175C281.268 10.8295 281.1 10.9928 280.969 11.2075C280.839 11.4222 280.773 11.6835 280.773 11.9915V15.4635C280.773 15.5848 280.699 15.6968 280.549 15.7995C280.409 15.9022 280.237 15.9535 280.031 15.9535Z" fill="#FFD82D"/>
<rect x="266.897" y="23.4363" width="23" height="25" rx="11.5" fill="#FFD82D"/>
<path d="M279.753 41.9363C279.566 41.9363 279.393 41.8943 279.235 41.8103C279.085 41.7263 279.011 41.605 279.011 41.4463V39.6403H275.581C275.422 39.6403 275.296 39.5937 275.203 39.5003C275.109 39.3977 275.063 39.2623 275.063 39.0943C275.063 39.0477 275.067 38.9963 275.077 38.9403C275.095 38.8843 275.119 38.833 275.147 38.7863L278.521 32.1083C278.605 31.959 278.703 31.8563 278.815 31.8003C278.936 31.735 279.057 31.7023 279.179 31.7023C279.272 31.7023 279.375 31.7257 279.487 31.7723C279.599 31.819 279.697 31.8843 279.781 31.9683C279.865 32.0523 279.907 32.155 279.907 32.2763C279.907 32.3323 279.888 32.407 279.851 32.5003L276.953 38.2543H279.011V36.3223C279.011 36.145 279.085 36.019 279.235 35.9443C279.393 35.8697 279.566 35.8323 279.753 35.8323C279.939 35.8323 280.107 35.8697 280.257 35.9443C280.415 36.019 280.495 36.145 280.495 36.3223V38.2543H281.195C281.363 38.2543 281.484 38.329 281.559 38.4783C281.643 38.6183 281.685 38.777 281.685 38.9543C281.685 39.1223 281.633 39.281 281.531 39.4303C281.437 39.5703 281.325 39.6403 281.195 39.6403H280.495V41.4463C280.495 41.605 280.415 41.7263 280.257 41.8103C280.107 41.8943 279.939 41.9363 279.753 41.9363Z" fill="black"/>
</svg>
