<svg width="100" height="120" viewBox="0 0 100 120" fill="none" xmlns="http://www.w3.org/2000/svg">
<g filter="url(#filter0_d_298_1839)">
<path d="M44.1393 80.3934L43.0237 78.1561C42.9015 77.9798 42.9127 77.2188 42.9281 76.1847C42.9755 72.9852 43.0616 67.1717 39.3512 67.9765C37.4114 68.3972 36.5556 69.411 36.3304 70.6369C36.1888 71.4078 36.2966 72.2627 36.5412 73.1068C36.892 74.3175 37.5241 75.506 38.1049 76.3926C38.3434 76.7566 38.5072 76.9399 38.6816 77.1349C38.9669 77.4539 39.2804 77.8045 39.9948 79.0297C40.12 79.2443 40.9651 80.5229 41.3951 80.8974C41.9176 81.6405 42.4196 82.4748 42.623 83.5267C43.0267 85.6154 43.9037 87.9886 45.6249 89.3795C49.054 92.1506 55.5083 87.9355 55.9812 86.7843C57.1837 83.857 56.2784 81.1933 54.4389 79.2338C54.3059 79.0921 54.168 78.9541 54.0257 78.8199C54.0855 78.956 54.1454 79.1019 54.2041 79.2558C55.0264 81.41 55.6234 85.1405 52.411 85.724C50.0041 86.1612 47.5655 84.3765 45.864 82.5669C45.1324 81.7888 44.5371 81.006 44.1393 80.3934Z" fill="#4F2A12"/>
<path d="M36.3304 70.6369C34.8124 69.5095 31.1462 68.174 28.6247 71.8513C28 72.701 27.2567 75.2362 29.1794 78.6647C29.2127 78.7241 29.2468 78.7838 29.2817 78.8437C31.8453 83.2428 31.511 88.5177 28.312 91.0062C27.6581 91.4071 25.9585 91.9742 24.3916 91.035C24.9001 92.0309 26.4439 93.9279 28.5509 93.5489C30.658 93.1698 31.4324 92.4985 31.5562 92.2103C31.9262 91.9995 33.0768 91.5317 34.7192 91.3472C36.7723 91.1166 38.606 87.5115 37.7393 85.6314C37.2647 84.6019 36.343 83.8411 35.4858 83.1334C34.7775 82.5487 34.1131 82.0002 33.7815 81.3666C33.5693 80.9613 33.4839 80.469 33.4891 79.9573C33.5019 78.695 34.066 77.3148 34.6379 76.8316C35.3531 75.9848 36.7349 74.0543 36.5412 73.1068C36.2966 72.2627 36.1888 71.4078 36.3304 70.6369Z" fill="#4F2A12"/>
<path d="M58.7894 52.0333C60.1365 49.9672 62.173 47.7666 64.5502 47.5018C65.7568 47.3674 66.4952 47.8804 66.9186 48.7128C67.428 49.4194 68.4478 51.1644 68.4518 52.4919C68.7085 50.4056 68.8382 45.7635 67.3037 43.8858C67.9309 44.1609 69.1989 44.8965 69.7836 45.8292C67.8453 42.0576 64.0176 35.208 62.7995 35.2932C62.1849 34.8944 60.8808 33.7054 60.4927 32.096C61.1097 34.7853 61.9814 38.214 62.5084 40.2245L56.1687 38.5946C54.7332 39.4713 51.6181 41.2478 50.6416 41.3395C50.3577 44.5349 53.0508 46.4573 54.4328 47.019C54.9482 48.3286 54.0528 49.5318 53.5406 49.9698C49.92 54.4746 53.0944 58.3359 55.1342 59.7034C52.7375 56.0356 56.5724 53.0618 58.7894 52.0333Z" fill="#4F2A12"/>
<path d="M21.1331 65.9914C22.2699 65.8846 23.5397 62.6972 24.0324 61.1168C24.0828 59.7792 23.8777 56.2575 22.6542 52.8718C22.5628 51.8996 23.1467 51.0262 23.6625 50.3538C22.4194 50.6143 22.1093 48.2771 22.1096 47.0759L26.0778 44.7441L26.6706 44.3958C27.1116 43.9885 27.4369 43.3497 27.5728 42.9901C27.2723 42.9543 26.9907 42.9132 26.7313 42.8666L19.7937 45.9355L18.9255 47.7146L16.7941 47.9149C16.6283 49.9255 17.4066 51.1701 18.1375 52.3388C18.6504 53.1589 19.1399 53.9417 19.2635 54.9257C19.5032 56.8345 18.9859 57.5923 18.6973 57.7326C15.5318 61.6213 17.6561 64.9852 19.1139 66.1811C17.1022 62.115 20.2886 59.9471 22.1332 59.3714C22.8927 61.3521 21.7829 64.61 21.1331 65.9914Z" fill="#4F2A12"/>
<path d="M40.9194 45.7235C43.1205 45.9975 47.8066 46.6755 48.9418 47.1954C48.2491 46.0588 46.9499 43.8937 46.2468 42.6201C46.0596 42.2812 45.9147 42.0054 45.8347 41.8289L40.858 42.2588L40.868 42.8237L40.9194 45.7235Z" fill="#4F2A12"/>
<path d="M24.2229 49.8952L27.5599 48.0727C28.1962 47.0825 29.2195 44.7783 28.2227 43.4837L26.6706 44.3958C26.4906 44.562 26.2913 44.6897 26.0778 44.7441L22.1096 47.0759C22.1093 48.2771 22.4194 50.6143 23.6625 50.3538C23.8326 50.1321 24.0201 49.9666 24.2229 49.8952Z" fill="#4F2A12"/>
<path d="M56.9853 65.7538L57.035 68.6915C57.0958 69.2279 57.2333 70.0134 57.459 70.7952C57.4633 70.8103 57.4677 70.8254 57.4721 70.8405C57.6972 71.5157 59.0592 71.6742 59.7275 71.668C59.005 71.674 58.705 70.4057 58.6453 69.7705C58.9628 70.4577 60.539 70.5189 61.3101 70.4627C60.2452 70.5227 59.4823 67.7774 59.2327 66.3873C58.3569 66.5155 57.6436 66.1192 57.1106 65.8231C57.0676 65.7992 57.0259 65.776 56.9853 65.7538Z" fill="#4F2A12"/>
<path d="M42.5795 88.6848C42.1392 88.8167 41.9462 90.6431 41.9047 91.5397C42.1439 91.9448 42.6105 92.8692 42.5629 93.3263C42.5345 93.5993 42.3097 93.8908 42.0918 94.1735C41.8536 94.4823 41.6236 94.7806 41.667 95.0326C41.7501 95.5152 42.8465 97.1474 46.7155 96.9725C49.8108 96.8325 60.4089 89.2101 65.3211 85.4164C65.3123 84.8965 65.2104 84.374 65.0386 83.8585C64.8624 83.3297 64.6128 82.8082 64.3149 82.3045C63.8995 81.6022 63.3904 80.9344 62.8557 80.3291C62.3414 79.7469 61.8035 79.2224 61.3026 78.7807C60.8669 78.3966 60.4592 78.075 60.1195 77.8324C60.249 76.8017 59.8743 73.2155 59.1638 73.2823C59.0984 73.2884 59.0388 73.3225 58.9844 73.3797C58.5653 73.8207 58.4584 75.6342 58.4013 76.6029C58.3854 76.8727 58.3734 77.077 58.3595 77.1679C57.2387 77.839 54.8854 79.1918 54.4389 79.2338C56.2784 81.1933 57.1837 83.857 55.9812 86.7843C55.5083 87.9355 49.054 92.1506 45.6249 89.3795C43.9037 87.9886 43.0267 85.6154 42.623 83.5267C41.7827 83.733 41.2488 84.0976 40.9213 84.5025C40.444 85.0927 40.4049 85.7685 40.4943 86.1647C40.5403 86.9752 41.9036 88.1825 42.5795 88.6848Z" fill="#3C3C3C"/>
<path fill-rule="evenodd" clip-rule="evenodd" d="M56.8643 34.7569C59.8502 36.023 58.6753 39.1764 56.1687 38.5946L62.5084 40.2245C61.9814 38.214 61.1097 34.7853 60.4927 32.096C60.4853 32.0654 60.4782 32.0346 60.4715 32.0037C60.1124 30.4333 59.8436 29.1268 59.7868 28.5221C59.6322 26.8768 60.7658 22.0801 61.352 19.8874C61.5881 18.5198 60.4289 15.5228 53.9025 14.4762C45.7446 13.168 22.4276 13.9254 16.6219 17.9791C11.9774 21.2221 13.8177 25.0704 15.3185 26.5892C17.3826 28.885 20.7648 34.6104 17.7808 39.1459C19.228 39.0099 20.7955 38.8135 22.5032 38.5996C30.2383 37.6305 40.8488 36.3012 56.1687 38.5946C53.2324 37.913 53.7987 35.6583 55.2564 34.908C55.5898 34.7364 55.9699 34.6434 56.3654 34.6661C56.5298 34.6755 56.6969 34.7049 56.8643 34.7569ZM34.2796 22.4311L34.9795 16.6315L36.8223 22.1922L43.6469 23.3617L37.455 24.5093L36.4088 28.4176C38.0381 28.1639 41.172 28.2567 40.6733 30.6575C40.0499 33.6585 32.1387 32.9683 31.0317 31.2239C30.1461 29.8284 33.7481 28.8185 35.6597 28.488L33.4166 24.8887L27.8716 24.0894L34.2796 22.4311Z" fill="#13131F"/>
<path d="M40.858 42.2588L45.8347 41.8289C45.9147 42.0054 46.0596 42.2812 46.2468 42.6201C46.8137 42.5668 49.4129 41.7442 50.6416 41.3395C51.6181 41.2478 54.7332 39.4713 56.1687 38.5946C40.8488 36.3012 30.2383 37.6305 22.5032 38.5996C20.7955 38.8135 19.228 39.0099 17.7808 39.1459C10.9745 39.9363 10.9229 44.1787 11.548 45.8804C12.1227 46.6437 13.9765 48.1193 16.7941 47.9149L18.9255 47.7146L19.7937 45.9355L26.7313 42.8666C26.9907 42.9132 27.2723 42.9543 27.5728 42.9901C31.1709 43.4189 37.4794 43.1032 40.868 42.8237L40.858 42.2588Z" fill="#0D0D18"/>
<path fill-rule="evenodd" clip-rule="evenodd" d="M65.3211 85.4164C60.4089 89.2101 49.8108 96.8325 46.7155 96.9725C42.8465 97.1474 41.7501 95.5152 41.667 95.0326C41.6236 94.7806 41.8536 94.4823 42.0918 94.1735C42.3097 93.8908 42.5345 93.5993 42.5629 93.3263C42.6105 92.8692 42.1439 91.9448 41.9047 91.5397C39.1707 93.2044 35.3232 95.5586 31.6323 97.8384C32.2566 97.5392 33.7099 97.2789 34.9767 98.3249C35.1259 98.4481 35.2725 98.5895 35.4149 98.751C35.9527 100.059 36.2681 101.523 34.2939 102.478C32.7563 103.222 31.7699 102.431 31.2526 101.806C31.0949 101.615 30.9807 101.44 30.9079 101.328C30.8889 101.298 30.8727 101.274 30.8592 101.254C30.5822 100.446 30.3489 98.6322 31.6302 97.8397C26.025 101.302 20.7818 104.592 20.3501 105.033C51.1737 128.452 79.8376 109.905 90.3165 97.7043C82.8103 91.0461 70.337 85.6995 65.0386 83.8585C65.2104 84.374 65.3123 84.8965 65.3211 85.4164ZM73.8296 92.4633C72.3955 92.2962 71.5326 94.1126 71.2803 95.0416C71.2545 96.2386 71.6625 98.6271 73.5013 98.6052C75.3401 98.5833 75.8115 96.4266 75.9838 95.3164C76.1442 94.2828 75.2637 92.6303 73.8296 92.4633ZM70.026 104.175C69.9651 103.125 69.5857 101.497 67.471 101.473C66.5798 101.463 66.1129 102.711 65.9119 103.755C65.854 104.056 65.8182 104.34 65.8007 104.572C65.8219 105.601 66.2989 107.626 68.0367 107.493C69.6213 107.372 70.0208 105.587 70.0327 104.476C70.0339 104.369 70.0314 104.268 70.026 104.175ZM36.5803 106.337C35.5305 106.405 35.2388 107.985 35.2242 108.765C35.2843 108.945 35.3695 109.155 35.4776 109.368C35.9042 110.211 36.6874 111.122 37.6948 110.57C38.9577 109.878 38.8313 108.213 38.6103 107.467C38.5492 107.363 38.4554 107.234 38.332 107.101C37.9724 106.713 37.362 106.286 36.5803 106.337Z" fill="#13131F"/>
<path d="M71.2803 95.0416C71.5326 94.1126 72.3955 92.2962 73.8296 92.4633C75.2637 92.6303 76.1442 94.2828 75.9838 95.3164C75.8115 96.4266 75.3401 98.5833 73.5013 98.6052C71.6625 98.6271 71.2545 96.2386 71.2803 95.0416Z" fill="#FFD82D"/>
<path d="M67.471 101.473C69.5857 101.497 69.9651 103.125 70.026 104.175C70.0314 104.268 70.0339 104.369 70.0327 104.476C70.0208 105.587 69.6213 107.372 68.0367 107.493C66.2989 107.626 65.8219 105.601 65.8007 104.572C65.8182 104.34 65.854 104.056 65.9119 103.755C66.1129 102.711 66.5798 101.463 67.471 101.473Z" fill="#FFD82D"/>
<path d="M35.2242 108.765C35.2388 107.985 35.5305 106.405 36.5803 106.337C37.362 106.286 37.9724 106.713 38.332 107.101C38.4554 107.234 38.5492 107.363 38.6103 107.467C38.8313 108.213 38.9577 109.878 37.6948 110.57C36.6874 111.122 35.9042 110.211 35.4776 109.368C35.3695 109.155 35.2843 108.945 35.2242 108.765Z" fill="#FFD82D"/>
<path d="M34.2939 102.478C36.2681 101.523 35.9527 100.059 35.4149 98.751C35.2725 98.5895 35.1259 98.4481 34.9767 98.3249C33.7099 97.2789 32.2566 97.5392 31.6323 97.8384L31.6302 97.8397C30.3489 98.6322 30.5822 100.446 30.8592 101.254C30.8727 101.274 30.8889 101.298 30.9079 101.328C30.9807 101.44 31.0949 101.615 31.2526 101.806C31.7699 102.431 32.7563 103.222 34.2939 102.478Z" fill="#FFD82D"/>
<path d="M56.1687 38.5946C58.6753 39.1764 59.8502 36.023 56.8643 34.7569C56.6969 34.7049 56.5298 34.6755 56.3654 34.6661C55.9699 34.6434 55.5898 34.7364 55.2564 34.908C53.7987 35.6583 53.2324 37.913 56.1687 38.5946Z" fill="#FFD82D"/>
<path d="M34.9795 16.6315L34.2796 22.4311L27.8716 24.0894L33.4166 24.8887L35.6597 28.488L36.1706 29.3076L36.4088 28.4176L37.455 24.5093L43.6469 23.3617L36.8223 22.1922L34.9795 16.6315Z" fill="#FFD82D"/>
<path d="M36.1706 29.3076L35.6597 28.488C33.7481 28.8185 30.1461 29.8284 31.0317 31.2239C32.1387 32.9683 40.0499 33.6585 40.6733 30.6575C41.172 28.2567 38.0381 28.1639 36.4088 28.4176L36.1706 29.3076Z" fill="white"/>
<path fill-rule="evenodd" clip-rule="evenodd" d="M28.1607 54.4669C27.1137 54.5653 27.2601 60.4589 29.5841 60.7838C30.6927 60.9387 29.4695 54.3439 28.1607 54.4669ZM28.0731 55.3282C27.7775 55.3937 27.468 56.5167 27.9203 56.512C28.4265 56.5066 28.3687 55.2627 28.0731 55.3282Z" fill="black"/>
<path d="M28.0731 55.3282C27.7775 55.3937 27.468 56.5167 27.9203 56.512C28.4265 56.5066 28.3687 55.2627 28.0731 55.3282Z" fill="white"/>
<path fill-rule="evenodd" clip-rule="evenodd" d="M43.4461 52.5403C42.0626 52.6703 41.691 57.5488 44.5154 58.7018C45.774 58.8477 45.0773 52.2362 43.4461 52.5403ZM43.1984 53.3035C42.7496 53.3456 42.6354 54.9407 43.1589 54.8915C43.4955 54.8599 43.834 53.2437 43.1984 53.3035Z" fill="black"/>
<path d="M43.1984 53.3035C42.7496 53.3456 42.6354 54.9407 43.1589 54.8915C43.4955 54.8599 43.834 53.2437 43.1984 53.3035Z" fill="white"/>
<path fill-rule="evenodd" clip-rule="evenodd" d="M42.623 83.5267C41.7827 83.733 41.2488 84.0976 40.9213 84.5025C40.8142 83.2149 39.3025 81.7889 38.5601 81.2368C36.8455 81.2727 34.9346 80.9892 33.4891 79.9573C33.5019 78.695 34.066 77.3148 34.6379 76.8316C35.3531 75.9848 36.7349 74.0543 36.5412 73.1068C36.892 74.3175 37.5241 75.506 38.1049 76.3926C38.3434 76.7566 38.5072 76.9399 38.6816 77.1349C38.9669 77.4539 39.2804 77.8045 39.9948 79.0297C40.12 79.2443 40.9651 80.5229 41.3951 80.8974C41.9176 81.6405 42.4196 82.4748 42.623 83.5267ZM58.3595 77.1679C57.2387 77.839 54.8854 79.1918 54.4389 79.2338C54.3059 79.0921 54.168 78.9541 54.0257 78.8199C54.0855 78.956 54.1454 79.1019 54.2041 79.2558C51.7205 80.3945 46.5754 82.6509 45.864 82.5669C45.1324 81.7888 44.5371 81.006 44.1393 80.3934L43.0237 78.1561C42.9015 77.9798 42.9127 77.2188 42.9281 76.1847C42.9755 72.9852 43.0616 67.1717 39.3512 67.9765C37.4114 68.3972 36.5556 69.411 36.3304 70.6369C34.8124 69.5095 31.1462 68.174 28.6247 71.8513C28 72.701 27.2567 75.2362 29.1794 78.6647C27.2374 78.1682 23.1794 75.8862 22.4838 70.7308C21.9719 66.9373 22.621 65.6228 23.2289 64.392C23.6537 63.5319 24.0583 62.7126 24.0324 61.1168C24.0828 59.7792 23.8777 56.2575 22.6542 52.8718C22.5628 51.8996 23.1467 51.0262 23.6625 50.3538C23.8326 50.1321 24.0201 49.9666 24.2229 49.8952L27.5599 48.0727C28.1962 47.0825 29.2195 44.7783 28.2227 43.4837L26.6706 44.3958C27.1116 43.9885 27.4369 43.3497 27.5728 42.9901C31.1709 43.4189 37.4794 43.1032 40.868 42.8237L40.9194 45.7235C43.1205 45.9975 47.8066 46.6755 48.9418 47.1954C48.2491 46.0588 46.9499 43.8937 46.2468 42.6201C46.8137 42.5668 49.4129 41.7442 50.6416 41.3395C50.3577 44.5349 53.0508 46.4573 54.4328 47.019C54.9482 48.3286 54.0528 49.5318 53.5406 49.9698C49.92 54.4746 53.0944 58.3359 55.1342 59.7034C52.7375 56.0356 56.5724 53.0618 58.7894 52.0333C60.1365 49.9672 62.173 47.7666 64.5502 47.5018C65.7568 47.3674 66.4952 47.8804 66.9186 48.7128C67.711 50.2703 67.4001 52.9461 66.9892 54.5909L64.6262 59.1511C62.4592 64.6278 60.637 66.1817 59.2327 66.3873C58.3569 66.5155 57.6436 66.1192 57.1106 65.8231C57.0676 65.7992 57.0259 65.776 56.9853 65.7538L57.035 68.6915C57.0958 69.2279 57.2333 70.0134 57.459 70.7952C57.4633 70.8103 57.4677 70.8254 57.4721 70.8405C57.7927 71.9342 58.2863 73.0112 58.9844 73.3797C58.5653 73.8207 58.4584 75.6342 58.4013 76.6029C58.3854 76.8727 58.3734 77.077 58.3595 77.1679ZM26.6706 44.3958C26.4906 44.562 26.2913 44.6897 26.0778 44.7441L26.6706 44.3958ZM60.4715 32.0037C60.4785 32.0344 60.4856 32.0651 60.4927 32.096C60.4853 32.0654 60.4782 32.0346 60.4715 32.0037ZM61.3141 70.4625L61.3177 70.4622L61.3213 70.462C61.3252 70.4617 61.3292 70.4614 61.3331 70.461C61.3255 70.4616 61.3178 70.4622 61.3101 70.4627L61.3141 70.4625ZM69.9731 46.2001C69.9122 46.0803 69.849 45.9565 69.7836 45.8292C69.8591 45.9498 69.9233 46.0736 69.9731 46.2001ZM28.1607 54.4669C27.1137 54.5653 27.2601 60.4589 29.5841 60.7838C30.6927 60.9387 29.4695 54.3439 28.1607 54.4669ZM43.4461 52.5403C42.0626 52.6703 41.691 57.5488 44.5154 58.7018C45.774 58.8477 45.0773 52.2362 43.4461 52.5403Z" fill="#F5D8C7"/>
<path d="M52.411 85.724C55.6234 85.1405 55.0264 81.41 54.2041 79.2558C51.7205 80.3945 46.5754 82.6509 45.864 82.5669C47.5655 84.3765 50.0041 86.1612 52.411 85.724Z" fill="#3C3C3C"/>
<path d="M41.9047 91.5397C41.9462 90.6431 42.1392 88.8167 42.5795 88.6848C41.9036 88.1825 40.5403 86.9752 40.4943 86.1647C40.4049 85.7685 40.444 85.0927 40.9213 84.5025M41.9047 91.5397C42.1439 91.9448 42.6105 92.8692 42.5629 93.3263C42.5345 93.5993 42.3097 93.8908 42.0918 94.1735C41.8536 94.4823 41.6236 94.7806 41.667 95.0326C41.7501 95.5152 42.8465 97.1474 46.7155 96.9725C49.8108 96.8325 60.4089 89.2101 65.3211 85.4164C65.3123 84.8965 65.2104 84.374 65.0386 83.8585M41.9047 91.5397C39.1707 93.2044 35.3232 95.5586 31.6323 97.8384M65.0386 83.8585C64.8624 83.3297 64.6128 82.8082 64.3149 82.3045C63.8995 81.6022 63.3904 80.9344 62.8557 80.3291C62.3414 79.7469 61.8035 79.2224 61.3026 78.7807C60.8669 78.3966 60.4592 78.075 60.1195 77.8324C60.249 76.8017 59.8743 73.2155 59.1638 73.2823C59.0984 73.2884 59.0388 73.3225 58.9844 73.3797M65.0386 83.8585C70.337 85.6995 82.8103 91.0461 90.3165 97.7043C79.8376 109.905 51.1737 128.452 20.3501 105.033C20.7818 104.592 26.025 101.302 31.6302 97.8397M68.3263 95.3192L71.2803 95.0416M71.2803 95.0416C71.5326 94.1126 72.3955 92.2962 73.8296 92.4633C75.2637 92.6303 76.1442 94.2828 75.9838 95.3164M71.2803 95.0416C71.2545 96.2386 71.6625 98.6271 73.5013 98.6052C75.3401 98.5833 75.8115 96.4266 75.9838 95.3164M71.2803 95.0416L70.8547 94.3126M75.9838 95.3164L79.1193 96.5685M75.9838 95.3164L78.3301 94.3792M62.801 104.364L65.8007 104.572M65.8007 104.572C65.8219 105.601 66.2989 107.626 68.0367 107.493C69.6213 107.372 70.0208 105.587 70.0327 104.476M65.8007 104.572C65.8182 104.34 65.854 104.056 65.9119 103.755M70.026 104.175C69.9651 103.125 69.5857 101.497 67.471 101.473C66.5798 101.463 66.1129 102.711 65.9119 103.755M70.026 104.175C70.0314 104.268 70.0339 104.369 70.0327 104.476M70.026 104.175L70.4864 103.642M70.0327 104.476L73.2504 105.57M32.2902 110.06L35.2242 108.765M35.2242 108.765C35.2388 107.985 35.5305 106.405 36.5803 106.337C37.362 106.286 37.9724 106.713 38.332 107.101M35.2242 108.765C35.2843 108.945 35.3695 109.155 35.4776 109.368M38.6103 107.467L42.2256 106.599M38.6103 107.467C38.8313 108.213 38.9577 109.878 37.6948 110.57C36.6874 111.122 35.9042 110.211 35.4776 109.368M38.6103 107.467C38.5492 107.363 38.4554 107.234 38.332 107.101M27.521 102.661L30.8592 101.254M30.8592 101.254C30.5822 100.446 30.3489 98.6322 31.6302 97.8397M30.8592 101.254C30.8727 101.274 30.8889 101.298 30.9079 101.328C30.9807 101.44 31.0949 101.615 31.2526 101.806M31.6323 97.8384C32.2566 97.5392 33.7099 97.2789 34.9767 98.3249M31.6323 97.8384C31.6316 97.8388 31.6309 97.8393 31.6302 97.8397M31.6323 97.8384L31.6302 97.8397M35.4149 98.751L38.1386 97.2271M35.4149 98.751C35.9527 100.059 36.2681 101.523 34.2939 102.478C32.7563 103.222 31.7699 102.431 31.2526 101.806M35.4149 98.751C35.2725 98.5895 35.1259 98.4481 34.9767 98.3249M57.035 68.6915C55.6137 72.0336 51.0449 79.0531 44.1393 80.3934M57.035 68.6915L56.9853 65.7538M57.035 68.6915C57.0958 69.2279 57.2333 70.0134 57.459 70.7952M58.9844 73.3797C58.2863 73.0112 57.7927 71.9342 57.4721 70.8405M58.9844 73.3797C58.5653 73.8207 58.4584 75.6342 58.4013 76.6029C58.3854 76.8727 58.3734 77.077 58.3595 77.1679C57.2387 77.839 54.8854 79.1918 54.4389 79.2338M44.1393 80.3934L43.0237 78.1561C42.9015 77.9798 42.9127 77.2188 42.9281 76.1847C42.9755 72.9852 43.0616 67.1717 39.3512 67.9765C37.4114 68.3972 36.5556 69.411 36.3304 70.6369M44.1393 80.3934C44.5371 81.006 45.1324 81.7888 45.864 82.5669M36.3304 70.6369C34.8124 69.5095 31.1462 68.174 28.6247 71.8513C28 72.701 27.2567 75.2362 29.1794 78.6647M36.3304 70.6369C36.1888 71.4078 36.2966 72.2627 36.5412 73.1068M36.5412 73.1068C36.892 74.3175 37.5241 75.506 38.1049 76.3926C38.3434 76.7566 38.5072 76.9399 38.6816 77.1349C38.9669 77.4539 39.2804 77.8045 39.9948 79.0297C40.12 79.2443 40.9651 80.5229 41.3951 80.8974M36.5412 73.1068C36.7349 74.0543 35.3531 75.9848 34.6379 76.8316C34.066 77.3148 33.5019 78.695 33.4891 79.9573M41.3951 80.8974C41.9176 81.6405 42.4196 82.4748 42.623 83.5267M41.3951 80.8974C40.637 81.0657 39.6373 81.2143 38.5601 81.2368M33.4891 79.9573C33.4839 80.469 33.5693 80.9613 33.7815 81.3666C34.1131 82.0002 34.7775 82.5487 35.4858 83.1334C36.343 83.8411 37.2647 84.6019 37.7393 85.6314C38.606 87.5115 36.7723 91.1166 34.7192 91.3472C33.0768 91.5317 31.9262 91.9995 31.5562 92.2103C31.4324 92.4985 30.658 93.1698 28.5509 93.5489C26.4439 93.9279 24.9001 92.0309 24.3916 91.035C25.9585 91.9742 27.6581 91.4071 28.312 91.0062C31.511 88.5177 31.8453 83.2428 29.2817 78.8437C29.2468 78.7838 29.2127 78.7241 29.1794 78.6647M33.4891 79.9573C34.9346 80.9892 36.8455 81.2727 38.5601 81.2368M29.1794 78.6647C27.2374 78.1682 23.1794 75.8862 22.4838 70.7308C21.9719 66.9373 22.621 65.6228 23.2289 64.392C23.6537 63.5319 24.0583 62.7126 24.0324 61.1168M24.0324 61.1168C23.5397 62.6972 22.2699 65.8846 21.1331 65.9914C21.7829 64.61 22.8927 61.3521 22.1332 59.3714C20.2886 59.9471 17.1022 62.115 19.1139 66.1811C17.6561 64.9852 15.5318 61.6213 18.6973 57.7326C18.9859 57.5923 19.5032 56.8345 19.2635 54.9257C19.1399 53.9417 18.6504 53.1589 18.1375 52.3388C17.4066 51.1701 16.6283 49.9255 16.7941 47.9149M24.0324 61.1168C24.0828 59.7792 23.8777 56.2575 22.6542 52.8718C22.5628 51.8996 23.1467 51.0262 23.6625 50.3538M42.623 83.5267C43.0267 85.6154 43.9037 87.9886 45.6249 89.3795C49.054 92.1506 55.5083 87.9355 55.9812 86.7843C57.1837 83.857 56.2784 81.1933 54.4389 79.2338M42.623 83.5267C41.7827 83.733 41.2488 84.0976 40.9213 84.5025M54.4389 79.2338C54.3059 79.0921 54.168 78.9541 54.0257 78.8199C54.0855 78.956 54.1454 79.1019 54.2041 79.2558M54.2041 79.2558C55.0264 81.41 55.6234 85.1405 52.411 85.724C50.0041 86.1612 47.5655 84.3765 45.864 82.5669M54.2041 79.2558C51.7205 80.3945 46.5754 82.6509 45.864 82.5669M56.9853 65.7538C56.4795 64.9211 55.6927 62.9177 56.5918 61.5658M56.9853 65.7538C57.0259 65.776 57.0676 65.7992 57.1106 65.8231C57.6436 66.1192 58.3569 66.5155 59.2327 66.3873M57.4071 54.5859C57.7014 53.8952 58.1733 52.9784 58.7894 52.0333M59.4718 59.2959C59.2732 56.7619 59.7185 51.5169 63.0878 50.808M58.7894 52.0333C60.1365 49.9672 62.173 47.7666 64.5502 47.5018C65.7568 47.3674 66.4952 47.8804 66.9186 48.7128M58.7894 52.0333C56.5724 53.0618 52.7375 56.0356 55.1342 59.7034C53.0944 58.3359 49.92 54.4746 53.5406 49.9698C54.0528 49.5318 54.9482 48.3286 54.4328 47.019C53.0508 46.4573 50.3577 44.5349 50.6416 41.3395M50.6416 41.3395C49.4129 41.7442 46.8137 42.5668 46.2468 42.6201M50.6416 41.3395C51.6181 41.2478 54.7332 39.4713 56.1687 38.5946M66.9186 48.7128C67.711 50.2703 67.4001 52.9461 66.9892 54.5909L64.6262 59.1511C62.4592 64.6278 60.637 66.1817 59.2327 66.3873M66.9186 48.7128C67.428 49.4194 68.4478 51.1644 68.4518 52.4919C68.7085 50.4056 68.8382 45.7636 67.3037 43.8858C67.9309 44.1609 69.1989 44.8965 69.7836 45.8292M16.7941 47.9149L18.9255 47.7146L19.7937 45.9355M16.7941 47.9149C13.9765 48.1193 12.1227 46.6437 11.548 45.8804C10.9229 44.1787 10.9745 39.9363 17.7808 39.1459M23.6625 50.3538C23.8326 50.1321 24.0201 49.9667 24.2229 49.8952L27.5599 48.0727C28.1962 47.0825 29.2195 44.7783 28.2227 43.4837L26.6706 44.3958M23.6625 50.3538C22.4194 50.6143 22.1093 48.2771 22.1096 47.0759L26.0778 44.7441M46.2468 42.6201C46.9499 43.8937 48.2491 46.0588 48.9418 47.1954C47.8066 46.6755 43.1205 45.9975 40.9194 45.7235L40.868 42.8237M46.2468 42.6201C46.0596 42.2812 45.9147 42.0054 45.8347 41.8289L40.858 42.2588L40.868 42.8237M40.868 42.8237C37.4794 43.1032 31.1709 43.4189 27.5728 42.9901M25.2544 42.4046C25.5745 42.5985 26.0838 42.7501 26.7313 42.8666M27.5728 42.9901C27.2723 42.9543 26.9907 42.9132 26.7313 42.8666M27.5728 42.9901C27.4369 43.3497 27.1116 43.9885 26.6706 44.3958M26.0778 44.7441L26.6706 44.3958M26.0778 44.7441C26.2913 44.6897 26.4906 44.562 26.6706 44.3958M21.6459 42.1401L19.7937 45.9355M17.7808 39.1459C20.7648 34.6104 17.3826 28.885 15.3185 26.5892C13.8177 25.0704 11.9774 21.2221 16.6219 17.9791C22.4276 13.9254 45.7446 13.168 53.9025 14.4762C60.4289 15.5228 61.5881 18.5198 61.352 19.8874C60.7658 22.0801 59.6322 26.8768 59.7868 28.5221C59.8436 29.1268 60.1124 30.4333 60.4715 32.0037M17.7808 39.1459C19.228 39.0099 20.7955 38.8135 22.5032 38.5996C30.2383 37.6305 40.8488 36.3012 56.1687 38.5946M56.1687 38.5946C58.6753 39.1764 59.8502 36.023 56.8643 34.7569C56.6969 34.7049 56.5298 34.6755 56.3654 34.6661M56.1687 38.5946L62.5084 40.2245C61.9814 38.214 61.1097 34.7853 60.4927 32.096M56.1687 38.5946C53.2324 37.913 53.7987 35.6583 55.2564 34.908M19.7937 45.9355L26.7313 42.8666M60.4715 32.0037C60.4785 32.0344 60.4856 32.0651 60.4927 32.096M60.4715 32.0037C60.4782 32.0346 60.4853 32.0654 60.4927 32.096M56.3654 34.6661C55.4081 33.0038 52.6736 29.3564 49.3943 28.0651M56.3654 34.6661C55.9699 34.6434 55.5898 34.7364 55.2564 34.908M55.2564 34.908C52.2256 33.03 45.2729 29.4256 41.7085 30.0321M34.7731 54.2899C35.3698 56.9904 35.9525 62.8788 33.5101 64.8285C31.0678 66.7781 34.4319 67.5459 36.4192 67.6861M35.6597 28.488L33.4166 24.8887L27.8716 24.0894L34.2796 22.4311L34.9795 16.6315L36.8223 22.1922L43.6469 23.3617L37.455 24.5093L36.4088 28.4176M35.6597 28.488L36.1706 29.3076L36.4088 28.4176M35.6597 28.488C33.7481 28.8185 30.1461 29.8284 31.0317 31.2239C32.1387 32.9683 40.0499 33.6585 40.6733 30.6575C41.172 28.2567 38.0381 28.1639 36.4088 28.4176M35.4776 109.368L34.799 110.451M38.332 107.101L38.7316 106.135M31.2526 101.806L30.6492 102.82M34.9767 98.3249L35.2532 97.6199M65.9119 103.755L65.0698 103.004M59.2327 66.3873C59.4823 67.7774 60.2452 70.5227 61.3101 70.4627M61.3331 70.461C61.3292 70.4614 61.3252 70.4617 61.3213 70.462M61.3331 70.461C61.3255 70.4616 61.3178 70.4622 61.3101 70.4627M61.3331 70.461C61.3268 70.4615 61.3205 70.462 61.3141 70.4625M59.7289 71.668C59.7284 71.668 59.728 71.668 59.7275 71.668M57.459 70.7952C57.4633 70.8103 57.4677 70.8254 57.4721 70.8405M57.459 70.7952C57.4628 70.8106 57.4672 70.8257 57.4721 70.8405M38.5601 81.2368C39.3025 81.7889 40.8142 83.2149 40.9213 84.5025M60.4927 32.096C60.8808 33.7054 62.1849 34.8944 62.7995 35.2932C64.0176 35.208 67.8453 42.0576 69.7836 45.8292M69.7836 45.8292C69.8591 45.9498 69.9233 46.0736 69.9731 46.2001C69.9122 46.0803 69.849 45.9565 69.7836 45.8292ZM61.3101 70.4627C60.539 70.5189 58.9628 70.4577 58.6453 69.7705C58.7049 70.4057 59.005 71.674 59.7275 71.668M61.3101 70.4627L61.3141 70.4625M61.3101 70.4627C61.3114 70.4626 61.3128 70.4626 61.3141 70.4625M59.7275 71.668C59.0592 71.6742 57.6972 71.5157 57.4721 70.8405M61.3213 70.462L61.3177 70.4622M61.3213 70.462C61.3201 70.4621 61.3189 70.4622 61.3177 70.4622M61.3177 70.4622L61.3141 70.4625M61.3177 70.4622C61.3165 70.4623 61.3153 70.4624 61.3141 70.4625M43.4461 52.5403C42.0626 52.6703 41.691 57.5488 44.5154 58.7018C45.774 58.8477 45.0773 52.2362 43.4461 52.5403ZM28.1607 54.4669C27.1137 54.5653 27.2601 60.4589 29.5842 60.7838C30.6927 60.9387 29.4695 54.3439 28.1607 54.4669ZM28.0731 55.3282C27.7775 55.3937 27.468 56.5167 27.9203 56.512C28.4265 56.5066 28.3687 55.2627 28.0731 55.3282ZM43.1984 53.3035C42.7496 53.3456 42.6354 54.9407 43.1589 54.8915C43.4955 54.8599 43.834 53.2437 43.1984 53.3035Z" stroke="black" stroke-width="0.375575" stroke-linejoin="round"/>
</g>
<defs>
<filter id="filter0_d_298_1839" x="0.356621" y="0.531116" width="105.735" height="129.099" filterUnits="userSpaceOnUse" color-interpolation-filters="sRGB">
<feFlood flood-opacity="0" result="BackgroundImageFix"/>
<feColorMatrix in="SourceAlpha" type="matrix" values="0 0 0 0 0 0 0 0 0 0 0 0 0 0 0 0 0 0 127 0" result="hardAlpha"/>
<feOffset dx="2.41657"/>
<feGaussianBlur stdDeviation="6.58515"/>
<feComposite in2="hardAlpha" operator="out"/>
<feColorMatrix type="matrix" values="0 0 0 0 1 0 0 0 0 1 0 0 0 0 1 0 0 0 0.25 0"/>
<feBlend mode="normal" in2="BackgroundImageFix" result="effect1_dropShadow_298_1839"/>
<feBlend mode="normal" in="SourceGraphic" in2="effect1_dropShadow_298_1839" result="shape"/>
</filter>
</defs>
</svg>
