<svg width="296" height="48" viewBox="0 0 296 48" fill="none" xmlns="http://www.w3.org/2000/svg">
<path d="M2.712 15.503C2.19867 15.503 1.76 15.3537 1.396 15.055C1.032 14.747 0.85 14.2803 0.85 13.655C0.85 13.123 0.99 12.7123 1.27 12.423C1.55 12.1337 1.93267 11.933 2.418 11.821C2.91267 11.709 3.482 11.653 4.126 11.653H4.742V11.401C4.742 11.1583 4.69533 10.925 4.602 10.701C4.518 10.4677 4.37333 10.2763 4.168 10.127C3.972 9.96832 3.70133 9.88899 3.356 9.88899C3.01067 9.88899 2.74467 9.92166 2.558 9.98699C2.37133 10.0523 2.222 10.1223 2.11 10.197C1.998 10.2717 1.89533 10.309 1.802 10.309C1.634 10.309 1.50333 10.2297 1.41 10.071C1.31667 9.90299 1.27 9.73499 1.27 9.56699C1.27 9.39899 1.37733 9.24966 1.592 9.11899C1.816 8.97899 2.09133 8.87166 2.418 8.79699C2.74467 8.71299 3.06667 8.67099 3.384 8.67099C4.07467 8.67099 4.62533 8.80166 5.036 9.06299C5.44667 9.31499 5.74533 9.64632 5.932 10.057C6.11867 10.4677 6.212 10.911 6.212 11.387V14.901C6.212 15.0317 6.142 15.1483 6.002 15.251C5.87133 15.3443 5.70333 15.391 5.498 15.391C5.31133 15.391 5.15267 15.3443 5.022 15.251C4.89133 15.1483 4.826 15.0317 4.826 14.901V14.411C4.58333 14.691 4.28933 14.943 3.944 15.167C3.59867 15.391 3.188 15.503 2.712 15.503ZM3.244 14.383C3.47733 14.383 3.706 14.313 3.93 14.173C4.16333 14.033 4.35467 13.8557 4.504 13.641C4.66267 13.4263 4.742 13.207 4.742 12.983V12.465H4.392C4.03733 12.465 3.70133 12.4883 3.384 12.535C3.06667 12.5723 2.81 12.6657 2.614 12.815C2.42733 12.955 2.334 13.1743 2.334 13.473C2.334 13.7903 2.418 14.0237 2.586 14.173C2.76333 14.313 2.98267 14.383 3.244 14.383ZM8.40978 15.391C8.20445 15.391 8.03178 15.3397 7.89178 15.237C7.76111 15.1343 7.69578 15.0223 7.69578 14.901V9.23099C7.69578 9.09099 7.76111 8.97899 7.89178 8.89499C8.03178 8.80166 8.20445 8.75499 8.40978 8.75499C8.59645 8.75499 8.75511 8.80166 8.88578 8.89499C9.01645 8.97899 9.08178 9.09099 9.08178 9.23099V9.84699C9.18445 9.65099 9.31978 9.46432 9.48778 9.28699C9.66511 9.10966 9.87045 8.96499 10.1038 8.85299C10.3371 8.73166 10.5891 8.67099 10.8598 8.67099H11.3078C11.4571 8.67099 11.5878 8.73632 11.6998 8.86699C11.8118 8.98832 11.8678 9.13766 11.8678 9.31499C11.8678 9.49232 11.8118 9.64632 11.6998 9.77699C11.5878 9.90766 11.4571 9.97299 11.3078 9.97299H10.8598C10.5798 9.97299 10.3091 10.057 10.0478 10.225C9.78645 10.393 9.57178 10.631 9.40378 10.939C9.24511 11.2377 9.16578 11.6017 9.16578 12.031V14.901C9.16578 15.0223 9.09111 15.1343 8.94178 15.237C8.80178 15.3397 8.62445 15.391 8.40978 15.391ZM13.4414 15.391C13.2267 15.391 13.0494 15.3397 12.9094 15.237C12.7787 15.1343 12.7134 15.0223 12.7134 14.901V9.23099C12.7134 9.09099 12.7787 8.97899 12.9094 8.89499C13.0494 8.80166 13.2267 8.75499 13.4414 8.75499C13.6187 8.75499 13.7727 8.80166 13.9034 8.89499C14.034 8.97899 14.0994 9.09099 14.0994 9.23099V9.73499C14.258 9.46432 14.4914 9.22166 14.7994 9.00699C15.1074 8.78299 15.4947 8.67099 15.9614 8.67099C16.3814 8.67099 16.75 8.80166 17.0674 9.06299C17.394 9.32432 17.6367 9.66032 17.7954 10.071C18.038 9.59499 18.3507 9.24499 18.7334 9.02099C19.116 8.78766 19.508 8.67099 19.9094 8.67099C20.3294 8.67099 20.7214 8.77832 21.0854 8.99299C21.4587 9.20766 21.762 9.52032 21.9954 9.93099C22.2287 10.3417 22.3454 10.841 22.3454 11.429V14.901C22.3454 15.0223 22.2707 15.1343 22.1214 15.237C21.9814 15.3397 21.8087 15.391 21.6034 15.391C21.4074 15.391 21.2347 15.3397 21.0854 15.237C20.9454 15.1343 20.8754 15.0223 20.8754 14.901V11.429C20.8754 11.1117 20.81 10.8457 20.6794 10.631C20.558 10.407 20.3947 10.239 20.1894 10.127C19.9934 10.015 19.788 9.95899 19.5734 9.95899C19.3494 9.95899 19.1394 10.0197 18.9434 10.141C18.7474 10.253 18.584 10.4163 18.4534 10.631C18.3227 10.8363 18.2574 11.093 18.2574 11.401V14.915C18.2574 15.083 18.178 15.2043 18.0194 15.279C17.87 15.3537 17.702 15.391 17.5154 15.391C17.3474 15.391 17.184 15.3537 17.0254 15.279C16.8667 15.2043 16.7874 15.083 16.7874 14.915V11.415C16.7874 11.1163 16.7267 10.8597 16.6054 10.645C16.484 10.4303 16.3254 10.267 16.1294 10.155C15.9334 10.0337 15.7187 9.97299 15.4854 9.97299C15.2707 9.97299 15.0607 10.029 14.8554 10.141C14.6594 10.253 14.496 10.4163 14.3654 10.631C14.244 10.8457 14.1834 11.1117 14.1834 11.429V14.901C14.1834 15.0223 14.1087 15.1343 13.9594 15.237C13.8194 15.3397 13.6467 15.391 13.4414 15.391ZM26.8246 15.503C26.1899 15.503 25.6299 15.3863 25.1446 15.153C24.6593 14.9197 24.2766 14.5977 23.9966 14.187C23.7166 13.767 23.5766 13.277 23.5766 12.717V11.387C23.5766 10.8923 23.7073 10.4397 23.9686 10.029C24.2393 9.61832 24.5939 9.29166 25.0326 9.04899C25.4713 8.79699 25.9566 8.67099 26.4886 8.67099C26.9926 8.67099 27.4546 8.78299 27.8746 9.00699C28.2946 9.22166 28.6306 9.52499 28.8826 9.91699C29.1439 10.309 29.2746 10.757 29.2746 11.261C29.2746 11.653 29.2139 11.933 29.0926 12.101C28.9713 12.269 28.8126 12.3717 28.6166 12.409C28.4206 12.4463 28.2153 12.465 28.0006 12.465H25.0466V12.787C25.0466 13.2537 25.2146 13.627 25.5506 13.907C25.8959 14.1777 26.3346 14.313 26.8666 14.313C27.1933 14.313 27.4593 14.2663 27.6646 14.173C27.8699 14.0797 28.0426 13.991 28.1826 13.907C28.3226 13.823 28.4533 13.781 28.5746 13.781C28.6959 13.781 28.7986 13.8183 28.8826 13.893C28.9666 13.9677 29.0319 14.0563 29.0786 14.159C29.1253 14.2617 29.1486 14.355 29.1486 14.439C29.1486 14.579 29.0506 14.733 28.8546 14.901C28.6679 15.069 28.4019 15.2137 28.0566 15.335C27.7113 15.447 27.3006 15.503 26.8246 15.503ZM25.0466 11.555H27.3706C27.5759 11.555 27.7113 11.527 27.7766 11.471C27.8513 11.415 27.8886 11.303 27.8886 11.135C27.8886 10.8923 27.8279 10.6683 27.7066 10.463C27.5853 10.2483 27.4173 10.085 27.2026 9.97299C26.9879 9.85166 26.7453 9.79099 26.4746 9.79099C26.2133 9.79099 25.9753 9.84699 25.7606 9.95899C25.5459 10.071 25.3733 10.225 25.2426 10.421C25.1119 10.617 25.0466 10.8457 25.0466 11.107V11.555Z" fill="#FFD82D"/>
<rect x="53.5" y="30.391" width="40" height="8" fill="#BCBCBC"/>
<rect x="24.3848" y="30.391" width="30" height="8" fill="#FFD82D"/>
<rect x="2.27051" y="22.391" width="23" height="24" rx="11.5" fill="#FFD82D"/>
<path d="M14.0467 40.391C13.86 40.391 13.6874 40.349 13.5287 40.265C13.3794 40.181 13.3047 40.0597 13.3047 39.901V32.117L12.8147 32.733C12.7587 32.7797 12.7027 32.817 12.6467 32.845C12.6 32.8637 12.5534 32.873 12.5067 32.873C12.3574 32.873 12.236 32.8123 12.1427 32.691C12.0494 32.5603 12.0027 32.4203 12.0027 32.271C12.0027 32.159 12.0307 32.0517 12.0867 31.949C12.1427 31.8463 12.2127 31.7623 12.2967 31.697L13.7527 30.297C13.7994 30.2503 13.8507 30.213 13.9067 30.185C13.972 30.157 14.0467 30.143 14.1307 30.143C14.2894 30.143 14.4387 30.185 14.5787 30.269C14.7187 30.353 14.7887 30.4743 14.7887 30.633V39.901C14.7887 40.0597 14.7094 40.181 14.5507 40.265C14.4014 40.349 14.2334 40.391 14.0467 40.391Z" fill="black"/>
<path d="M77.3555 15.503C76.6835 15.503 76.1281 15.3817 75.6895 15.139C75.2601 14.8963 74.9428 14.565 74.7375 14.145C74.5321 13.725 74.4295 13.249 74.4295 12.717V11.457C74.4295 10.9343 74.5321 10.463 74.7375 10.043C74.9428 9.61366 75.2601 9.27766 75.6895 9.03499C76.1188 8.79232 76.6648 8.67099 77.3275 8.67099C77.7568 8.67099 78.1301 8.72232 78.4475 8.82499C78.7741 8.92766 79.0261 9.05832 79.2035 9.21699C79.3901 9.36632 79.4835 9.52499 79.4835 9.69299C79.4835 9.77699 79.4555 9.87966 79.3995 10.001C79.3528 10.113 79.2828 10.211 79.1895 10.295C79.1055 10.3697 79.0028 10.407 78.8815 10.407C78.7881 10.407 78.6855 10.3697 78.5735 10.295C78.4708 10.2203 78.3308 10.1503 78.1535 10.085C77.9761 10.0103 77.7381 9.97299 77.4395 9.97299C76.9168 9.97299 76.5295 10.1037 76.2775 10.365C76.0255 10.6263 75.8995 10.9903 75.8995 11.457V12.717C75.8995 13.1837 76.0255 13.5477 76.2775 13.809C76.5295 14.0703 76.9215 14.201 77.4535 14.201C77.7615 14.201 78.0041 14.1637 78.1815 14.089C78.3588 14.005 78.4988 13.9257 78.6015 13.851C78.7135 13.7763 78.8208 13.739 78.9235 13.739C79.0541 13.739 79.1661 13.7763 79.2595 13.851C79.3621 13.9257 79.4368 14.019 79.4835 14.131C79.5395 14.243 79.5675 14.3457 79.5675 14.439C79.5675 14.5977 79.4695 14.761 79.2735 14.929C79.0868 15.097 78.8255 15.237 78.4895 15.349C78.1628 15.4517 77.7848 15.503 77.3555 15.503ZM83.1644 15.503C82.6604 15.503 82.189 15.3723 81.7504 15.111C81.3117 14.8497 80.957 14.509 80.6864 14.089C80.425 13.6597 80.2944 13.2023 80.2944 12.717V11.429C80.2944 10.9343 80.4204 10.477 80.6724 10.057C80.9337 9.63699 81.2837 9.30099 81.7224 9.04899C82.1704 8.79699 82.6557 8.67099 83.1784 8.67099C83.701 8.67099 84.1817 8.79699 84.6204 9.04899C85.059 9.29166 85.409 9.62299 85.6704 10.043C85.941 10.4537 86.0764 10.9157 86.0764 11.429V12.717C86.0764 13.193 85.941 13.6457 85.6704 14.075C85.409 14.5043 85.0544 14.8497 84.6064 15.111C84.1677 15.3723 83.687 15.503 83.1644 15.503ZM83.1784 14.201C83.4397 14.201 83.6777 14.131 83.8924 13.991C84.107 13.851 84.2797 13.669 84.4104 13.445C84.541 13.2117 84.6064 12.969 84.6064 12.717V11.429C84.6064 11.1863 84.541 10.953 84.4104 10.729C84.2797 10.505 84.107 10.323 83.8924 10.183C83.6777 10.043 83.4397 9.97299 83.1784 9.97299C82.9077 9.97299 82.665 10.043 82.4504 10.183C82.245 10.323 82.077 10.505 81.9464 10.729C81.825 10.953 81.7644 11.1863 81.7644 11.429V12.717C81.7644 12.969 81.825 13.2117 81.9464 13.445C82.077 13.669 82.2497 13.851 82.4644 13.991C82.679 14.131 82.917 14.201 83.1784 14.201ZM88.083 15.391C87.8683 15.391 87.691 15.3397 87.551 15.237C87.4203 15.1343 87.355 15.0223 87.355 14.901V9.23099C87.355 9.09099 87.4203 8.97899 87.551 8.89499C87.691 8.80166 87.8683 8.75499 88.083 8.75499C88.2603 8.75499 88.4143 8.80166 88.545 8.89499C88.6756 8.97899 88.741 9.09099 88.741 9.23099V9.73499C88.8996 9.46432 89.133 9.22166 89.441 9.00699C89.749 8.78299 90.1363 8.67099 90.603 8.67099C91.023 8.67099 91.3916 8.80166 91.709 9.06299C92.0356 9.32432 92.2783 9.66032 92.437 10.071C92.6796 9.59499 92.9923 9.24499 93.375 9.02099C93.7576 8.78766 94.1496 8.67099 94.551 8.67099C94.971 8.67099 95.363 8.77832 95.727 8.99299C96.1003 9.20766 96.4036 9.52032 96.637 9.93099C96.8703 10.3417 96.987 10.841 96.987 11.429V14.901C96.987 15.0223 96.9123 15.1343 96.763 15.237C96.623 15.3397 96.4503 15.391 96.245 15.391C96.049 15.391 95.8763 15.3397 95.727 15.237C95.587 15.1343 95.517 15.0223 95.517 14.901V11.429C95.517 11.1117 95.4516 10.8457 95.321 10.631C95.1996 10.407 95.0363 10.239 94.831 10.127C94.635 10.015 94.4296 9.95899 94.215 9.95899C93.991 9.95899 93.781 10.0197 93.585 10.141C93.389 10.253 93.2256 10.4163 93.095 10.631C92.9643 10.8363 92.899 11.093 92.899 11.401V14.915C92.899 15.083 92.8196 15.2043 92.661 15.279C92.5116 15.3537 92.3436 15.391 92.157 15.391C91.989 15.391 91.8256 15.3537 91.667 15.279C91.5083 15.2043 91.429 15.083 91.429 14.915V11.415C91.429 11.1163 91.3683 10.8597 91.247 10.645C91.1256 10.4303 90.967 10.267 90.771 10.155C90.575 10.0337 90.3603 9.97299 90.127 9.97299C89.9123 9.97299 89.7023 10.029 89.497 10.141C89.301 10.253 89.1376 10.4163 89.007 10.631C88.8856 10.8457 88.825 11.1117 88.825 11.429V14.901C88.825 15.0223 88.7503 15.1343 88.601 15.237C88.461 15.3397 88.2883 15.391 88.083 15.391ZM99.1982 18.541C98.9929 18.541 98.8202 18.4897 98.6802 18.387C98.5495 18.2843 98.4842 18.1723 98.4842 18.051V9.23099C98.4842 9.09099 98.5495 8.97899 98.6802 8.89499C98.8202 8.80166 98.9882 8.75499 99.1842 8.75499C99.3802 8.75499 99.5435 8.80166 99.6742 8.89499C99.8049 8.97899 99.8702 9.09099 99.8702 9.23099V9.73499C100.029 9.46432 100.267 9.22166 100.584 9.00699C100.911 8.78299 101.298 8.67099 101.746 8.67099C102.213 8.67099 102.638 8.79699 103.02 9.04899C103.403 9.29166 103.706 9.62299 103.93 10.043C104.154 10.4537 104.266 10.9157 104.266 11.429V12.717C104.266 13.2023 104.15 13.6597 103.916 14.089C103.692 14.509 103.394 14.8497 103.02 15.111C102.647 15.3723 102.241 15.503 101.802 15.503C101.382 15.503 101.004 15.3957 100.668 15.181C100.332 14.957 100.094 14.7003 99.9542 14.411V18.051C99.9542 18.1723 99.8795 18.2843 99.7302 18.387C99.5902 18.4897 99.4129 18.541 99.1982 18.541ZM101.368 14.201C101.62 14.201 101.854 14.131 102.068 13.991C102.283 13.851 102.456 13.6643 102.586 13.431C102.726 13.1977 102.796 12.9597 102.796 12.717V11.429C102.796 11.1863 102.731 10.953 102.6 10.729C102.47 10.505 102.292 10.323 102.068 10.183C101.854 10.043 101.611 9.97299 101.34 9.97299C101.116 9.97299 100.897 10.0337 100.682 10.155C100.468 10.267 100.29 10.4303 100.15 10.645C100.02 10.8597 99.9542 11.121 99.9542 11.429V13.039C99.9542 13.151 100.015 13.3003 100.136 13.487C100.258 13.6643 100.426 13.8277 100.64 13.977C100.855 14.1263 101.098 14.201 101.368 14.201ZM106.406 15.391C106.192 15.391 106.014 15.3397 105.874 15.237C105.744 15.1343 105.678 15.0223 105.678 14.901V5.28299C105.678 5.14299 105.744 5.03099 105.874 4.94699C106.014 4.85366 106.192 4.80699 106.406 4.80699C106.612 4.80699 106.784 4.85366 106.924 4.94699C107.074 5.03099 107.148 5.14299 107.148 5.28299V14.901C107.148 15.0223 107.074 15.1343 106.924 15.237C106.784 15.3397 106.612 15.391 106.406 15.391ZM109.534 7.08899C109.301 7.08899 109.1 7.00966 108.932 6.85099C108.764 6.69232 108.68 6.51499 108.68 6.31899C108.68 6.10432 108.764 5.92232 108.932 5.77299C109.1 5.62366 109.301 5.54899 109.534 5.54899C109.767 5.54899 109.963 5.62366 110.122 5.77299C110.29 5.92232 110.374 6.10432 110.374 6.31899C110.374 6.51499 110.29 6.69232 110.122 6.85099C109.963 7.00966 109.767 7.08899 109.534 7.08899ZM109.534 15.391C109.319 15.391 109.142 15.3397 109.002 15.237C108.871 15.1343 108.806 15.0223 108.806 14.901V9.23099C108.806 9.09099 108.871 8.97899 109.002 8.89499C109.142 8.80166 109.319 8.75499 109.534 8.75499C109.739 8.75499 109.912 8.80166 110.052 8.89499C110.201 8.97899 110.276 9.09099 110.276 9.23099V14.901C110.276 15.0223 110.201 15.1343 110.052 15.237C109.912 15.3397 109.739 15.391 109.534 15.391ZM114.488 15.503C113.816 15.503 113.261 15.3817 112.822 15.139C112.393 14.8963 112.076 14.565 111.87 14.145C111.665 13.725 111.562 13.249 111.562 12.717V11.457C111.562 10.9343 111.665 10.463 111.87 10.043C112.076 9.61366 112.393 9.27766 112.822 9.03499C113.252 8.79232 113.798 8.67099 114.46 8.67099C114.89 8.67099 115.263 8.72232 115.58 8.82499C115.907 8.92766 116.159 9.05832 116.336 9.21699C116.523 9.36632 116.616 9.52499 116.616 9.69299C116.616 9.77699 116.588 9.87966 116.532 10.001C116.486 10.113 116.416 10.211 116.322 10.295C116.238 10.3697 116.136 10.407 116.014 10.407C115.921 10.407 115.818 10.3697 115.706 10.295C115.604 10.2203 115.464 10.1503 115.286 10.085C115.109 10.0103 114.871 9.97299 114.572 9.97299C114.05 9.97299 113.662 10.1037 113.41 10.365C113.158 10.6263 113.032 10.9903 113.032 11.457V12.717C113.032 13.1837 113.158 13.5477 113.41 13.809C113.662 14.0703 114.054 14.201 114.586 14.201C114.894 14.201 115.137 14.1637 115.314 14.089C115.492 14.005 115.632 13.9257 115.734 13.851C115.846 13.7763 115.954 13.739 116.056 13.739C116.187 13.739 116.299 13.7763 116.392 13.851C116.495 13.9257 116.57 14.019 116.616 14.131C116.672 14.243 116.7 14.3457 116.7 14.439C116.7 14.5977 116.602 14.761 116.406 14.929C116.22 15.097 115.958 15.237 115.622 15.349C115.296 15.4517 114.918 15.503 114.488 15.503ZM120.675 15.503C120.041 15.503 119.481 15.3863 118.995 15.153C118.51 14.9197 118.127 14.5977 117.847 14.187C117.567 13.767 117.427 13.277 117.427 12.717V11.387C117.427 10.8923 117.558 10.4397 117.819 10.029C118.09 9.61832 118.445 9.29166 118.883 9.04899C119.322 8.79699 119.807 8.67099 120.339 8.67099C120.843 8.67099 121.305 8.78299 121.725 9.00699C122.145 9.22166 122.481 9.52499 122.733 9.91699C122.995 10.309 123.125 10.757 123.125 11.261C123.125 11.653 123.065 11.933 122.943 12.101C122.822 12.269 122.663 12.3717 122.467 12.409C122.271 12.4463 122.066 12.465 121.851 12.465H118.897V12.787C118.897 13.2537 119.065 13.627 119.401 13.907C119.747 14.1777 120.185 14.313 120.717 14.313C121.044 14.313 121.31 14.2663 121.515 14.173C121.721 14.0797 121.893 13.991 122.033 13.907C122.173 13.823 122.304 13.781 122.425 13.781C122.547 13.781 122.649 13.8183 122.733 13.893C122.817 13.9677 122.883 14.0563 122.929 14.159C122.976 14.2617 122.999 14.355 122.999 14.439C122.999 14.579 122.901 14.733 122.705 14.901C122.519 15.069 122.253 15.2137 121.907 15.335C121.562 15.447 121.151 15.503 120.675 15.503ZM118.897 11.555H121.221C121.427 11.555 121.562 11.527 121.627 11.471C121.702 11.415 121.739 11.303 121.739 11.135C121.739 10.8923 121.679 10.6683 121.557 10.463C121.436 10.2483 121.268 10.085 121.053 9.97299C120.839 9.85166 120.596 9.79099 120.325 9.79099C120.064 9.79099 119.826 9.84699 119.611 9.95899C119.397 10.071 119.224 10.225 119.093 10.421C118.963 10.617 118.897 10.8457 118.897 11.107V11.555Z" fill="white"/>
<rect x="83.7461" y="22.391" width="23" height="25" rx="11.5" fill="#BCBCBC"/>
<path d="M92.8515 40.891C92.7208 40.891 92.5762 40.849 92.4175 40.765C92.2682 40.6717 92.1935 40.5503 92.1935 40.401V39.043C92.1935 38.6603 92.3008 38.3103 92.5155 37.993C92.7395 37.6663 93.0242 37.3583 93.3695 37.069C93.7242 36.7797 94.0975 36.4997 94.4895 36.229C94.8815 35.949 95.2502 35.669 95.5955 35.389C95.9408 35.0997 96.2255 34.801 96.4495 34.493C96.6735 34.185 96.7855 33.849 96.7855 33.485C96.7855 33.2517 96.7295 33.023 96.6175 32.799C96.5148 32.575 96.3515 32.3883 96.1275 32.239C95.9035 32.0897 95.6142 32.015 95.2595 32.015C94.8675 32.015 94.5315 32.127 94.2515 32.351C93.9808 32.575 93.8455 32.925 93.8455 33.401C93.8455 33.541 93.7755 33.6717 93.6355 33.793C93.5048 33.905 93.3182 33.961 93.0755 33.961C92.8702 33.961 92.7068 33.905 92.5855 33.793C92.4642 33.6717 92.4035 33.4523 92.4035 33.135C92.4035 32.631 92.5342 32.197 92.7955 31.833C93.0568 31.4597 93.4068 31.1703 93.8455 30.965C94.2842 30.7597 94.7555 30.657 95.2595 30.657C95.8008 30.657 96.3002 30.7737 96.7575 31.007C97.2148 31.2403 97.5788 31.567 97.8495 31.987C98.1295 32.3977 98.2695 32.883 98.2695 33.443C98.2695 33.9377 98.1575 34.3857 97.9335 34.787C97.7188 35.1883 97.4388 35.5523 97.0935 35.879C96.7482 36.2057 96.3795 36.5043 95.9875 36.775C95.6048 37.0457 95.2408 37.3023 94.8955 37.545C94.5595 37.7877 94.2795 38.0303 94.0555 38.273C93.8408 38.5157 93.7335 38.7723 93.7335 39.043V39.575H97.8355C97.9662 39.575 98.0782 39.6403 98.1715 39.771C98.2742 39.8923 98.3255 40.0417 98.3255 40.219C98.3255 40.3963 98.2742 40.555 98.1715 40.695C98.0782 40.8257 97.9662 40.891 97.8355 40.891H92.8515Z" fill="black"/>
<rect x="105.86" y="30.391" width="71" height="9" fill="#BCBCBC"/>
<path d="M174.828 15.391C174.034 15.391 173.428 15.2183 173.008 14.873C172.588 14.5183 172.378 13.963 172.378 13.207V6.19299C172.378 6.05299 172.452 5.94099 172.602 5.85699C172.76 5.76366 172.928 5.71699 173.106 5.71699C173.283 5.71699 173.451 5.76366 173.61 5.85699C173.768 5.94099 173.848 6.05299 173.848 6.19299V8.75499H175.556C175.686 8.75499 175.784 8.81099 175.85 8.92299C175.924 9.03499 175.962 9.16099 175.962 9.30099C175.962 9.44099 175.924 9.56699 175.85 9.67899C175.784 9.79099 175.686 9.84699 175.556 9.84699H173.848V13.207C173.848 13.543 173.918 13.781 174.058 13.921C174.207 14.061 174.464 14.131 174.828 14.131H175.304C175.518 14.131 175.677 14.1963 175.78 14.327C175.892 14.4483 175.948 14.593 175.948 14.761C175.948 14.9197 175.892 15.0643 175.78 15.195C175.677 15.3257 175.518 15.391 175.304 15.391H174.828ZM179.8 15.503C179.277 15.503 178.792 15.377 178.344 15.125C177.905 14.8637 177.555 14.523 177.294 14.103C177.033 13.6737 176.902 13.221 176.902 12.745V9.24499C176.902 9.12366 176.972 9.01166 177.112 8.90899C177.261 8.80632 177.439 8.75499 177.644 8.75499C177.84 8.75499 178.008 8.80632 178.148 8.90899C178.297 9.01166 178.372 9.12366 178.372 9.24499V12.745C178.372 12.9877 178.433 13.221 178.554 13.445C178.685 13.669 178.857 13.851 179.072 13.991C179.296 14.131 179.539 14.201 179.8 14.201C180.061 14.201 180.299 14.131 180.514 13.991C180.729 13.851 180.897 13.669 181.018 13.445C181.149 13.221 181.214 12.9877 181.214 12.745V9.23099C181.214 9.10032 181.289 8.98832 181.438 8.89499C181.597 8.80166 181.769 8.75499 181.956 8.75499C182.171 8.75499 182.343 8.80166 182.474 8.89499C182.614 8.98832 182.684 9.10032 182.684 9.23099V12.745C182.684 13.2397 182.553 13.697 182.292 14.117C182.031 14.537 181.681 14.873 181.242 15.125C180.803 15.377 180.323 15.503 179.8 15.503ZM187.146 15.503C186.511 15.503 185.951 15.3863 185.466 15.153C184.981 14.9197 184.598 14.5977 184.318 14.187C184.038 13.767 183.898 13.277 183.898 12.717V11.387C183.898 10.8923 184.029 10.4397 184.29 10.029C184.561 9.61832 184.915 9.29166 185.354 9.04899C185.793 8.79699 186.278 8.67099 186.81 8.67099C187.314 8.67099 187.776 8.78299 188.196 9.00699C188.616 9.22166 188.952 9.52499 189.204 9.91699C189.465 10.309 189.596 10.757 189.596 11.261C189.596 11.653 189.535 11.933 189.414 12.101C189.293 12.269 189.134 12.3717 188.938 12.409C188.742 12.4463 188.537 12.465 188.322 12.465H185.368V12.787C185.368 13.2537 185.536 13.627 185.872 13.907C186.217 14.1777 186.656 14.313 187.188 14.313C187.515 14.313 187.781 14.2663 187.986 14.173C188.191 14.0797 188.364 13.991 188.504 13.907C188.644 13.823 188.775 13.781 188.896 13.781C189.017 13.781 189.12 13.8183 189.204 13.893C189.288 13.9677 189.353 14.0563 189.4 14.159C189.447 14.2617 189.47 14.355 189.47 14.439C189.47 14.579 189.372 14.733 189.176 14.901C188.989 15.069 188.723 15.2137 188.378 15.335C188.033 15.447 187.622 15.503 187.146 15.503ZM185.368 11.555H187.692C187.897 11.555 188.033 11.527 188.098 11.471C188.173 11.415 188.21 11.303 188.21 11.135C188.21 10.8923 188.149 10.6683 188.028 10.463C187.907 10.2483 187.739 10.085 187.524 9.97299C187.309 9.85166 187.067 9.79099 186.796 9.79099C186.535 9.79099 186.297 9.84699 186.082 9.95899C185.867 10.071 185.695 10.225 185.564 10.421C185.433 10.617 185.368 10.8457 185.368 11.107V11.555ZM193.622 15.503C193.1 15.503 192.614 15.377 192.166 15.125C191.728 14.8637 191.378 14.523 191.116 14.103C190.855 13.6737 190.724 13.221 190.724 12.745V9.24499C190.724 9.12366 190.794 9.01166 190.934 8.90899C191.084 8.80632 191.261 8.75499 191.466 8.75499C191.662 8.75499 191.83 8.80632 191.97 8.90899C192.12 9.01166 192.194 9.12366 192.194 9.24499V12.745C192.194 12.9877 192.255 13.221 192.376 13.445C192.507 13.669 192.68 13.851 192.894 13.991C193.118 14.131 193.361 14.201 193.622 14.201C193.884 14.201 194.122 14.131 194.336 13.991C194.551 13.851 194.719 13.669 194.84 13.445C194.971 13.221 195.036 12.9877 195.036 12.745V9.23099C195.036 9.10032 195.111 8.98832 195.26 8.89499C195.419 8.80166 195.592 8.75499 195.778 8.75499C195.993 8.75499 196.166 8.80166 196.296 8.89499C196.436 8.98832 196.506 9.10032 196.506 9.23099V12.745C196.506 13.2397 196.376 13.697 196.114 14.117C195.853 14.537 195.503 14.873 195.064 15.125C194.626 15.377 194.145 15.503 193.622 15.503ZM198.686 15.391C198.481 15.391 198.308 15.3397 198.168 15.237C198.037 15.1343 197.972 15.0223 197.972 14.901V9.23099C197.972 9.09099 198.037 8.97899 198.168 8.89499C198.308 8.80166 198.481 8.75499 198.686 8.75499C198.873 8.75499 199.031 8.80166 199.162 8.89499C199.293 8.97899 199.358 9.09099 199.358 9.23099V9.84699C199.461 9.65099 199.596 9.46432 199.764 9.28699C199.941 9.10966 200.147 8.96499 200.38 8.85299C200.613 8.73166 200.865 8.67099 201.136 8.67099H201.584C201.733 8.67099 201.864 8.73632 201.976 8.86699C202.088 8.98832 202.144 9.13766 202.144 9.31499C202.144 9.49232 202.088 9.64632 201.976 9.77699C201.864 9.90766 201.733 9.97299 201.584 9.97299H201.136C200.856 9.97299 200.585 10.057 200.324 10.225C200.063 10.393 199.848 10.631 199.68 10.939C199.521 11.2377 199.442 11.6017 199.442 12.031V14.901C199.442 15.0223 199.367 15.1343 199.218 15.237C199.078 15.3397 198.901 15.391 198.686 15.391Z" fill="white"/>
<rect x="173.406" y="22.391" width="23" height="25" rx="11.5" fill="#BCBCBC"/>
<path d="M184.761 40.975C184.22 40.975 183.753 40.9003 183.361 40.751C182.969 40.6017 182.647 40.4057 182.395 40.163C182.143 39.9203 181.956 39.6543 181.835 39.365C181.723 39.0757 181.667 38.791 181.667 38.511C181.667 38.259 181.718 38.091 181.821 38.007C181.933 37.923 182.115 37.881 182.367 37.881C182.666 37.881 182.866 37.9277 182.969 38.021C183.072 38.105 183.123 38.245 183.123 38.441C183.123 38.5903 183.156 38.7397 183.221 38.889C183.296 39.029 183.398 39.1597 183.529 39.281C183.66 39.393 183.828 39.4863 184.033 39.561C184.248 39.6263 184.495 39.659 184.775 39.659C185.354 39.659 185.778 39.5237 186.049 39.253C186.329 38.973 186.469 38.5297 186.469 37.923V37.657C186.469 37.097 186.31 36.705 185.993 36.481C185.685 36.2477 185.279 36.131 184.775 36.131C184.598 36.131 184.472 36.0703 184.397 35.949C184.322 35.8183 184.285 35.683 184.285 35.543C184.285 35.3843 184.322 35.2443 184.397 35.123C184.472 35.0017 184.593 34.941 184.761 34.941C185.05 34.941 185.302 34.9037 185.517 34.829C185.741 34.745 185.914 34.591 186.035 34.367C186.156 34.143 186.217 33.821 186.217 33.401C186.217 32.8877 186.096 32.519 185.853 32.295C185.62 32.071 185.274 31.959 184.817 31.959C184.537 31.959 184.304 31.9917 184.117 32.057C183.93 32.1223 183.781 32.211 183.669 32.323C183.557 32.435 183.478 32.5563 183.431 32.687C183.384 32.8177 183.361 32.9577 183.361 33.107C183.361 33.2843 183.31 33.429 183.207 33.541C183.114 33.653 182.932 33.709 182.661 33.709C182.446 33.709 182.283 33.6903 182.171 33.653C182.059 33.6157 181.984 33.5457 181.947 33.443C181.91 33.3403 181.891 33.2003 181.891 33.023C181.891 32.799 181.938 32.5517 182.031 32.281C182.124 32.001 182.278 31.7397 182.493 31.497C182.717 31.245 183.02 31.0443 183.403 30.895C183.786 30.7363 184.262 30.657 184.831 30.657C185.382 30.657 185.867 30.7363 186.287 30.895C186.707 31.0537 187.038 31.315 187.281 31.679C187.524 32.043 187.645 32.533 187.645 33.149C187.645 33.737 187.542 34.2363 187.337 34.647C187.141 35.0483 186.87 35.3283 186.525 35.487C186.936 35.6457 187.276 35.8977 187.547 36.243C187.818 36.5883 187.953 37.0597 187.953 37.657V37.923C187.953 38.6603 187.808 39.253 187.519 39.701C187.239 40.149 186.856 40.4757 186.371 40.681C185.886 40.877 185.349 40.975 184.761 40.975Z" fill="black"/>
<rect x="195.521" y="30.391" width="78" height="9" fill="#BCBCBC"/>
<path d="M272.43 15.391C272.225 15.391 272.052 15.349 271.912 15.265C271.781 15.1717 271.716 15.055 271.716 14.915V7.73299C271.716 7.21966 271.842 6.73899 272.094 6.29099C272.355 5.84299 272.729 5.48366 273.214 5.21299C273.699 4.94232 274.283 4.80699 274.964 4.80699C275.337 4.80699 275.701 4.84899 276.056 4.93299C276.411 5.00766 276.7 5.11966 276.924 5.26899C277.148 5.40899 277.26 5.57232 277.26 5.75899C277.26 5.82432 277.241 5.92699 277.204 6.06699C277.167 6.19766 277.106 6.31899 277.022 6.43099C276.947 6.54299 276.849 6.59899 276.728 6.59899C276.625 6.59899 276.509 6.55699 276.378 6.47299C276.257 6.37966 276.089 6.29099 275.874 6.20699C275.659 6.11366 275.361 6.06699 274.978 6.06699C274.679 6.06699 274.413 6.10899 274.18 6.19299C273.956 6.27699 273.769 6.39366 273.62 6.54299C273.471 6.68299 273.359 6.85099 273.284 7.04699C273.219 7.23366 273.186 7.43899 273.186 7.66299V8.75499H274.74C274.88 8.75499 274.983 8.81099 275.048 8.92299C275.123 9.03499 275.16 9.16099 275.16 9.30099C275.16 9.44099 275.123 9.56699 275.048 9.67899C274.983 9.79099 274.88 9.84699 274.74 9.84699H273.186V14.915C273.186 15.055 273.111 15.1717 272.962 15.265C272.813 15.349 272.635 15.391 272.43 15.391ZM277.036 15.391C276.831 15.391 276.658 15.3397 276.518 15.237C276.378 15.1343 276.308 15.0223 276.308 14.901V9.23099C276.308 9.09099 276.378 8.97899 276.518 8.89499C276.658 8.80166 276.831 8.75499 277.036 8.75499C277.241 8.75499 277.414 8.80166 277.554 8.89499C277.703 8.97899 277.778 9.09099 277.778 9.23099V14.901C277.778 15.0223 277.703 15.1343 277.554 15.237C277.414 15.3397 277.241 15.391 277.036 15.391ZM280.031 15.391C279.817 15.391 279.639 15.3397 279.499 15.237C279.369 15.1343 279.303 15.0223 279.303 14.901V9.23099C279.303 9.09099 279.369 8.97899 279.499 8.89499C279.639 8.80166 279.817 8.75499 280.031 8.75499C280.209 8.75499 280.363 8.80166 280.493 8.89499C280.624 8.97899 280.689 9.09099 280.689 9.23099V9.73499C280.829 9.46432 281.058 9.22166 281.375 9.00699C281.702 8.78299 282.099 8.67099 282.565 8.67099C283.004 8.67099 283.405 8.79699 283.769 9.04899C284.143 9.29166 284.441 9.62299 284.665 10.043C284.889 10.4537 285.001 10.9157 285.001 11.429V14.901C285.001 15.0597 284.922 15.181 284.763 15.265C284.614 15.349 284.446 15.391 284.259 15.391C284.091 15.391 283.928 15.349 283.769 15.265C283.611 15.181 283.531 15.0597 283.531 14.901V11.429C283.531 11.1863 283.466 10.953 283.335 10.729C283.214 10.505 283.046 10.323 282.831 10.183C282.617 10.043 282.379 9.97299 282.117 9.97299C281.893 9.97299 281.679 10.0337 281.473 10.155C281.268 10.267 281.1 10.4303 280.969 10.645C280.839 10.8597 280.773 11.121 280.773 11.429V14.901C280.773 15.0223 280.699 15.1343 280.549 15.237C280.409 15.3397 280.237 15.391 280.031 15.391Z" fill="white"/>
<rect x="266.897" y="22.391" width="23" height="25" rx="11.5" fill="#BCBCBC"/>
<path d="M279.753 40.891C279.566 40.891 279.393 40.849 279.235 40.765C279.085 40.681 279.011 40.5597 279.011 40.401V38.595H275.581C275.422 38.595 275.296 38.5483 275.203 38.455C275.109 38.3523 275.063 38.217 275.063 38.049C275.063 38.0023 275.067 37.951 275.077 37.895C275.095 37.839 275.119 37.7877 275.147 37.741L278.521 31.063C278.605 30.9137 278.703 30.811 278.815 30.755C278.936 30.6897 279.057 30.657 279.179 30.657C279.272 30.657 279.375 30.6803 279.487 30.727C279.599 30.7737 279.697 30.839 279.781 30.923C279.865 31.007 279.907 31.1097 279.907 31.231C279.907 31.287 279.888 31.3617 279.851 31.455L276.953 37.209H279.011V35.277C279.011 35.0997 279.085 34.9737 279.235 34.899C279.393 34.8243 279.566 34.787 279.753 34.787C279.939 34.787 280.107 34.8243 280.257 34.899C280.415 34.9737 280.495 35.0997 280.495 35.277V37.209H281.195C281.363 37.209 281.484 37.2837 281.559 37.433C281.643 37.573 281.685 37.7317 281.685 37.909C281.685 38.077 281.633 38.2357 281.531 38.385C281.437 38.525 281.325 38.595 281.195 38.595H280.495V40.401C280.495 40.5597 280.415 40.681 280.257 40.765C280.107 40.849 279.939 40.891 279.753 40.891Z" fill="black"/>
</svg>
